<svg width="39" height="28" viewBox="0 0 39 28" fill="none" xmlns="http://www.w3.org/2000/svg">
<path fill-rule="evenodd" clip-rule="evenodd" d="M32.3744 28H26.4303C26.0727 28 25.7822 27.7095 25.7822 27.352V7.97764C25.7822 7.62009 26.0727 7.32959 26.4303 7.32959H32.3744C32.732 7.32959 33.0225 7.62009 33.0225 7.97764V27.352C33.0225 27.7095 32.732 28 32.3744 28Z" fill="url(#paint0_linear_696_1847)"/>
<path fill-rule="evenodd" clip-rule="evenodd" d="M33.5142 8.62551H25.2684C24.9109 8.62551 24.6204 8.33501 24.6204 7.97747V4.51377C24.6204 4.15623 24.9109 3.86572 25.2684 3.86572H33.5142C33.8718 3.86572 34.1623 4.15623 34.1623 4.51377V7.97747C34.1623 8.33501 33.8718 8.62551 33.5142 8.62551Z" fill="url(#paint1_linear_696_1847)"/>
<path fill-rule="evenodd" clip-rule="evenodd" d="M15.9274 28.0001H5.73745C5.51398 28.0001 5.29052 27.866 5.17879 27.6649L0.0837991 18.838C-0.027933 18.6369 -0.027933 18.3911 0.0837991 18.19L5.17879 9.36314C5.29052 9.16203 5.51398 9.05029 5.73745 9.05029H15.9274C16.1732 9.05029 16.3743 9.16203 16.4861 9.36314L21.6034 18.19C21.7151 18.3911 21.7151 18.6369 21.6034 18.838L16.4861 27.6649C16.3743 27.866 16.1732 28.0001 15.9274 28.0001Z" fill="url(#paint2_linear_696_1847)"/>
<path fill-rule="evenodd" clip-rule="evenodd" d="M37.4919 5.16203H21.3131C20.9555 5.16203 20.665 4.87152 20.665 4.51398V0.648047C20.665 0.290504 20.9555 0 21.3131 0H37.4919C37.8494 0 38.14 0.290504 38.14 0.648047V4.51398C38.14 4.87152 37.8494 5.16203 37.4919 5.16203Z" fill="url(#paint3_linear_696_1847)"/>
<path fill-rule="evenodd" clip-rule="evenodd" d="M24.732 14.2344C24.4415 14.2344 24.1957 14.0557 24.1063 13.7652C24.017 13.4076 24.2181 13.0501 24.5756 12.9607L33.8717 10.4802C34.2293 10.3685 34.5868 10.592 34.6762 10.9272C34.7656 11.2624 34.5645 11.6199 34.2069 11.7093L24.9108 14.2121C24.8438 14.2344 24.7991 14.2344 24.732 14.2344Z" fill="#C5BBFF"/>
<path fill-rule="evenodd" clip-rule="evenodd" d="M24.732 17.7874C24.4415 17.7874 24.1957 17.5863 24.1063 17.3182C24.017 16.9606 24.2181 16.6031 24.5756 16.5137L33.8717 14.0109C34.2293 13.9215 34.5868 14.1226 34.6762 14.4802C34.7656 14.8154 34.5645 15.1729 34.2069 15.2623L24.9108 17.7651C24.8438 17.7874 24.7991 17.7874 24.732 17.7874Z" fill="#C5BBFF"/>
<path fill-rule="evenodd" clip-rule="evenodd" d="M24.732 21.3407C24.4415 21.3407 24.1957 21.1395 24.1063 20.849C24.017 20.5138 24.2181 20.1563 24.5756 20.0669L33.8717 17.5641C34.2293 17.4747 34.5868 17.6758 34.6762 18.0334C34.7656 18.3686 34.5645 18.7261 34.2069 18.8155L24.9108 21.3183C24.8438 21.3407 24.7991 21.3407 24.732 21.3407Z" fill="#C5BBFF"/>
<path fill-rule="evenodd" clip-rule="evenodd" d="M24.732 24.8939C24.4415 24.8939 24.1957 24.6928 24.1063 24.4023C24.017 24.0671 24.2181 23.7095 24.5756 23.6201L33.8717 21.1173C34.2293 21.0279 34.5868 21.2291 34.6762 21.5866C34.7656 21.9218 34.5645 22.2793 34.2069 22.3687L24.9108 24.8715C24.8438 24.8715 24.7991 24.8939 24.732 24.8939Z" fill="#C5BBFF"/>
<path fill-rule="evenodd" clip-rule="evenodd" d="M13.2683 23.3745H8.39682C8.17336 23.3745 7.9499 23.2628 7.83816 23.0617L5.4024 18.8382C5.29067 18.6371 5.29067 18.3913 5.4024 18.1901L7.83816 13.989C7.9499 13.7879 8.17336 13.6538 8.39682 13.6538H13.2683C13.4918 13.6538 13.7153 13.7879 13.827 13.989L16.2628 18.1901C16.3745 18.3913 16.3745 18.6371 16.2628 18.8382L13.827 23.0617C13.7153 23.2628 13.4918 23.3745 13.2683 23.3745Z" fill="white"/>
<defs>
<linearGradient id="paint0_linear_696_1847" x1="29.4023" y1="7.32959" x2="29.4023" y2="28" gradientUnits="userSpaceOnUse">
<stop stop-color="#555DFF"/>
<stop offset="1" stop-color="#333899"/>
</linearGradient>
<linearGradient id="paint1_linear_696_1847" x1="29.3913" y1="3.86572" x2="29.3913" y2="8.62551" gradientUnits="userSpaceOnUse">
<stop stop-color="#555DFF"/>
<stop offset="1" stop-color="#333899"/>
</linearGradient>
<linearGradient id="paint2_linear_696_1847" x1="10.8436" y1="9.05029" x2="10.8436" y2="28.0001" gradientUnits="userSpaceOnUse">
<stop stop-color="#555DFF"/>
<stop offset="1" stop-color="#333899"/>
</linearGradient>
<linearGradient id="paint3_linear_696_1847" x1="29.4025" y1="0" x2="29.4025" y2="5.16203" gradientUnits="userSpaceOnUse">
<stop stop-color="#555DFF"/>
<stop offset="1" stop-color="#333899"/>
</linearGradient>
</defs>
</svg>
