<svg width="34" height="32" viewBox="0 0 34 32" fill="none" xmlns="http://www.w3.org/2000/svg">
<path d="M17.7634 0.0947266L24.7738 4.67323V31.9997H17.7634V0.0947266Z" fill="url(#paint0_linear_696_1885)"/>
<path d="M25.323 19.7905V31.8564H33.9062V22.5323L25.323 19.7905ZM28.9469 29.2333L26.3243 28.4699V26.2063L28.9469 27.1581V29.2333ZM28.9469 25.2747L26.3243 24.5108V22.2483L28.9469 23.2012V25.2747ZM32.2372 30.1857L29.6135 29.4234V27.1587L32.2372 28.1122V30.1857ZM32.2372 26.2277L29.614 25.4649V23.2012L32.2383 24.153V26.2277H32.2372Z" fill="#C5BBFF"/>
<path d="M8.29744 5.53144V23.6497L7.05817 24.4592V18.4079L6.27174 18.7331V12.6971L0.547912 15.224V21.1042L0 21.3315V32H16.9628V0L8.29744 5.53144ZM1.07276 16.3755L3.00452 15.4816V17.806L1.07276 18.6645V16.3755ZM1.21621 20.1428L3.1474 19.2478V21.5739L1.21621 22.4312V20.1428ZM3.20591 28.4931L1.27471 29.3527V27.0626L3.20591 26.1687V28.4931ZM3.20591 24.9514L1.27471 25.8115V23.5214L3.20591 22.6281V24.9514ZM3.48099 15.2549L5.41274 14.361V16.686L3.48099 17.5439V15.2549ZM3.62444 19.0217L5.55563 18.1278V20.4528L3.62444 21.3118V19.0217ZM5.78177 27.3855L3.85001 28.2445V25.9555L5.78177 25.0605V27.3855ZM5.78177 23.8443L3.85001 24.7022V22.4143L5.78177 21.5199V23.8443ZM11.9691 24.2471L9.29764 25.9195V23.4399L11.9691 21.7117V24.2471ZM11.9691 20.0573L9.29764 21.7286V19.2478L11.9691 17.5197V20.0573ZM11.9691 15.8664L9.29764 17.5394V15.058L11.9691 13.3288V15.8664ZM11.9691 11.676L9.29764 13.3468V10.8671L11.9691 9.13787V11.676ZM11.9691 7.48457L9.29764 9.15644V6.67621L11.9691 4.94753V7.48457ZM15.9272 21.7708L12.8276 23.7104V21.1548L15.9272 19.1488V21.7708ZM15.9272 17.5799L12.8276 19.5201V16.9639L15.9272 14.9568V17.5799ZM15.9272 13.389L12.8276 15.3292V12.7741L15.9272 10.7664V13.389ZM15.9272 9.19807L12.8276 11.1383V8.58265L15.9272 6.57551V9.19807ZM15.9272 5.00659L12.8276 6.94679V4.39117L15.9272 2.38404V5.00659Z" fill="url(#paint1_linear_696_1885)"/>
<defs>
<linearGradient id="paint0_linear_696_1885" x1="18.731" y1="2.37019" x2="28.9331" y2="13.0694" gradientUnits="userSpaceOnUse">
<stop stop-color="#555DFF"/>
<stop offset="1" stop-color="#333899"/>
</linearGradient>
<linearGradient id="paint1_linear_696_1885" x1="3.91609" y1="18.3704" x2="8.88657" y2="25.7082" gradientUnits="userSpaceOnUse">
<stop stop-color="#555DFF"/>
<stop offset="1" stop-color="#333899"/>
</linearGradient>
</defs>
</svg>
