<svg width="23" height="30" viewBox="0 0 23 30" fill="none" xmlns="http://www.w3.org/2000/svg">
<rect x="11.5151" width="7.84715" height="9.63835" fill="#C5BBFF"/>
<path d="M20.6448 0H18.0621V8.74104C18.0621 9.35517 17.4411 9.65882 16.9601 8.88775L15.2542 6.15831L13.5483 8.88775C13.0638 9.65541 12.4463 9.35517 12.4463 8.74104V0H3.7871C1.69388 0.00562948 0 1.70411 0 3.79734V26.2129C0.00562948 28.3021 1.69788 29.9944 3.7871 30H20.6482C21.1093 29.9992 21.5513 29.8152 21.8765 29.4882C22.2034 29.163 22.3875 28.7211 22.3883 28.26V1.74343C22.3864 0.781303 21.607 0.00187649 20.6448 0ZM20.969 25.4964L4.51723 25.5169C4.15865 25.5416 3.87334 25.827 3.8486 26.1855C3.82122 26.5821 4.12061 26.9259 4.51723 26.9533H20.969L20.9655 28.277C20.9657 28.3559 20.9351 28.4318 20.8802 28.4886C20.8235 28.5434 20.7476 28.574 20.6687 28.5739H3.7871C2.49164 28.5739 1.44149 27.5237 1.44149 26.2282C1.44149 24.9328 2.49164 23.8826 3.7871 23.8826H20.6687C20.8338 23.8845 20.9671 24.0178 20.969 24.1829V25.4964Z" fill="url(#paint0_linear_696_1861)"/>
<defs>
<linearGradient id="paint0_linear_696_1861" x1="11.1941" y1="0" x2="11.1943" y2="24" gradientUnits="userSpaceOnUse">
<stop stop-color="#555DFF"/>
<stop offset="1" stop-color="#333899"/>
</linearGradient>
</defs>
</svg>
