<svg width="40" height="39" viewBox="0 0 40 39" fill="none" xmlns="http://www.w3.org/2000/svg">
<path d="M35.3872 33.1896C34.468 33.1896 33.6078 33.4932 32.9078 34.016C32.815 34.0751 32.7222 34.1509 32.6295 34.2269C32.5789 31.9836 30.7235 30.1704 28.4633 30.1704C27.4176 30.1704 26.4393 30.5499 25.7056 31.2161C25.6466 29.5631 24.9128 28.0873 23.7743 27.0584C22.7285 26.0885 21.3286 25.515 19.7853 25.515C16.589 25.515 13.9746 28.0283 13.8565 31.2077C13.5192 30.9041 13.1397 30.6595 12.7264 30.4908C12.7251 30.4903 12.7237 30.4901 12.7225 30.4896V22.2643L13.0014 22.08C14.6234 22.3955 17.675 22.7042 19.8525 21.1971C22.437 19.4154 22.9633 15.6341 23.0666 14.4353C23.0854 14.2169 22.9441 14.0172 22.7319 13.9628C21.5505 13.66 17.7124 12.8763 15.1213 14.6696C13.9482 15.4815 13.2004 16.7038 12.7225 17.9092V9.95883L13.0258 9.70068C14.3442 9.79627 16.5252 9.7258 17.9887 8.47936C19.7862 6.94837 19.9387 4.12116 19.9319 3.10434C19.9304 2.88197 19.7694 2.69728 19.5493 2.66573C18.5272 2.51903 15.6258 2.26979 13.8225 3.79878C13.3488 4.20218 12.9949 4.69798 12.7225 5.22517V0.950772C12.7225 0.485035 12.3448 0.107422 11.8791 0.107422C11.4134 0.107422 11.0358 0.485035 11.0358 0.950772V5.34346C10.7568 4.77194 10.3846 4.23229 9.87564 3.79878C8.0724 2.26979 5.17101 2.51903 4.14895 2.66573C3.92884 2.69728 3.76783 2.88197 3.76634 3.10434C3.75955 4.12111 3.91191 6.94832 5.70948 8.47936C7.19729 9.74655 9.42802 9.79859 10.7386 9.69605L11.0358 9.94374V17.9046C10.5562 16.7007 9.80754 15.4804 8.63594 14.6696C6.04484 12.8763 2.20668 13.66 1.02535 13.9628C0.81307 14.0172 0.671774 14.2169 0.690562 14.4353C0.793871 15.6341 1.32014 19.4154 3.9047 21.1971C6.09621 22.7097 9.16339 22.3932 10.7812 22.0765L11.0358 22.2525V30.1708C8.79432 30.215 6.99165 32.0186 6.94949 34.2353C6.21578 33.5859 5.23747 33.1896 4.18328 33.1896C1.88095 33.1896 0.000244141 35.0702 0.000244141 37.381C0.000244141 37.9545 0.118326 38.5027 0.329163 39.0002H39.2414C39.4522 38.5027 39.5703 37.9545 39.5703 37.381C39.5703 35.0702 37.698 33.1896 35.3872 33.1896ZM4.09897 37.0943C3.63513 37.0943 3.21346 36.6726 3.21346 36.2087C3.21346 35.7449 3.63513 35.3232 4.09897 35.3232C4.5628 35.3232 4.98447 35.7449 4.98447 36.2087C4.98447 36.6726 4.5628 37.0943 4.09897 37.0943ZM8.94823 37.1786C8.4844 37.1786 8.06272 36.7569 8.06272 36.2931C8.06272 35.8293 8.4844 35.4076 8.94823 35.4076C9.41206 35.4076 9.83374 35.8293 9.83374 36.2931C9.83374 36.7569 9.41206 37.1786 8.94823 37.1786ZM10.3313 34.5979C9.86745 34.5979 9.44578 34.1847 9.44578 33.7124C9.44578 33.2486 9.86745 32.8269 10.3313 32.8269C10.7952 32.8269 11.2168 33.2486 11.2168 33.7124C11.2168 34.1847 10.7952 34.5979 10.3313 34.5979ZM13.1734 36.1581C12.7095 36.1581 12.2879 35.7364 12.2879 35.2726C12.2879 34.8088 12.7095 34.3871 13.1734 34.3871C13.6457 34.3871 14.0589 34.8088 14.0589 35.2726C14.0589 35.7364 13.6457 36.1581 13.1734 36.1581ZM16.5974 34.91C16.1335 34.91 15.7119 34.4967 15.7119 34.0245C15.7119 33.5606 16.1335 33.139 16.5974 33.139C17.0697 33.139 17.4829 33.5606 17.4829 34.0245C17.4829 34.4967 17.0697 34.91 16.5974 34.91ZM17.6263 31.1655C17.6263 30.7017 18.048 30.28 18.5118 30.28C18.9756 30.28 19.3973 30.7017 19.3973 31.1655C19.3973 31.6378 18.9756 32.051 18.5118 32.051C18.048 32.051 17.6263 31.6378 17.6263 31.1655ZM19.7853 36.6979C19.3214 36.6979 18.8998 36.2762 18.8998 35.8124C18.8998 35.3401 19.3214 34.9269 19.7853 34.9269C20.2491 34.9269 20.6708 35.3401 20.6708 35.8124C20.6708 36.2762 20.2491 36.6979 19.7853 36.6979ZM20.6455 29.3523C20.6455 28.8884 21.0672 28.4668 21.531 28.4668C22.0033 28.4668 22.4165 28.8884 22.4165 29.3523C22.4165 29.8246 22.0033 30.2378 21.531 30.2378C21.0672 30.2378 20.6455 29.8246 20.6455 29.3523ZM22.0708 34.2015C21.6069 34.2015 21.1852 33.7799 21.1852 33.316C21.1852 32.8522 21.6069 32.4305 22.0708 32.4305C22.5346 32.4305 22.9563 32.8522 22.9563 33.316C22.9563 33.7799 22.5346 34.2015 22.0708 34.2015ZM25.714 36.74C25.2502 36.74 24.8285 36.3184 24.8285 35.8545C24.8285 35.3823 25.2502 34.969 25.714 34.969C26.1863 34.969 26.5995 35.3823 26.5995 35.8545C26.5995 36.3184 26.1863 36.74 25.714 36.74ZM28.9609 34.5558C28.4971 34.5558 28.0754 34.1426 28.0754 33.6703C28.0754 33.2064 28.4971 32.7847 28.9609 32.7847C29.4332 32.7847 29.8464 33.2064 29.8464 33.6703C29.8464 34.1426 29.4332 34.5558 28.9609 34.5558ZM30.8753 37.1364C30.4115 37.1364 29.9898 36.7148 29.9898 36.2509C29.9898 35.787 30.4115 35.3654 30.8753 35.3654C31.3392 35.3654 31.7608 35.787 31.7608 36.2509C31.7608 36.7148 31.3392 37.1364 30.8753 37.1364ZM35.4547 37.2629C34.9908 37.2629 34.5692 36.8412 34.5692 36.3774C34.5692 35.9136 34.9908 35.4919 35.4547 35.4919C35.927 35.4919 36.3402 35.9136 36.3402 36.3774C36.3402 36.8412 35.927 37.2629 35.4547 37.2629Z" fill="url(#paint0_linear_696_1879)"/>
<path d="M26.8946 28.6943C27.4007 28.5594 27.9235 28.4834 28.4633 28.4834C30.7487 28.4834 32.7475 29.8244 33.7089 31.7472C34.2486 31.587 34.8137 31.5026 35.3872 31.5026C35.5811 31.5026 35.7751 31.5111 35.9691 31.5364L37.0064 26.0377C37.116 25.4474 36.998 24.8486 36.6606 24.351C36.3233 23.8619 35.8089 23.5245 35.2185 23.4149L32.1234 22.833L35.4462 5.60333L36.7703 5.84788C37.1965 5.91899 37.6213 5.84162 37.9763 5.58645C38.3389 5.34189 38.5835 4.97082 38.6594 4.5407L38.9967 2.7022V2.69376C39.1576 1.78211 38.5468 0.956003 37.6895 0.804666L33.4053 0.0287984C32.5198 -0.139882 31.6764 0.450474 31.5162 1.32754L31.1789 3.17448C31.1029 3.6046 31.1957 4.03471 31.4403 4.3889C31.6849 4.75154 32.0559 4.9877 32.486 5.06357L33.7932 5.29974L30.4704 22.5209L27.3332 21.9306C26.7428 21.8209 26.144 21.939 25.6465 22.2764C25.1489 22.6137 24.82 23.1282 24.7104 23.7185L24.4067 25.3799C24.5839 25.5233 24.7525 25.6666 24.9212 25.8185C25.8067 26.6196 26.473 27.6064 26.8946 28.6943ZM32.8487 3.41903L33.1607 1.69862L37.3269 2.45765L37.0148 4.17807L32.8487 3.41903Z" fill="#C5BBFF"/>
<defs>
<linearGradient id="paint0_linear_696_1879" x1="13.2854" y1="5.00024" x2="17.7854" y2="37.0002" gradientUnits="userSpaceOnUse">
<stop stop-color="#555DFF"/>
<stop offset="1" stop-color="#333899"/>
</linearGradient>
</defs>
</svg>
