<svg width="26" height="26" viewBox="0 0 26 26" fill="none" xmlns="http://www.w3.org/2000/svg">
<path d="M15.9431 11.2788C15.4998 10.8356 14.7784 10.8356 14.3351 11.2788L13.4372 12.1767C13.1397 12.4742 12.6573 12.4743 12.3598 12.1767L11.4619 11.2788C11.2471 11.064 10.9616 10.9458 10.6579 10.9458C10.3543 10.9458 10.0687 11.064 9.85402 11.2788C9.63922 11.4936 9.521 11.7791 9.521 12.0828C9.521 12.3865 9.63927 12.6721 9.85402 12.8868L12.0823 15.1151C12.0865 15.1192 12.091 15.1226 12.0952 15.1267L12.1069 15.115C12.3254 15.3335 12.6114 15.4438 12.8984 15.4469C13.1855 15.4439 13.4717 15.3336 13.6902 15.115C13.7293 15.0759 13.7717 15.0423 13.8163 15.0134L15.943 12.8868C16.1578 12.672 16.276 12.3865 16.276 12.0828C16.2761 11.7791 16.1578 11.4936 15.9431 11.2788Z" fill="#C5BBFF"/>
<path d="M23.2072 6.86393H19.0346V2.79288C19.0346 1.25293 17.7816 0 16.2416 0H9.55524C8.01524 0 6.76236 1.25293 6.76236 2.79288V6.86393H2.79288C1.25288 6.86393 0 8.11686 0 9.6568V16.3431C0 17.8831 1.25288 19.136 2.79288 19.136H6.76236V23.2071C6.76236 24.7471 8.01524 26 9.55524 26H16.2416C17.7816 26 19.0345 24.7471 19.0345 23.2071V19.1361H23.2071C24.7471 19.1361 26 17.8831 26 16.3432V9.6568C26.0001 8.11686 24.7472 6.86393 23.2072 6.86393ZM17.0204 13.9641L14.7921 16.1923C14.2734 16.7111 13.5921 16.9703 12.9108 16.9703C12.9067 16.9703 12.9026 16.97 12.8985 16.97C12.8944 16.97 12.8903 16.9703 12.8862 16.9703C12.2049 16.9703 11.5236 16.711 11.0049 16.1923L8.77661 13.9641C8.27408 13.4616 7.99732 12.7934 7.99732 12.0827C7.99732 11.3719 8.27408 10.7039 8.77661 10.2013C9.27914 9.69875 9.94722 9.42199 10.658 9.42199C11.3686 9.42199 12.0368 9.69875 12.5393 10.2013L12.8985 10.5605L13.2577 10.2013C13.7602 9.6988 14.4283 9.42204 15.1391 9.42204C15.8498 9.42204 16.5179 9.6988 17.0204 10.2013C17.523 10.7039 17.7997 11.372 17.7997 12.0827C17.7997 12.7935 17.5229 13.4616 17.0204 13.9641Z" fill="url(#paint0_linear_696_1837)"/>
<defs>
<linearGradient id="paint0_linear_696_1837" x1="11.5" y1="1.5" x2="14" y2="22" gradientUnits="userSpaceOnUse">
<stop stop-color="#555DFF"/>
<stop offset="1" stop-color="#333899"/>
</linearGradient>
</defs>
</svg>
