<svg width="36" height="36" viewBox="0 0 36 36" fill="none" xmlns="http://www.w3.org/2000/svg">
<path d="M14.145 29.9575C14.1077 29.0305 14.4664 28.1203 15.1272 27.4607L15.8035 26.7832C16.4296 26.1583 17.2897 25.7996 18.1666 25.7996C18.5278 25.7996 18.8827 25.8588 19.2234 25.9745L19.7788 26.1635L20.8883 24.9614L18.0522 22.5404C17.3656 21.9529 16.9529 21.0966 16.9169 20.1902C16.8809 19.2658 17.2396 18.3581 17.8992 17.6999L18.6564 16.9426C19.4265 16.1712 20.4859 15.7302 21.5633 15.7302C22.201 15.7302 22.8349 15.8845 23.3967 16.1776L27.1882 18.1524L28.5908 16.6405C29.5448 15.6081 30.752 14.8688 32.0609 14.4728C31.2586 6.34737 24.4072 0 16.0709 0C7.19463 0 0 7.19463 0 16.0709C0 24.6129 6.66879 31.5787 15.0822 32.0917C14.5243 31.5209 14.1784 30.7662 14.145 29.9575ZM10.7919 23.6474L10.0655 26.1905C9.90226 26.7613 9.61427 27.2679 9.24914 27.7063C6.02853 25.8138 3.65774 22.633 2.86448 18.8634C3.00334 18.8287 3.13705 18.7798 3.28104 18.7593L6.16995 18.3466C7.4762 18.1602 8.79401 18.5998 9.72741 19.532C10.8035 20.6081 11.2124 22.1843 10.7945 23.6474H10.7919ZM13.3183 10.9822C13.0432 12.0841 12.0532 12.8567 10.9167 12.8567C8.45459 12.8567 6.0941 11.8681 4.36743 10.1118C4.27487 10.018 4.20544 9.90484 4.11673 9.80712C6.37437 5.50783 10.8768 2.57006 16.0696 2.57006C18.5613 2.57006 20.8883 3.25661 22.8914 4.43429C22.9519 6.27538 22.2576 8.07275 20.9411 9.38799C20.2404 10.0887 19.1913 10.3034 18.272 9.93569L16.6379 9.28257C15.2455 8.72587 13.6809 9.52556 13.317 10.9809L13.3183 10.9822Z" fill="url(#paint0_linear_696_1873)"/>
<path d="M33.1936 32.9969L33.9521 32.2384C34.4227 31.7678 34.5461 31.0633 34.2555 30.5053L31.3743 24.9743L34.3224 22.2371C35.5296 21.1212 36.1455 19.5141 35.968 17.9417C35.8948 17.295 35.4165 16.8154 34.7698 16.7434C33.1974 16.566 31.5903 17.1818 30.4744 18.3891L27.7372 21.3371L22.2062 18.4559C21.6482 18.1654 20.9437 18.2888 20.4731 18.7594L19.7146 19.5179C19.406 19.8265 19.4086 20.3163 19.721 20.5837L24.5898 24.7416L20.5322 29.1386L18.3942 28.4084C18.1306 28.3184 17.8298 28.3929 17.6228 28.5999L16.9426 29.28C16.6328 29.5899 16.6367 30.081 16.9504 30.3471L19.0511 32.1304C19.6027 32.5984 20.1144 33.1101 20.5824 33.6616L22.3656 35.7624C22.6317 36.0761 23.1229 36.08 23.4327 35.7701L24.1128 35.09C24.3198 34.883 24.3944 34.5822 24.3044 34.3186L23.5741 32.1805L27.9712 28.1229L32.129 32.9918C32.3952 33.3042 32.8863 33.3068 33.1948 32.9982L33.1936 32.9969Z" fill="#C5BBFF"/>
<defs>
<linearGradient id="paint0_linear_696_1873" x1="16.0304" y1="0" x2="16.0304" y2="32.0917" gradientUnits="userSpaceOnUse">
<stop stop-color="#555DFF"/>
<stop offset="1" stop-color="#333899"/>
</linearGradient>
</defs>
</svg>
