<svg width="12" height="14" viewBox="0 0 12 14" fill="none" xmlns="http://www.w3.org/2000/svg">
<path d="M8.65002 0.649902V3.31657M3.31669 0.649902V3.31657M0.650024 5.98324H11.3167M0.650024 3.31657C0.650024 2.96295 0.7905 2.62381 1.04055 2.37376C1.2906 2.12371 1.62974 1.98324 1.98336 1.98324H9.98336C10.337 1.98324 10.6761 2.12371 10.9262 2.37376C11.1762 2.62381 11.3167 2.96295 11.3167 3.31657V11.3166C11.3167 11.6702 11.1762 12.0093 10.9262 12.2594C10.6761 12.5094 10.337 12.6499 9.98336 12.6499H1.98336C1.62974 12.6499 1.2906 12.5094 1.04055 12.2594C0.7905 12.0093 0.650024 11.6702 0.650024 11.3166V3.31657ZM5.31669 9.31657C5.31669 9.49338 5.38693 9.66295 5.51195 9.78797C5.63698 9.913 5.80655 9.98324 5.98336 9.98324C6.16017 9.98324 6.32974 9.913 6.45476 9.78797C6.57979 9.66295 6.65002 9.49338 6.65002 9.31657C6.65002 9.13976 6.57979 8.97019 6.45476 8.84516C6.32974 8.72014 6.16017 8.6499 5.98336 8.6499C5.80655 8.6499 5.63698 8.72014 5.51195 8.84516C5.38693 8.97019 5.31669 9.13976 5.31669 9.31657Z" stroke="#ACB5BB" stroke-width="1.3" stroke-linecap="round" stroke-linejoin="round"/>
</svg>
