<svg width="20" height="20" viewBox="0 0 20 20" fill="none" xmlns="http://www.w3.org/2000/svg">
<g clip-path="url(#clip0_222_2423)">
<path fill-rule="evenodd" clip-rule="evenodd" d="M10.589 13.089C10.4328 13.2453 10.2208 13.333 9.99988 13.333C9.77891 13.333 9.56699 13.2453 9.41071 13.089L4.69655 8.37488C4.61695 8.29801 4.55347 8.20605 4.50979 8.10438C4.46612 8.00271 4.44313 7.89336 4.44217 7.78271C4.44121 7.67206 4.46229 7.56233 4.50419 7.45992C4.5461 7.3575 4.60797 7.26446 4.68622 7.18622C4.76446 7.10797 4.8575 7.04609 4.95992 7.00419C5.06233 6.96229 5.17206 6.94121 5.28271 6.94217C5.39336 6.94313 5.50271 6.96612 5.60438 7.00979C5.70605 7.05347 5.79801 7.11695 5.87488 7.19655L9.99988 11.3215L14.1249 7.19655C14.282 7.04475 14.4925 6.96075 14.711 6.96265C14.9295 6.96455 15.1386 7.05219 15.2931 7.2067C15.4476 7.3612 15.5352 7.57021 15.5371 7.78871C15.539 8.00721 15.455 8.21771 15.3032 8.37488L10.589 13.089Z" fill="#ACB5BB"/>
</g>
<defs>
<clipPath id="clip0_222_2423">
<rect width="20" height="20" fill="white"/>
</clipPath>
</defs>
</svg>
