<svg width="21" height="21" viewBox="0 0 21 21" fill="none" xmlns="http://www.w3.org/2000/svg">
<g clip-path="url(#clip0_262_535)">
<path d="M8.6172 20.5368C3.7152 19.6596 0 15.4284 0 10.32C0 4.644 4.644 0 10.32 0C15.996 0 20.64 4.644 20.64 10.32C20.64 15.4284 16.9248 19.6596 12.0228 20.5368L11.4552 20.0724H9.1848L8.6172 20.5368Z" fill="url(#paint0_linear_262_535)"/>
<path d="M14.3448 13.2097L14.8092 10.3201H12.0744V8.3077C12.0744 7.4821 12.384 6.8629 13.6224 6.8629H14.964V4.2313C14.2416 4.1281 13.416 4.0249 12.6936 4.0249C10.32 4.0249 8.66881 5.4697 8.66881 8.0497V10.3201H6.08881V13.2097H8.66881V20.4853C9.23641 20.5885 9.80401 20.6401 10.3716 20.6401C10.9392 20.6401 11.5068 20.5885 12.0744 20.4853V13.2097H14.3448Z" fill="white"/>
</g>
<defs>
<linearGradient id="paint0_linear_262_535" x1="10.3205" y1="19.9222" x2="10.3205" y2="-0.00380177" gradientUnits="userSpaceOnUse">
<stop stop-color="#0062E0"/>
<stop offset="1" stop-color="#19AFFF"/>
</linearGradient>
<clipPath id="clip0_262_535">
<rect width="20.64" height="20.64" fill="white"/>
</clipPath>
</defs>
</svg>
