<svg width="21" height="21" viewBox="0 0 21 21" fill="none" xmlns="http://www.w3.org/2000/svg">
<path d="M19.3509 10.5204C19.3509 9.77798 19.2894 9.23618 19.1564 8.67432H10.5052V12.0254H15.5832C15.4809 12.8582 14.928 14.1124 13.6994 14.9551L13.6822 15.0673L16.4176 17.144L16.6071 17.1625C18.3475 15.5873 19.3509 13.2696 19.3509 10.5204Z" fill="#4285F4"/>
<path d="M10.5046 19.3501C12.9924 19.3501 15.081 18.5474 16.6065 17.1628L13.6989 14.9554C12.9208 15.4872 11.8765 15.8584 10.5046 15.8584C8.06797 15.8584 5.9999 14.2832 5.26269 12.106L5.15463 12.1149L2.31039 14.2721L2.27319 14.3735C3.78841 17.3233 6.90079 19.3501 10.5046 19.3501Z" fill="#34A853"/>
<path d="M5.26323 12.106C5.06871 11.5442 4.95614 10.9421 4.95614 10.3201C4.95614 9.69798 5.06871 9.096 5.253 8.53414L5.24784 8.41448L2.36795 6.22266L2.27373 6.26658C1.64923 7.49066 1.29089 8.86525 1.29089 10.3201C1.29089 11.7749 1.64923 13.1494 2.27373 14.3735L5.26323 12.106Z" fill="#FBBC05"/>
<path d="M10.5047 4.78162C12.2349 4.78162 13.402 5.51404 14.0675 6.12612L16.668 3.63784C15.0709 2.18301 12.9925 1.29004 10.5047 1.29004C6.90081 1.29004 3.78842 3.31676 2.27319 6.26653L5.25247 8.5341C5.99992 6.35687 8.068 4.78162 10.5047 4.78162Z" fill="#EB4335"/>
</svg>
