<svg width="12" height="14" viewBox="0 0 12 14" fill="none" xmlns="http://www.w3.org/2000/svg">
<path d="M0.857143 12.6875V3.5H11.1429V12.6875C11.1429 13.4258 10.5536 14 9.85714 14H2.14286C1.41964 14 0.857143 13.4258 0.857143 12.6875ZM8.14286 5.6875V11.8125C8.14286 12.0586 8.33036 12.25 8.57143 12.25C8.78571 12.25 9 12.0586 9 11.8125V5.6875C9 5.46875 8.78571 5.25 8.57143 5.25C8.33036 5.25 8.14286 5.46875 8.14286 5.6875ZM5.57143 5.6875V11.8125C5.57143 12.0586 5.75893 12.25 6 12.25C6.21429 12.25 6.42857 12.0586 6.42857 11.8125V5.6875C6.42857 5.46875 6.21429 5.25 6 5.25C5.75893 5.25 5.57143 5.46875 5.57143 5.6875ZM3 5.6875V11.8125C3 12.0586 3.1875 12.25 3.42857 12.25C3.64286 12.25 3.85714 12.0586 3.85714 11.8125V5.6875C3.85714 5.46875 3.64286 5.25 3.42857 5.25C3.1875 5.25 3 5.46875 3 5.6875ZM11.5714 0.875C11.7857 0.875 12 1.09375 12 1.3125V2.1875C12 2.43359 11.7857 2.625 11.5714 2.625H0.428571C0.1875 2.625 0 2.43359 0 2.1875V1.3125C0 1.09375 0.1875 0.875 0.428571 0.875H3.64286L3.88393 0.382812C3.96429 0.164062 4.23214 0 4.44643 0H7.52679C7.74107 0 7.98214 0.164062 8.08929 0.382812L8.35714 0.875H11.5714Z" fill="#6D52DC"/>
</svg>
