<svg width="36" height="36" viewBox="0 0 36 36" fill="none" xmlns="http://www.w3.org/2000/svg">
<g filter="url(#filter0_d_1_666)">
<path d="M30 18C30 24.6274 24.6274 30 18 30C11.3726 30 6 24.6274 6 18C6 11.3726 11.3726 6 18 6C24.6274 6 30 11.3726 30 18Z" fill="#575FFF"/>
</g>
<path fill-rule="evenodd" clip-rule="evenodd" d="M16.3786 15.1914C17.0176 15.1914 17.5381 15.7119 17.5381 16.3509C17.5381 16.9899 17.0176 17.5099 16.3786 17.5099C15.7396 17.5099 15.219 16.9899 15.219 16.3509C15.219 15.7119 15.7396 15.1914 16.3786 15.1914ZM15.1672 19.3469C15.775 19.0617 16.2663 19.2381 16.7417 19.4094C17.1001 19.5387 17.4714 19.672 17.9848 19.672C18.3838 19.672 18.6192 19.3197 18.9592 18.7381C19.2976 18.1602 19.7187 17.4407 20.569 17.4407C21.7505 17.4407 22.4829 18.1858 22.9793 18.7351C22.9921 18.5002 23.0003 18.2571 23.0003 18.0002C23.0003 14.3082 21.6916 13 18.0002 13C14.3088 13 13 14.3082 13 18.0002C13 19.3771 13.1826 20.4223 13.6031 21.1921C13.8677 20.6705 14.4431 19.6869 15.1672 19.3469Z" fill="white"/>
<path fill-rule="evenodd" clip-rule="evenodd" d="M22.7344 19.606C22.659 19.5286 22.579 19.4399 22.4934 19.344C22.04 18.8388 21.4754 18.2096 20.5687 18.2096C20.1871 18.2096 19.9569 18.5563 19.6235 19.1265C19.2805 19.7127 18.8543 20.4415 17.9845 20.4415C17.3368 20.4415 16.8624 20.2707 16.4809 20.1327C16.0316 19.9707 15.7998 19.8989 15.4947 20.043C14.9142 20.3158 14.3316 21.4164 14.1562 21.8174C14.1459 21.842 14.13 21.862 14.1152 21.8836C14.9034 22.6728 16.1537 23 18.0004 23C21.0564 23 22.4759 22.0984 22.8754 19.6953C22.8236 19.6758 22.7754 19.6481 22.7344 19.606Z" fill="white"/>
<defs>
<filter id="filter0_d_1_666" x="0" y="0" width="36" height="36" filterUnits="userSpaceOnUse" color-interpolation-filters="sRGB">
<feFlood flood-opacity="0" result="BackgroundImageFix"/>
<feColorMatrix in="SourceAlpha" type="matrix" values="0 0 0 0 0 0 0 0 0 0 0 0 0 0 0 0 0 0 127 0" result="hardAlpha"/>
<feOffset/>
<feGaussianBlur stdDeviation="3"/>
<feComposite in2="hardAlpha" operator="out"/>
<feColorMatrix type="matrix" values="0 0 0 0 0.0941176 0 0 0 0 0.466667 0 0 0 0 0.94902 0 0 0 0.48 0"/>
<feBlend mode="normal" in2="BackgroundImageFix" result="effect1_dropShadow_1_666"/>
<feBlend mode="normal" in="SourceGraphic" in2="effect1_dropShadow_1_666" result="shape"/>
</filter>
</defs>
</svg>
