<svg width="36" height="36" viewBox="0 0 36 36" fill="none" xmlns="http://www.w3.org/2000/svg">
<g filter="url(#filter0_d_1_731)">
<path d="M18 30C24.6274 30 30 24.6274 30 18C30 11.3726 24.6274 6 18 6C11.3726 6 6 11.3726 6 18C6 24.6274 11.3726 30 18 30Z" fill="url(#paint0_linear_1_731)"/>
<mask id="mask0_1_731" style="mask-type:luminance" maskUnits="userSpaceOnUse" x="6" y="6" width="24" height="24">
<path d="M18 30C24.6274 30 30 24.6274 30 18C30 11.3726 24.6274 6 18 6C11.3726 6 6 11.3726 6 18C6 24.6274 11.3726 30 18 30Z" fill="white"/>
</mask>
<g mask="url(#mask0_1_731)">
<path style="mix-blend-mode:screen" opacity="0.9" d="M8.36576 23.1406C7.15963 20.823 6.81382 18.1529 7.38964 15.6044C7.96546 13.0559 9.42563 10.7938 11.5111 9.21987C13.5965 7.6459 16.1722 6.8618 18.7809 7.00678C21.3896 7.15176 23.8626 8.21644 25.7608 10.0118C21.8345 10.0364 18.021 11.3272 14.887 13.6926C11.753 16.0579 9.46587 19.3715 8.36576 23.1406Z" fill="url(#paint1_linear_1_731)"/>
<path style="mix-blend-mode:screen" d="M28.3042 12.9137C26.7464 10.3807 24.2729 8.54502 21.3973 7.7877C18.5217 7.03039 15.4649 7.40963 12.8615 8.84672C10.2582 10.2838 8.30825 12.6683 7.41669 15.5052C6.52512 18.342 6.76039 21.4133 8.0736 24.0813C7.25389 22.7484 6.71311 21.2631 6.48402 19.7152C6.25493 18.1674 6.34227 16.5891 6.74077 15.076C7.13927 13.5628 7.84077 12.1463 8.80256 10.9121C9.76434 9.67781 10.9664 8.65154 12.3363 7.89534C13.7062 7.13915 15.2154 6.66874 16.7723 6.51261C18.3292 6.35649 19.9016 6.5179 21.3943 6.98704C22.8871 7.45618 24.2691 8.22331 25.4568 9.24201C26.6445 10.2607 27.6132 11.5098 28.3042 12.9137Z" fill="url(#paint2_linear_1_731)"/>
</g>
<path d="M13.0232 17.0607C12.2661 17.0838 11.544 17.3848 10.9948 17.9063C10.4455 18.4278 10.1076 19.1333 10.0454 19.8881C10.5089 20.115 11.0198 20.2281 11.5357 20.2183C12.0516 20.2084 12.5578 20.0758 13.0123 19.8313C13.0975 19.7758 13.5387 19.5186 13.8243 19.8746C14.4429 20.6474 13.3886 21.0927 12.9379 21.2768C12.6429 21.4 12.8931 21.5691 12.9148 21.5746C13.7095 21.5997 14.5009 21.6903 15.2807 21.8453C15.4981 21.9291 15.6885 22.0705 15.8316 22.2543C15.9747 22.4382 16.0649 22.6575 16.0928 22.8888C16.0717 23.4129 15.8811 23.9161 15.5497 24.3227C15.2183 24.7292 14.7638 25.0173 14.2547 25.1437C13.3693 25.267 12.4675 25.1139 11.6723 24.7052C12.4767 25.5708 13.3261 26.3935 14.2169 27.1699C14.9383 27.7884 14.9965 27.8385 15.5704 28.2987C16.4613 27.8442 17.3772 27.4407 18.3139 27.09C18.0913 26.8181 17.9491 26.4894 17.9035 26.1409C17.8578 25.7925 17.9103 25.4382 18.0553 25.118C18.1248 25.0431 18.2084 24.9827 18.3013 24.9402C18.3942 24.8977 18.4946 24.8739 18.5967 24.8703C19.2846 24.8515 19.9614 24.6916 20.585 24.4006C19.2044 24.5766 18.8363 23.9161 19.1097 23.5886C19.3493 23.2949 20.0368 23.3098 20.3671 23.3598C20.9937 23.465 21.6346 23.4489 22.2552 23.3124C23.1688 20.3902 20.1383 18.0785 17.2649 19.5078C16.8609 19.8681 16.3537 20.0921 15.8152 20.148C15.2768 20.204 14.7344 20.089 14.265 19.8195C13.7955 19.5499 13.4228 19.1395 13.1996 18.6463C12.9765 18.153 12.9142 17.6021 13.0217 17.0716" fill="url(#paint3_linear_1_731)"/>
<path d="M9.025 18.3749C7.05839 19.9666 9.58127 24.7877 13.3399 25.1762C15.6408 25.4144 16.5788 23.2123 15.8412 22.2635C15.7209 22.1061 15.5655 21.9791 15.3873 21.8926C15.2091 21.8061 15.0132 21.7625 14.8151 21.7653C14.1789 21.7612 13.5444 21.6969 12.9202 21.5732C12.8956 21.567 12.8729 21.5548 12.854 21.5378C12.8351 21.5207 12.8207 21.4993 12.812 21.4754C12.8033 21.4515 12.8007 21.4258 12.8043 21.4006C12.8078 21.3754 12.8174 21.3515 12.8323 21.3309C13.1328 21.0223 13.662 21.0954 13.9043 20.688C13.9775 20.5406 14.0021 20.3737 13.9743 20.2114C13.9466 20.0492 13.868 19.8999 13.75 19.7852C13.4617 19.5416 13.015 19.8312 12.9961 19.8434C12.6521 20.0692 12.2599 20.211 11.8511 20.2573C11.4423 20.3036 11.0283 20.2533 10.6425 20.1102C10.2567 19.9672 9.90999 19.7355 9.6302 19.4338C9.35041 19.1322 9.14543 18.769 9.03178 18.3735" fill="url(#paint4_linear_1_731)"/>
<path d="M27.1157 18.1909C26.4389 20.6867 23.9039 23.9377 20.3699 23.353C19.8434 23.2664 18.9109 23.3408 19.0354 23.9161C19.1207 24.3072 19.8476 24.5319 20.5974 24.3965C19.9715 24.6912 19.2912 24.853 18.5996 24.8716C18.4647 24.8753 18.3333 24.9148 18.2189 24.9862C18.1045 25.0576 18.0112 25.1582 17.9486 25.2777C17.8457 25.4834 17.686 27.1482 19.0219 27.5299C20.8301 28.0442 23.6237 26.0992 25.0286 24.5522C27.9237 21.3688 27.5637 18.8568 27.3201 18.4061C27.2782 18.3139 27.2061 18.2389 27.1157 18.1935" fill="url(#paint5_linear_1_731)"/>
<path d="M21.0129 15.3106H15.1589C15.5204 15.7335 15.9693 16.073 16.4746 16.3058C16.9799 16.5386 17.5295 16.6591 18.0858 16.6591C18.6421 16.6591 19.1919 16.5386 19.6972 16.3058C20.2025 16.073 20.6514 15.7335 21.0129 15.3106Z" fill="url(#paint6_linear_1_731)"/>
<path d="M14.0235 11.3179C12.6213 11.4058 11.981 13.5281 12.8445 14.2197C13.708 14.9113 15.1077 13.7 14.9615 12.3506C14.9657 12.0915 14.871 11.8404 14.6968 11.6486C14.5225 11.4568 14.2819 11.3385 14.0235 11.3179Z" fill="#27304E"/>
<path d="M21.7989 11.3179C20.5808 11.395 20.543 13.1938 21.4782 14.0424C21.6325 14.2306 21.8455 14.3613 22.0831 14.4135C22.3207 14.4657 22.569 14.4363 22.7879 14.3302C23.0068 14.224 23.1837 14.0472 23.2899 13.8283C23.396 13.6093 23.4252 13.361 23.373 13.1234C23.3586 12.687 23.194 12.269 22.9069 11.94C22.6198 11.611 22.2293 11.3912 21.7989 11.3179Z" fill="#27304E"/>
<path d="M15.5919 9.35126C13.341 9.41216 12.1635 10.4611 12.5411 10.8185C12.5704 10.8412 12.6046 10.8571 12.6409 10.8648C12.6772 10.8725 12.7148 10.872 12.7509 10.8631C12.8289 10.8451 12.9019 10.8099 12.9647 10.7603C13.3296 10.517 13.7348 10.3401 14.1612 10.2378C14.673 10.1117 15.2013 10.066 15.7272 10.1024C15.7813 10.1077 15.8359 10.1031 15.8883 10.0889C15.9886 10.0633 16.0777 10.0051 16.1416 9.92362C16.2055 9.84211 16.2406 9.74177 16.2415 9.6382C16.2266 9.3445 15.9871 9.34721 15.5919 9.35262" fill="#D97700"/>
<path d="M20.2494 9.35126C19.1368 9.35126 19.7309 9.96844 19.7377 9.97521C19.7949 10.0287 19.8641 10.0676 19.9394 10.0889C19.9918 10.1033 20.0465 10.1079 20.1005 10.1024C20.5558 10.0743 21.0129 10.1039 21.4608 10.1904C21.9633 10.2845 22.4418 10.4783 22.8683 10.7602C22.9357 10.8137 23.0152 10.85 23.0998 10.8658C23.1329 10.8745 23.1676 10.875 23.2009 10.8671C23.2342 10.8593 23.2651 10.8433 23.2908 10.8207C23.3164 10.7981 23.3361 10.7695 23.3481 10.7375C23.3601 10.7055 23.3641 10.671 23.3597 10.637C23.3312 10.0185 21.7613 9.37021 20.2467 9.35126" fill="#D97700"/>
</g>
<defs>
<filter id="filter0_d_1_731" x="0" y="0" width="36" height="36" filterUnits="userSpaceOnUse" color-interpolation-filters="sRGB">
<feFlood flood-opacity="0" result="BackgroundImageFix"/>
<feColorMatrix in="SourceAlpha" type="matrix" values="0 0 0 0 0 0 0 0 0 0 0 0 0 0 0 0 0 0 127 0" result="hardAlpha"/>
<feOffset/>
<feGaussianBlur stdDeviation="3"/>
<feComposite in2="hardAlpha" operator="out"/>
<feColorMatrix type="matrix" values="0 0 0 0 0.980392 0 0 0 0 0.741176 0 0 0 0 0.305882 0 0 0 0.5 0"/>
<feBlend mode="normal" in2="BackgroundImageFix" result="effect1_dropShadow_1_731"/>
<feBlend mode="normal" in="SourceGraphic" in2="effect1_dropShadow_1_731" result="shape"/>
</filter>
<linearGradient id="paint0_linear_1_731" x1="11.832" y1="7.056" x2="24.24" y2="29.088" gradientUnits="userSpaceOnUse">
<stop stop-color="#FFFDF1"/>
<stop offset="0.201" stop-color="#FFEB72"/>
<stop offset="0.753" stop-color="#F69B32"/>
<stop offset="1" stop-color="#ED6C12"/>
</linearGradient>
<linearGradient id="paint1_linear_1_731" x1="11.3871" y1="9.29932" x2="15.394" y2="16.1494" gradientUnits="userSpaceOnUse">
<stop stop-color="white"/>
<stop offset="1" stop-color="#231F20"/>
</linearGradient>
<linearGradient id="paint2_linear_1_731" x1="24.3761" y1="7.4596" x2="9.84544" y2="23.5499" gradientUnits="userSpaceOnUse">
<stop stop-color="#231F20"/>
<stop offset="0.536" stop-color="white"/>
<stop offset="1" stop-color="#231F20"/>
</linearGradient>
<linearGradient id="paint3_linear_1_731" x1="15.5525" y1="16.3303" x2="17.0062" y2="28.2346" gradientUnits="userSpaceOnUse">
<stop stop-color="#F15B5A"/>
<stop offset="1" stop-color="#DB2A37"/>
</linearGradient>
<linearGradient id="paint4_linear_1_731" x1="8.37084" y1="18.7487" x2="13.9129" y2="24.6807" gradientUnits="userSpaceOnUse">
<stop stop-color="#FFEB72"/>
<stop offset="0.996" stop-color="#F69B32"/>
</linearGradient>
<linearGradient id="paint5_linear_1_731" x1="17.8826" y1="22.9025" x2="27.4798" y2="22.9025" gradientUnits="userSpaceOnUse">
<stop stop-color="#FFEB72"/>
<stop offset="0.996" stop-color="#F69B32"/>
</linearGradient>
<linearGradient id="paint6_linear_1_731" x1="18.0859" y1="15.2108" x2="18.085" y2="16.4905" gradientUnits="userSpaceOnUse">
<stop stop-color="#4B2313"/>
<stop offset="0.382" stop-color="#6B311A"/>
<stop offset="0.771" stop-color="#863E21"/>
<stop offset="1" stop-color="#914324"/>
</linearGradient>
</defs>
</svg>
