<svg width="21" height="20" viewBox="0 0 21 20" fill="none" xmlns="http://www.w3.org/2000/svg">
<path fill-rule="evenodd" clip-rule="evenodd" d="M15.575 10.2572C14.625 10.2572 13.7333 10.4488 12.9833 10.7738C15.6083 11.5322 17.4667 13.3488 17.5167 15.4738C18.8833 15.2988 20.3583 14.7822 20.3583 13.3738C20.3583 11.6822 18.1667 10.2572 15.575 10.2572Z" fill="#575FFF"/>
<path fill-rule="evenodd" clip-rule="evenodd" d="M15.55 9.05717H15.5667C17.3417 9.05717 18.7917 7.60717 18.7917 5.8405C18.7917 4.0655 17.3417 2.6155 15.5667 2.6155C15.2167 2.6155 14.8833 2.67383 14.5667 2.77383C15.1417 3.62383 15.475 4.64883 15.475 5.75717C15.4833 6.88217 15.1333 7.9655 14.475 8.8655C14.8167 8.9905 15.175 9.05717 15.55 9.05717Z" fill="#575FFF"/>
<path fill-rule="evenodd" clip-rule="evenodd" d="M7.36667 10.7655C6.61667 10.4488 5.725 10.2572 4.78333 10.2572C2.19167 10.2572 0 11.6822 0 13.3738C0 14.7822 1.46667 15.2905 2.83333 15.4738C2.875 13.3488 4.73333 11.5322 7.36667 10.7655Z" fill="#575FFF"/>
<path fill-rule="evenodd" clip-rule="evenodd" d="M4.78334 9.05717H4.80834C5.18334 9.05717 5.54167 8.9905 5.88334 8.8655C5.25 7.99883 4.875 6.92383 4.875 5.75717C4.875 4.64883 5.20834 3.62383 5.78334 2.77383C5.46667 2.67383 5.13334 2.6155 4.78334 2.6155C3.00834 2.6155 1.56667 4.0655 1.56667 5.8405C1.56667 7.60717 3.00834 9.05717 4.78334 9.05717Z" fill="#575FFF"/>
<path fill-rule="evenodd" clip-rule="evenodd" d="M10.1747 11.6213C6.87384 11.6213 4.08468 13.418 4.08468 15.5447C4.08468 18.2947 8.66801 18.2947 10.1747 18.2947C12.7897 18.2947 16.2663 18.0113 16.2663 15.5622C16.2663 13.4255 13.4763 11.6213 10.1747 11.6213Z" fill="#575FFF"/>
<path fill-rule="evenodd" clip-rule="evenodd" d="M10.1755 9.81223H10.203C11.2822 9.8089 12.2955 9.38473 13.0555 8.6189C13.8163 7.85307 14.233 6.83723 14.2288 5.75973C14.2288 3.5239 12.4113 1.70557 10.1755 1.70557C7.9405 1.70557 6.123 3.5239 6.123 5.75973C6.123 7.9939 7.9405 9.81223 10.1755 9.81223Z" fill="#575FFF"/>
</svg>
