<svg width="11" height="11" viewBox="0 0 11 11" fill="none" xmlns="http://www.w3.org/2000/svg">
<path d="M5.25 0C3.86284 0.0168312 2.53724 0.575358 1.5563 1.5563C0.575358 2.53724 0.0168312 3.86284 0 5.25C0.0168312 6.63716 0.575358 7.96276 1.5563 8.9437C2.53724 9.92464 3.86284 10.4832 5.25 10.5C6.63716 10.4832 7.96276 9.92464 8.9437 8.9437C9.92464 7.96276 10.4832 6.63716 10.5 5.25C10.4832 3.86284 9.92464 2.53724 8.9437 1.5563C7.96276 0.575358 6.63716 0.0168312 5.25 0ZM8.25 5.625H5.625V8.25H4.875V5.625H2.25V4.875H4.875V2.25H5.625V4.875H8.25V5.625Z" fill="white"/>
</svg>
