<svg width="20" height="20" viewBox="0 0 20 20" fill="none" xmlns="http://www.w3.org/2000/svg">
<path d="M6.66669 4.58317H13.3334C13.9964 4.58317 14.6323 4.31978 15.1011 3.85094C15.57 3.3821 15.8334 2.74621 15.8334 2.08317C15.8334 1.97266 15.7895 1.86668 15.7113 1.78854C15.6332 1.7104 15.5272 1.6665 15.4167 1.6665H4.58335C4.47285 1.6665 4.36687 1.7104 4.28873 1.78854C4.21059 1.86668 4.16669 1.97266 4.16669 2.08317C4.16669 2.74621 4.43008 3.3821 4.89892 3.85094C5.36776 4.31978 6.00365 4.58317 6.66669 4.58317ZM4.16669 9.58317C4.16669 8.0115 4.16669 7.2265 4.65502 6.73817C5.14335 6.24984 5.92835 6.24984 7.50002 6.24984H12.5C14.0717 6.24984 14.8567 6.24984 15.345 6.73817C15.8334 7.2265 15.8334 8.0115 15.8334 9.58317V10.4165C15.8334 11.9882 15.8334 12.7732 15.345 13.2615C14.8567 13.7498 14.0717 13.7498 12.5 13.7498H7.50002C5.92835 13.7498 5.14335 13.7498 4.65502 13.2615C4.16669 12.7732 4.16669 11.9882 4.16669 10.4165V9.58317ZM13.3334 15.4165H6.66669C6.00365 15.4165 5.36776 15.6799 4.89892 16.1487C4.43008 16.6176 4.16669 17.2535 4.16669 17.9165C4.16669 18.027 4.21059 18.133 4.28873 18.2111C4.36687 18.2893 4.47285 18.3332 4.58335 18.3332H15.4167C15.5272 18.3332 15.6332 18.2893 15.7113 18.2111C15.7895 18.133 15.8334 18.027 15.8334 17.9165C15.8334 17.2535 15.57 16.6176 15.1011 16.1487C14.6323 15.6799 13.9964 15.4165 13.3334 15.4165Z" fill="#575FFF"/>
</svg>
