<svg width="20" height="20" viewBox="0 0 20 20" fill="none" xmlns="http://www.w3.org/2000/svg">
<path d="M9.99999 1.66699C11.1051 1.66699 12.1649 2.10598 12.9463 2.88738C13.7277 3.66878 14.1667 4.72859 14.1667 5.83366V8.33366C14.8297 8.33366 15.4656 8.59705 15.9344 9.06589C16.4033 9.53473 16.6667 10.1706 16.6667 10.8337V15.8337C16.6667 16.4967 16.4033 17.1326 15.9344 17.6014C15.4656 18.0703 14.8297 18.3337 14.1667 18.3337H5.83333C5.17029 18.3337 4.5344 18.0703 4.06556 17.6014C3.59672 17.1326 3.33333 16.4967 3.33333 15.8337V10.8337C3.33333 10.1706 3.59672 9.53473 4.06556 9.06589C4.5344 8.59705 5.17029 8.33366 5.83333 8.33366V5.83366C5.83333 4.72859 6.27231 3.66878 7.05372 2.88738C7.83512 2.10598 8.89493 1.66699 9.99999 1.66699ZM9.99999 11.667C9.57951 11.6669 9.17452 11.8257 8.8662 12.1116C8.55789 12.3975 8.36903 12.7894 8.33749 13.2087L8.33333 13.3337C8.33333 13.6633 8.43108 13.9855 8.61421 14.2596C8.79735 14.5337 9.05765 14.7473 9.36219 14.8735C9.66673 14.9996 10.0018 15.0326 10.3251 14.9683C10.6484 14.904 10.9454 14.7453 11.1785 14.5122C11.4116 14.2791 11.5703 13.9821 11.6346 13.6588C11.6989 13.3355 11.6659 13.0004 11.5398 12.6959C11.4136 12.3913 11.2 12.131 10.9259 11.9479C10.6519 11.7647 10.3296 11.667 9.99999 11.667ZM9.99999 3.33366C9.33695 3.33366 8.70107 3.59705 8.23223 4.06589C7.76339 4.53473 7.49999 5.17062 7.49999 5.83366V8.33366H12.5V5.83366C12.5 5.17062 12.2366 4.53473 11.7678 4.06589C11.2989 3.59705 10.663 3.33366 9.99999 3.33366Z" fill="#575FFF"/>
</svg>
