<svg width="20" height="20" viewBox="0 0 20 20" fill="none" xmlns="http://www.w3.org/2000/svg">
<path d="M8.42917 18.1758C8.93417 18.5924 9.46083 18.9733 10 19.3449C10.5403 18.9782 11.0644 18.5881 11.5708 18.1758C12.415 17.4826 13.2095 16.731 13.9483 15.9266C15.6517 14.0641 17.5 11.3641 17.5 8.33325C17.5 7.34834 17.306 6.37307 16.9291 5.46313C16.5522 4.55318 15.9997 3.72639 15.3033 3.02995C14.6069 2.33351 13.7801 1.78107 12.8701 1.40416C11.9602 1.02725 10.9849 0.833252 10 0.833252C9.01509 0.833252 8.03982 1.02725 7.12987 1.40416C6.21993 1.78107 5.39314 2.33351 4.6967 3.02995C4.00026 3.72639 3.44781 4.55318 3.0709 5.46313C2.69399 6.37307 2.5 7.34834 2.5 8.33325C2.5 11.3641 4.34833 14.0633 6.05167 15.9266C6.79052 16.7313 7.58497 17.4823 8.42917 18.1758ZM10 11.0416C9.28171 11.0416 8.59283 10.7562 8.08492 10.2483C7.57701 9.74042 7.29167 9.05155 7.29167 8.33325C7.29167 7.61496 7.57701 6.92608 8.08492 6.41817C8.59283 5.91026 9.28171 5.62492 10 5.62492C10.7183 5.62492 11.4072 5.91026 11.9151 6.41817C12.423 6.92608 12.7083 7.61496 12.7083 8.33325C12.7083 9.05155 12.423 9.74042 11.9151 10.2483C11.4072 10.7562 10.7183 11.0416 10 11.0416Z" fill="#575FFF"/>
</svg>
