<svg width="20" height="20" viewBox="0 0 20 20" fill="none" xmlns="http://www.w3.org/2000/svg">
<path d="M10 1.66675C5.405 1.66675 1.66666 5.40508 1.66666 10.0001C1.66666 14.5951 5.405 18.3334 10 18.3334C14.595 18.3334 18.3333 14.5951 18.3333 10.0001C18.3333 5.40508 14.595 1.66675 10 1.66675ZM3.33333 10.0001C3.33333 9.25091 3.46333 8.53175 3.6925 7.85925L5 9.16675L6.66666 10.8334V12.5001L8.33333 14.1667L9.16666 15.0001V16.6092C5.88416 16.1967 3.33333 13.3934 3.33333 10.0001ZM15.275 14.0609C14.7308 13.6226 13.9058 13.3334 13.3333 13.3334V12.5001C13.3333 12.0581 13.1577 11.6341 12.8452 11.3216C12.5326 11.009 12.1087 10.8334 11.6667 10.8334H8.33333V8.33341C8.77536 8.33341 9.19928 8.15782 9.51184 7.84526C9.8244 7.5327 10 7.10878 10 6.66675V5.83341H10.8333C11.2754 5.83341 11.6993 5.65782 12.0118 5.34526C12.3244 5.0327 12.5 4.60878 12.5 4.16675V3.82425C14.94 4.81508 16.6667 7.20841 16.6667 10.0001C16.6663 11.4706 16.1767 12.8993 15.275 14.0609Z" fill="#575FFF"/>
</svg>
