<svg width="110" height="110" viewBox="0 0 110 110" fill="none" xmlns="http://www.w3.org/2000/svg">
<path d="M32.1154 55.0001C32.1154 54.0884 32.4776 53.214 33.1222 52.5694C33.7669 51.9247 34.6412 51.5626 35.5529 51.5626H51.5625V35.553C51.5625 34.6413 51.9247 33.767 52.5693 33.1223C53.214 32.4776 54.0883 32.1155 55 32.1155C55.9117 32.1155 56.786 32.4776 57.4307 33.1223C58.0753 33.767 58.4375 34.6413 58.4375 35.553V51.5626H74.4471C75.3588 51.5626 76.2331 51.9247 76.8778 52.5694C77.5224 53.214 77.8846 54.0884 77.8846 55.0001C77.8846 55.9117 77.5224 56.7861 76.8778 57.4307C76.2331 58.0754 75.3588 58.4376 74.4471 58.4376H58.4375V74.4472C58.4375 75.3588 58.0753 76.2332 57.4307 76.8778C56.786 77.5225 55.9117 77.8847 55 77.8847C54.0883 77.8847 53.214 77.5225 52.5693 76.8778C51.9247 76.2332 51.5625 75.3588 51.5625 74.4472V58.4376H35.5529C34.6412 58.4376 33.7669 58.0754 33.1222 57.4307C32.4776 56.7861 32.1154 55.9117 32.1154 55.0001Z" fill="#CDD6DE"/>
<path fill-rule="evenodd" clip-rule="evenodd" d="M33.5363 17.2745C47.8017 15.693 62.1983 15.693 76.4638 17.2745C84.8375 18.2095 91.5979 24.8049 92.5788 33.2245C94.2746 47.6941 94.2746 62.3104 92.5788 76.7799C91.5933 85.1995 84.8329 91.7903 76.4638 92.7299C62.1983 94.3114 47.8017 94.3114 33.5363 92.7299C25.1625 91.7903 18.4021 85.1995 17.4213 76.7799C15.733 62.3105 15.733 47.6939 17.4213 33.2245C18.4021 24.8049 25.1671 18.2095 33.5363 17.2745ZM75.7029 24.1037C61.9431 22.5785 48.0569 22.5785 34.2971 24.1037C31.7499 24.3863 29.3723 25.5194 27.5485 27.3199C25.7247 29.1204 24.5611 31.4832 24.2458 34.0266C22.6157 47.9644 22.6157 62.0447 24.2458 75.9824C24.5621 78.525 25.7261 80.8867 27.5498 82.6863C29.3735 84.486 31.7505 85.6184 34.2971 85.9008C47.9417 87.4224 62.0583 87.4224 75.7029 85.9008C78.2486 85.6174 80.6246 84.4846 82.4474 82.685C84.2702 80.8855 85.4335 78.5243 85.7496 75.9824C87.3797 62.0447 87.3797 47.9644 85.7496 34.0266C85.4326 31.4856 84.2689 29.1254 82.4461 27.3268C80.6234 25.5282 78.248 24.396 75.7029 24.1129" fill="#CDD6DE"/>
</svg>
