<svg width="10" height="10" viewBox="0 0 10 10" fill="none" xmlns="http://www.w3.org/2000/svg">
<path d="M7.91667 2.5H2.08333C1.6231 2.5 1.25 2.8731 1.25 3.33333V7.91667C1.25 8.3769 1.6231 8.75 2.08333 8.75H7.91667C8.3769 8.75 8.75 8.3769 8.75 7.91667V3.33333C8.75 2.8731 8.3769 2.5 7.91667 2.5Z" stroke="#99A1BE" stroke-width="0.833333"/>
<path d="M1.25 4.16667C1.25 3.38083 1.25 2.98833 1.49417 2.74417C1.73833 2.5 2.13083 2.5 2.91667 2.5H7.08333C7.86917 2.5 8.26167 2.5 8.50583 2.74417C8.75 2.98833 8.75 3.38083 8.75 4.16667H1.25Z" fill="#99A1BE"/>
<path d="M2.91663 1.25V2.5M7.08329 1.25V2.5" stroke="#99A1BE" stroke-width="0.833333" stroke-linecap="round"/>
</svg>
