<svg width="17" height="12" viewBox="0 0 17 12" fill="none" xmlns="http://www.w3.org/2000/svg">
<path fill-rule="evenodd" clip-rule="evenodd" d="M16.4406 1.90707C15.8151 1.22828 13.8903 2.44848 12.7996 3.22424C12.9841 4.02424 13.0723 4.95353 13.0723 6.00403C13.0723 7.04646 12.9841 7.95959 12.8076 8.75959C13.6818 9.38181 15.1093 10.2949 15.9434 10.2949C16.1519 10.2949 16.3283 10.2384 16.4406 10.1091C17.1865 9.30909 17.1865 2.71515 16.4406 1.90707Z" fill="#F31954"/>
<path fill-rule="evenodd" clip-rule="evenodd" d="M5.94268 0C1.55584 0 0 1.57576 0 6.00404C0 10.4323 1.55584 12 5.94268 12C10.3215 12 11.8693 10.4323 11.8693 6.00404C11.8693 1.57576 10.3215 0 5.94268 0Z" fill="#F31954"/>
</svg>
