<svg width="13" height="12" viewBox="0 0 13 12" fill="none" xmlns="http://www.w3.org/2000/svg">
<path fill-rule="evenodd" clip-rule="evenodd" d="M9.8661 4.76193C9.58294 4.76193 9.3504 4.53983 9.3504 4.26617C9.3504 3.99251 9.57679 3.77041 9.85995 3.77041H9.8661C10.1493 3.77041 10.3791 3.99251 10.3791 4.26617C10.3791 4.53983 10.1493 4.76193 9.8661 4.76193ZM6.50034 9.15369C5.0312 9.15369 3.83632 7.99824 3.83632 6.57839C3.83632 5.15919 5.0312 4.00441 6.50034 4.00441C7.96948 4.00441 9.16436 5.15919 9.16436 6.57839C9.16436 7.99824 7.96948 9.15369 6.50034 9.15369ZM10.3435 2.03592C10.2279 2.00088 10.0597 1.92751 9.91808 1.77746C9.85926 1.71533 9.77992 1.55999 9.70332 1.4106C9.49676 1.00672 9.21429 0.454116 8.64592 0.222762C7.91545 -0.0733711 5.11122 -0.0746932 4.35682 0.22144C3.79597 0.444201 3.51008 0.99945 3.30147 1.40465C3.22281 1.55668 3.14211 1.714 3.08192 1.77746C2.94102 1.92817 2.77277 2.00088 2.66812 2.03327C0.413111 2.63611 0 4.05266 0 6.624C0 10.3415 0.938391 12 6.50034 12C12.0616 12 13 10.3415 13 6.624C13 4.05266 12.5876 2.63611 10.3435 2.03592Z" fill="#63C48C"/>
<path fill-rule="evenodd" clip-rule="evenodd" d="M6.50043 4.99559C5.59692 4.99559 4.86235 5.70552 4.86235 6.57871C4.86235 7.45191 5.59692 8.16183 6.50043 8.16183C7.40394 8.16183 8.13851 7.45191 8.13851 6.57871C8.13851 5.70552 7.40394 4.99559 6.50043 4.99559Z" fill="#63C48C"/>
</svg>
