<svg width="19" height="19" viewBox="0 0 19 19" fill="none" xmlns="http://www.w3.org/2000/svg">
<path d="M4.51562 0.760742C7.62154 0.413633 10.8316 0.413611 13.9375 0.760742C15.8773 0.977649 17.4452 2.50549 17.6738 4.45996C18.0453 7.636 18.0453 10.8445 17.6738 14.0205C17.4452 15.975 15.8773 17.5028 13.9375 17.7197C10.8316 18.0669 7.62153 18.0668 4.51562 17.7197C2.57569 17.5029 1.00692 15.9751 0.77832 14.0205C0.406869 10.8445 0.406896 7.63597 0.77832 4.45996C1.00692 2.50542 2.57569 0.977558 4.51562 0.760742ZM9.22656 4.74707C9.0886 4.74707 8.97674 4.85915 8.97656 4.99707V8.99023H4.9834C4.84547 8.9904 4.7334 9.10226 4.7334 9.24023C4.7335 9.37812 4.84553 9.49007 4.9834 9.49023H8.97656V13.4824C8.97656 13.6205 9.08849 13.7324 9.22656 13.7324C9.36452 13.7323 9.47656 13.6204 9.47656 13.4824V9.49023H13.4688C13.6068 9.49023 13.7187 9.37822 13.7188 9.24023C13.7188 9.10216 13.6068 8.99023 13.4688 8.99023H9.47656V4.99707C9.47638 4.85923 9.36441 4.7472 9.22656 4.74707Z" fill="#384CFF" stroke="white"/>
</svg>
