<svg width="40" height="40" viewBox="0 0 40 40" fill="none" xmlns="http://www.w3.org/2000/svg">
<path d="M20 40C31.0457 40 40 31.0457 40 20C40 8.95431 31.0457 0 20 0C8.95431 0 0 8.95431 0 20C0 31.0457 8.95431 40 20 40Z" fill="#F1F4F5"/>
<path d="M27.3684 22.2632C28.8218 22.2632 30 21.085 30 19.6316C30 18.1782 28.8218 17 27.3684 17C25.915 17 24.7368 18.1782 24.7368 19.6316C24.7368 21.085 25.915 22.2632 27.3684 22.2632Z" fill="#99A1BE"/>
<path d="M20 22.2632C21.4534 22.2632 22.6316 21.085 22.6316 19.6316C22.6316 18.1782 21.4534 17 20 17C18.5466 17 17.3684 18.1782 17.3684 19.6316C17.3684 21.085 18.5466 22.2632 20 22.2632Z" fill="#99A1BE"/>
<path d="M12.6316 22.2632C14.085 22.2632 15.2632 21.085 15.2632 19.6316C15.2632 18.1782 14.085 17 12.6316 17C11.1782 17 10 18.1782 10 19.6316C10 21.085 11.1782 22.2632 12.6316 22.2632Z" fill="#99A1BE"/>
</svg>
