<svg width="11" height="13" viewBox="0 0 11 13" fill="none" xmlns="http://www.w3.org/2000/svg">
<path d="M9.10706 4.09185H5.39861L6.20885 2.06906C6.32662 1.78097 6.35713 1.46462 6.2966 1.15934C6.23606 0.854049 6.08714 0.573283 5.86835 0.351934C5.74464 0.228489 5.59555 0.133439 5.43143 0.0733772C5.26731 0.0133158 5.09209 -0.010318 4.91792 0.00411579C4.74375 0.0185495 4.57481 0.0707051 4.42282 0.156964C4.27083 0.243222 4.13942 0.361518 4.03772 0.503643L1.86771 3.53334C1.54463 3.98471 1.18533 4.40902 0.793385 4.80208L0.100017 5.49095C0.0682302 5.5224 0.0430178 5.55986 0.025847 5.60115C0.00867627 5.64243 -0.000109423 5.68672 1.02862e-06 5.73144V10.9446C-0.000109423 10.9893 0.00867627 11.0336 0.025847 11.0749C0.0430178 11.1162 0.0682302 11.1537 0.100017 11.1851L0.876544 11.965C1.07442 12.164 1.3098 12.3218 1.56904 12.4292C1.82829 12.5367 2.10627 12.5916 2.3869 12.591H6.60891C6.942 12.5904 7.26781 12.4935 7.54699 12.3118C7.82618 12.1301 8.04679 11.8715 8.1822 11.5672L10.2511 6.91252C10.3836 6.61552 10.4518 6.2938 10.4511 5.96855V5.44038C10.4511 5.08273 10.309 4.73973 10.0561 4.48683C9.80322 4.23393 9.46022 4.09185 9.10257 4.09185H9.10706Z" fill="#EFF8FF"/>
</svg>
