<svg width="15" height="14" viewBox="0 0 15 14" fill="none" xmlns="http://www.w3.org/2000/svg">
<path fill-rule="evenodd" clip-rule="evenodd" d="M0 1.6525C0 0.74 0.745833 0 1.66667 0H13.3333C14.2542 0 15 0.74 15 1.6525V9.08833C14.9992 9.30632 14.9555 9.52202 14.8713 9.72309C14.7871 9.92416 14.6641 10.1067 14.5093 10.2601C14.3545 10.4136 14.1709 10.5351 13.9692 10.6176C13.7674 10.7 13.5513 10.7419 13.3333 10.7408H7.83333L5.44417 12.9908C4.64833 13.74 3.33333 13.1808 3.33333 12.0908V10.7408H1.66667C0.745833 10.7408 0 10.0008 0 9.08833V1.6525ZM4.755 4.82667C4.67747 4.74941 4.58547 4.68817 4.48427 4.64646C4.38307 4.60476 4.27465 4.58339 4.16519 4.58358C4.05574 4.58377 3.94739 4.60553 3.84634 4.64759C3.74529 4.68966 3.65351 4.75122 3.57625 4.82875C3.49899 4.90628 3.43776 4.99828 3.39605 5.09948C3.35434 5.20068 3.33297 5.3091 3.33316 5.41856C3.33336 5.52801 3.35511 5.63636 3.39717 5.73741C3.43924 5.83846 3.5008 5.93024 3.57833 6.0075C3.65587 6.08476 3.74786 6.14599 3.84906 6.1877C3.95026 6.22941 4.05868 6.25078 4.16814 6.25059C4.2776 6.25039 4.38594 6.22864 4.48699 6.18657C4.58805 6.14451 4.67982 6.08295 4.75708 6.00542C4.83434 5.92788 4.89558 5.83589 4.93729 5.73469C4.97899 5.63349 5.00036 5.52507 5.00017 5.41561C4.99997 5.30615 4.97822 5.19781 4.93616 5.09676C4.89409 4.9957 4.83253 4.90393 4.755 4.82667ZM6.90917 4.82833C7.02545 4.71152 7.17377 4.63181 7.33536 4.59929C7.49695 4.56678 7.66455 4.58291 7.81697 4.64565C7.96939 4.70839 8.09978 4.81493 8.19165 4.95178C8.28352 5.08863 8.33274 5.24965 8.33309 5.41448C8.33344 5.57931 8.2849 5.74054 8.19361 5.87778C8.10233 6.01502 7.97239 6.12211 7.82024 6.18549C7.66808 6.24888 7.50055 6.26573 7.33883 6.2339C7.1771 6.20206 7.02845 6.12299 6.91167 6.00667C6.75511 5.85073 6.6669 5.63899 6.66643 5.41802C6.66596 5.19705 6.75327 4.98494 6.90917 4.82833ZM11.4217 4.82667C11.2651 4.67063 11.0529 4.58319 10.8319 4.58358C10.6108 4.58397 10.399 4.67216 10.2429 4.82875C10.0869 4.98534 9.99944 5.1975 9.99983 5.41856C10.0002 5.63962 10.0884 5.85146 10.245 6.0075C10.3225 6.08476 10.4145 6.14599 10.5157 6.1877C10.6169 6.22941 10.7253 6.25078 10.8348 6.25059C10.9443 6.25039 11.0526 6.22864 11.1537 6.18657C11.2547 6.14451 11.3465 6.08295 11.4237 6.00542C11.501 5.92788 11.5622 5.83589 11.604 5.73469C11.6457 5.63349 11.667 5.52507 11.6668 5.41561C11.6666 5.30615 11.6449 5.19781 11.6028 5.09676C11.5608 4.9957 11.4992 4.90393 11.4217 4.82667Z" fill="#575FFF"/>
</svg>
