<svg width="12" height="16" viewBox="0 0 12 16" fill="none" xmlns="http://www.w3.org/2000/svg">
<path fill-rule="evenodd" clip-rule="evenodd" d="M11.8066 9.56228C11.1618 8.0791 11.1786 7.52101 11.2083 6.50675C11.2159 6.26711 11.2235 6.00678 11.2235 5.70823C11.2235 3.33816 9.60273 0 6.00036 0C2.39799 0 0.777229 3.33816 0.777229 5.70823C0.777229 6.00598 0.784842 6.26711 0.792454 6.50675C0.822144 7.52101 0.838131 8.0791 0.186477 9.58219C-0.0921507 10.3337 -0.0586545 10.9826 0.287727 11.5112C1.11904 12.7834 3.52468 12.9586 6.00036 12.9586C8.47603 12.9586 10.8817 12.7834 11.713 11.5112C12.0601 10.9826 12.0936 10.3337 11.8066 9.56228Z" fill="#575FFF"/>
<path fill-rule="evenodd" clip-rule="evenodd" d="M8.05375 13.7645C6.8121 13.9086 5.46616 13.9078 3.936 13.7629C3.70685 13.7438 3.47999 13.8704 3.37493 14.0893C3.26912 14.309 3.30261 14.5725 3.45867 14.7557C4.14382 15.5574 5.04518 16 5.99678 16H5.9983C6.95218 16 7.85582 15.5581 8.54249 14.7557C8.70007 14.5717 8.73281 14.3042 8.62471 14.0837C8.51584 13.8648 8.29203 13.7422 8.05375 13.7645Z" fill="#575FFF"/>
</svg>
