<svg width="15" height="15" viewBox="0 0 15 15" fill="none" xmlns="http://www.w3.org/2000/svg">
<path d="M14.1669 14.167L10.7919 10.792M10.7919 10.792C11.3336 10.2503 11.7633 9.60717 12.0565 8.8994C12.3497 8.19163 12.5006 7.43305 12.5006 6.66697C12.5006 5.90088 12.3497 5.1423 12.0565 4.43453C11.7633 3.72676 11.3336 3.08367 10.7919 2.54197C10.2502 2.00026 9.60715 1.57056 8.89938 1.27739C8.19161 0.984227 7.43303 0.833336 6.66694 0.833336C5.90086 0.833336 5.14228 0.984227 4.43451 1.27739C3.72674 1.57056 3.08365 2.00026 2.54194 2.54197C1.44793 3.63598 0.833313 5.11979 0.833313 6.66697C0.833313 8.21414 1.44793 9.69795 2.54194 10.792C3.63596 11.886 5.11977 12.5006 6.66694 12.5006C8.21412 12.5006 9.69793 11.886 10.7919 10.792Z" stroke="#575FFF" stroke-width="1.66667" stroke-linecap="round" stroke-linejoin="round"/>
</svg>
