<svg width="10" height="10" viewBox="0 0 10 10" fill="none" xmlns="http://www.w3.org/2000/svg">
<path d="M5 0C4.0111 0 3.0444 0.293245 2.22215 0.842652C1.39991 1.39206 0.759043 2.17295 0.380605 3.08658C0.00216643 4.00021 -0.0968502 5.00555 0.0960758 5.97545C0.289002 6.94536 0.765206 7.83627 1.46447 8.53553C2.16373 9.2348 3.05465 9.711 4.02455 9.90392C4.99445 10.0969 5.99979 9.99783 6.91342 9.6194C7.82705 9.24096 8.60794 8.6001 9.15735 7.77785C9.70676 6.9556 10 5.98891 10 5C9.99842 3.6744 9.47113 2.40355 8.53379 1.46621C7.59645 0.528871 6.3256 0.00157935 5 0ZM8.95166 6.65009C8.70635 7.23395 8.33515 7.75644 7.86456 8.18026C7.39398 8.60408 6.83562 8.91876 6.22936 9.10185C6.25124 9.06074 6.27246 9.01929 6.29302 8.97752C6.38532 8.77647 6.52366 8.59997 6.69684 8.4623C6.83907 8.34693 7.11956 8.16391 7.0738 7.94311C7.04098 7.77999 6.85498 7.71335 6.71474 7.67356C6.48866 7.61687 6.25736 7.58354 6.02447 7.5741C5.82426 7.57294 5.62454 7.55397 5.42769 7.51741C5.13726 7.4438 5.07161 7.19216 5.05272 6.9266C5.06093 6.68786 5.01679 6.45022 4.92342 6.23036C4.83383 6.10926 4.71634 6.01158 4.58093 5.94561C4.44552 5.87963 4.29619 5.84732 4.14562 5.8514C3.90492 5.82952 3.66421 5.84145 3.4255 5.80068C3.20185 5.74025 2.97251 5.70325 2.7412 5.69027C2.43485 5.70221 2.29759 5.91008 2.1663 6.14979C1.97721 6.5911 1.73757 7.00899 1.45216 7.39507C1.0278 6.76935 0.777858 6.04185 0.728071 5.28745C0.762418 5.27781 0.795734 5.26482 0.827533 5.24866C0.960814 5.18301 1.05431 5.06266 1.19853 5.01591C1.3502 4.98953 1.50553 4.99257 1.65606 5.02487C1.79647 5.04427 1.93866 5.04727 2.07977 5.03382C2.20502 5.01814 2.32089 4.95932 2.40747 4.86747C2.49405 4.77563 2.54594 4.65649 2.55421 4.53053C2.56879 4.36851 2.57244 4.20568 2.56515 4.04317C2.57311 3.78954 2.73921 3.69803 2.96897 3.67714C3.40263 3.63636 4.41317 3.75174 4.43406 3.08037C4.44301 2.79491 4.10285 2.6477 3.88204 2.57211C3.43847 2.483 2.99063 2.4166 2.54028 2.37318C2.30938 2.30886 2.10208 2.17895 1.94351 1.9992C2.43099 1.50219 3.03243 1.13169 3.6956 0.919881C4.35878 0.708068 5.06363 0.661344 5.74896 0.783768C5.6236 0.804583 5.50065 0.837904 5.38194 0.88323C5.2505 0.949797 5.13495 1.0439 5.04316 1.15915C4.95136 1.27439 4.88548 1.40805 4.84999 1.55105C4.8145 1.69404 4.81024 1.843 4.8375 1.98779C4.86476 2.13258 4.9229 2.2698 5.00796 2.39009C5.19238 2.71967 5.44337 3.00724 5.74498 3.23453C6.02698 3.43698 6.32657 3.61374 6.64014 3.76268C7.05192 3.98946 7.00219 4.58027 7.10663 4.97812C7.14223 5.1436 7.21867 5.29754 7.32898 5.42592C7.4393 5.5543 7.57998 5.65304 7.73821 5.71315C7.93714 5.78377 8.17486 5.72906 8.35091 5.86831C8.50209 5.98866 8.5379 6.23334 8.62443 6.39845C8.65147 6.46583 8.6961 6.52472 8.75366 6.56898C8.81122 6.61325 8.87959 6.64125 8.95166 6.65009Z" fill="#99A1BE"/>
</svg>
