<svg width="20" height="20" viewBox="0 0 20 20" fill="none" xmlns="http://www.w3.org/2000/svg">
<path fill-rule="evenodd" clip-rule="evenodd" d="M7.365 5.43608C8.40333 5.43608 9.24917 6.28191 9.24917 7.32024C9.24917 8.35858 8.40333 9.20358 7.365 9.20358C6.32667 9.20358 5.48083 8.35858 5.48083 7.32024C5.48083 6.28191 6.32667 5.43608 7.365 5.43608ZM5.39667 12.1886C6.38417 11.7252 7.1825 12.0119 7.955 12.2902C8.5375 12.5002 9.14083 12.7169 9.975 12.7169C10.6233 12.7169 11.0058 12.1444 11.5583 11.1994C12.1083 10.2602 12.7925 9.09108 14.1742 9.09108C16.0942 9.09108 17.2842 10.3019 18.0908 11.1944C18.1117 10.8127 18.125 10.4177 18.125 10.0002C18.125 4.00108 15.9983 1.87524 10 1.87524C4.00167 1.87524 1.875 4.00108 1.875 10.0002C1.875 12.2377 2.17167 13.9361 2.855 15.1869C3.285 14.3394 4.22 12.7411 5.39667 12.1886Z" fill="#575FFF"/>
<path fill-rule="evenodd" clip-rule="evenodd" d="M17.6929 12.6097C17.5704 12.4839 17.4404 12.3397 17.3012 12.1839C16.5646 11.3631 15.6471 10.3406 14.1737 10.3406C13.5537 10.3406 13.1796 10.9039 12.6379 11.8306C12.0804 12.7831 11.3879 13.9672 9.97458 13.9672C8.92208 13.9672 8.15125 13.6897 7.53125 13.4656C6.80125 13.2022 6.42458 13.0856 5.92875 13.3197C4.98542 13.7631 4.03875 15.5514 3.75375 16.2031C3.73708 16.2431 3.71125 16.2756 3.68708 16.3106C4.96792 17.5931 6.99958 18.1247 10.0004 18.1247C14.9662 18.1247 17.2729 16.6597 17.9221 12.7547C17.8379 12.7231 17.7596 12.6781 17.6929 12.6097Z" fill="#575FFF"/>
</svg>
