<svg width="17" height="17" viewBox="0 0 17 17" fill="none" xmlns="http://www.w3.org/2000/svg">
<path fill-rule="evenodd" clip-rule="evenodd" d="M8.12917 5.83333H8.12167C7.77667 5.83333 7.49667 5.55333 7.49667 5.20833C7.49667 4.86333 7.77667 4.58333 8.12167 4.58333C8.46667 4.58333 8.75083 4.86333 8.75083 5.20833C8.75083 5.55333 8.47417 5.83333 8.12917 5.83333ZM8.75 11.3708C8.75 11.7158 8.47 11.9958 8.125 11.9958C7.78 11.9958 7.5 11.7158 7.5 11.3708V8.125C7.5 7.78 7.78 7.5 8.125 7.5C8.47 7.5 8.75 7.78 8.75 8.125V11.3708ZM8.125 0C2.12667 0 0 2.12667 0 8.125C0 14.1233 2.12667 16.25 8.125 16.25C14.1233 16.25 16.25 14.1233 16.25 8.125C16.25 2.12667 14.1233 0 8.125 0Z" fill="#575FFF"/>
</svg>
