<svg width="20" height="20" viewBox="0 0 20 20" fill="none" xmlns="http://www.w3.org/2000/svg">
<path fill-rule="evenodd" clip-rule="evenodd" d="M14.128 3.10695V1.77112C14.128 1.42612 13.848 1.14612 13.503 1.14612C13.158 1.14612 12.878 1.42612 12.878 1.77112V4.49029C12.878 4.70695 12.9955 4.88945 13.1638 5.00112C13.0646 5.06779 12.9521 5.11529 12.8238 5.11529C12.4788 5.11529 12.1988 4.83529 12.1988 4.49029V2.68528C11.5305 2.60529 10.8021 2.56445 9.99962 2.56445C9.05462 2.56445 8.21212 2.62112 7.45462 2.73528V1.77112C7.45462 1.42612 7.17462 1.14612 6.82962 1.14612C6.48462 1.14612 6.20462 1.42612 6.20462 1.77112V4.49029C6.20462 4.70695 6.32212 4.88945 6.49045 5.00112C6.39128 5.06779 6.27878 5.11529 6.15045 5.11529C5.80545 5.11529 5.52545 4.83529 5.52545 4.49029V3.21529C3.74712 3.90112 2.70378 5.17695 2.21045 7.20862H17.7896C17.2663 5.05362 16.1096 3.76029 14.128 3.10695Z" fill="#575FFF"/>
<path fill-rule="evenodd" clip-rule="evenodd" d="M13.6771 11.7389C13.3321 11.7389 13.0488 11.4589 13.0488 11.1139C13.0488 10.7689 13.3246 10.4889 13.6696 10.4889H13.6771C14.0221 10.4889 14.3021 10.7689 14.3021 11.1139C14.3021 11.4589 14.0221 11.7389 13.6771 11.7389ZM13.6771 14.9497C13.3321 14.9497 13.0488 14.6697 13.0488 14.3247C13.0488 13.9789 13.3246 13.6997 13.6696 13.6997H13.6771C14.0221 13.6997 14.3021 13.9789 14.3021 14.3247C14.3021 14.6697 14.0221 14.9497 13.6771 14.9497ZM10.0113 11.7389C9.66628 11.7389 9.38212 11.4589 9.38212 11.1139C9.38212 10.7689 9.65878 10.4889 10.0038 10.4889H10.0113C10.3563 10.4889 10.6363 10.7689 10.6363 11.1139C10.6363 11.4589 10.3563 11.7389 10.0113 11.7389ZM10.0113 14.9497C9.66628 14.9497 9.38212 14.6697 9.38212 14.3247C9.38212 13.9789 9.65878 13.6997 10.0038 13.6997H10.0113C10.3563 13.6997 10.6363 13.9789 10.6363 14.3247C10.6363 14.6697 10.3563 14.9497 10.0113 14.9497ZM6.33795 11.7389C5.99295 11.7389 5.70878 11.4589 5.70878 11.1139C5.70878 10.7689 5.98545 10.4889 6.33045 10.4889H6.33795C6.68295 10.4889 6.96295 10.7689 6.96295 11.1139C6.96295 11.4589 6.68295 11.7389 6.33795 11.7389ZM6.33795 14.9497C5.99295 14.9497 5.70878 14.6697 5.70878 14.3247C5.70878 13.9789 5.98545 13.6997 6.33045 13.6997H6.33795C6.68295 13.6997 6.96295 13.9789 6.96295 14.3247C6.96295 14.6697 6.68295 14.9497 6.33795 14.9497ZM18.0163 8.45808H1.98378C1.89878 9.14141 1.85461 9.88558 1.85461 10.7097C1.85461 16.7222 3.98628 18.8539 9.99962 18.8539C16.0138 18.8539 18.1455 16.7222 18.1455 10.7097C18.1455 9.88558 18.1013 9.14141 18.0163 8.45808Z" fill="#575FFF"/>
</svg>
