<svg width="20" height="20" viewBox="0 0 20 20" fill="none" xmlns="http://www.w3.org/2000/svg">
<path fill-rule="evenodd" clip-rule="evenodd" d="M2.5 4.98584C2.5 4.07334 3.24583 3.33334 4.16667 3.33334H15.8333C16.7542 3.33334 17.5 4.07334 17.5 4.98584V12.4217C17.4992 12.6397 17.4555 12.8554 17.3713 13.0564C17.2871 13.2575 17.1641 13.44 17.0093 13.5935C16.8545 13.747 16.6709 13.8684 16.4692 13.9509C16.2674 14.0334 16.0513 14.0753 15.8333 14.0742H10.3333L7.94417 16.3242C7.14833 17.0733 5.83333 16.5142 5.83333 15.4242V14.0742H4.16667C3.24583 14.0742 2.5 13.3342 2.5 12.4217V4.98584ZM7.255 8.16001C7.17747 8.08275 7.08547 8.02152 6.98427 7.97981C6.88307 7.9381 6.77465 7.91673 6.66519 7.91692C6.55574 7.91712 6.44739 7.93887 6.34634 7.98094C6.24529 8.023 6.15351 8.08456 6.07625 8.16209C5.99899 8.23963 5.93776 8.33162 5.89605 8.43282C5.85434 8.53402 5.83297 8.64244 5.83316 8.7519C5.83336 8.86136 5.85511 8.9697 5.89717 9.07076C5.93924 9.17181 6.0008 9.26358 6.07833 9.34084C6.15587 9.4181 6.24786 9.47934 6.34906 9.52105C6.45026 9.56275 6.55868 9.58412 6.66814 9.58393C6.7776 9.58374 6.88594 9.56198 6.98699 9.51992C7.08805 9.47785 7.17982 9.41629 7.25708 9.33876C7.33434 9.26123 7.39558 9.16923 7.43729 9.06803C7.47899 8.96683 7.50036 8.85841 7.50017 8.74895C7.49997 8.6395 7.47822 8.53115 7.43616 8.4301C7.39409 8.32905 7.33253 8.23727 7.255 8.16001ZM9.40917 8.16168C9.52545 8.04486 9.67377 7.96515 9.83536 7.93264C9.99695 7.90012 10.1646 7.91625 10.317 7.97899C10.4694 8.04174 10.5998 8.14827 10.6916 8.28512C10.7835 8.42198 10.8327 8.583 10.8331 8.74783C10.8334 8.91265 10.7849 9.07388 10.6936 9.21112C10.6023 9.34836 10.4724 9.45545 10.3202 9.51884C10.1681 9.58223 10.0006 9.59907 9.83883 9.56724C9.6771 9.53541 9.52845 9.45633 9.41167 9.34001C9.25511 9.18407 9.1669 8.97233 9.16643 8.75136C9.16596 8.53039 9.25327 8.31828 9.40917 8.16168ZM13.9217 8.16001C13.7651 8.00397 13.5529 7.91653 13.3319 7.91692C13.1108 7.91732 12.899 8.00551 12.7429 8.16209C12.5869 8.31868 12.4994 8.53084 12.4998 8.7519C12.5002 8.97296 12.5884 9.18481 12.745 9.34084C12.8225 9.4181 12.9145 9.47934 13.0157 9.52105C13.1169 9.56275 13.2253 9.58412 13.3348 9.58393C13.4443 9.58374 13.5526 9.56198 13.6537 9.51992C13.7547 9.47785 13.8465 9.41629 13.9237 9.33876C14.001 9.26123 14.0622 9.16923 14.104 9.06803C14.1457 8.96683 14.167 8.85841 14.1668 8.74895C14.1666 8.6395 14.1449 8.53115 14.1028 8.4301C14.0608 8.32905 13.9992 8.23727 13.9217 8.16001Z" fill="white"/>
</svg>
