<svg width="17" height="17" viewBox="0 0 17 17" fill="none" xmlns="http://www.w3.org/2000/svg">
<path fill-rule="evenodd" clip-rule="evenodd" d="M6.00014 2.5325C6.00014 1.825 6.49014 1.25 7.09181 1.25H9.09181C9.69347 1.25 10.1835 1.825 10.1835 2.5325V2.5525C9.54514 2.48833 8.85014 2.45667 8.09181 2.45667C7.33264 2.45667 6.63764 2.48833 6.00014 2.5525V2.5325ZM0.180139 7.465C2.35431 8.805 5.17097 9.54417 8.10847 9.54667C11.0401 9.54417 13.8493 8.8075 16.0218 7.47333C15.5818 4.75417 14.1943 3.3075 11.4335 2.745V2.5325C11.4335 1.13583 10.3826 0 9.09181 0H7.09181C5.80097 0 4.75014 1.13583 4.75014 2.5325V2.745C1.99347 3.30667 0.606806 4.74917 0.163473 7.45833C0.169306 7.46167 0.175139 7.46167 0.180139 7.465Z" fill="#F07EFF"/>
<path fill-rule="evenodd" clip-rule="evenodd" d="M8.71667 10.8282V12.6307C8.71667 12.9757 8.43667 13.2557 8.09167 13.2557C7.74667 13.2557 7.46667 12.9757 7.46667 12.6307V10.8274C4.74917 10.7366 2.15083 10.0582 0.02 8.88407C0.0075 9.14991 0 9.42324 0 9.70824C0 15.0632 2.1175 16.9607 8.09167 16.9607C14.0658 16.9607 16.1833 15.0632 16.1833 9.70824C16.1833 9.42991 16.1767 9.16241 16.165 8.90324C14.0308 10.0707 11.4325 10.7424 8.71667 10.8282Z" fill="#F07EFF"/>
</svg>
