<svg width="16" height="16" viewBox="0 0 16 16" fill="none" xmlns="http://www.w3.org/2000/svg">
<path d="M8 0C2.096 0 0 2.096 0 8C0 13.9093 2.096 16 8 16C13.9093 16 16 13.9093 16 8C16 2.096 13.9093 0 8 0ZM6.29867 10.704C4.81067 10.704 3.6 9.49333 3.6 8C3.6 6.512 4.81067 5.30133 6.29867 5.30133C6.52267 5.30133 6.69867 5.48267 6.69867 5.70133C6.69867 5.92533 6.52267 6.10133 6.29867 6.10133C5.25333 6.10133 4.4 6.95467 4.4 8C4.4 9.05067 5.25333 9.904 6.29867 9.904C7.34933 9.904 8.20267 9.05067 8.20267 8C8.20267 7.78133 8.37867 7.6 8.60267 7.6C8.82133 7.6 9.00267 7.78133 9.00267 8C9.00267 9.49333 7.792 10.704 6.29867 10.704ZM9.6 10.8C9.38133 10.8 9.2 10.624 9.2 10.4C9.2 10.1813 9.38133 10 9.6 10C10.704 10 11.6 9.104 11.6 8C11.6 6.90133 10.704 6 9.6 6C8.496 6 7.6 6.90133 7.6 8C7.6 8.224 7.424 8.4 7.2 8.4C6.98133 8.4 6.8 8.224 6.8 8C6.8 6.45867 8.05867 5.2 9.6 5.2C11.1467 5.2 12.4 6.45867 12.4 8C12.4 9.54667 11.1467 10.8 9.6 10.8Z" fill="#30B27B"/>
</svg>
