<svg width="17" height="17" viewBox="0 0 17 17" fill="none" xmlns="http://www.w3.org/2000/svg">
<path fill-rule="evenodd" clip-rule="evenodd" d="M7.91917 10.8208C7.66917 10.9242 7.38333 11.0217 7.11667 11.0217C6.91 11.0217 6.71583 10.9633 6.5575 10.805C6.44167 10.6892 6.08583 10.3342 6.09583 7.98917C6.105 5.65667 6.44583 5.31667 6.5575 5.20417C6.95083 4.81167 7.60167 5.07917 7.88 5.195C8.56667 5.47917 11.255 6.96 11.255 8.005C11.255 9.06667 8.50833 10.5767 7.91917 10.8208ZM8.125 0C2.12667 0 0 2.12667 0 8.125C0 14.1233 2.12667 16.25 8.125 16.25C14.1242 16.25 16.25 14.1233 16.25 8.125C16.25 2.12667 14.1242 0 8.125 0Z" fill="#575FFF"/>
</svg>
