<svg width="17" height="18" viewBox="0 0 17 18" fill="none" xmlns="http://www.w3.org/2000/svg">
<path fill-rule="evenodd" clip-rule="evenodd" d="M10.8283 12.8208H5.9825C5.6375 12.8208 5.3575 12.5408 5.3575 12.1958C5.3575 11.8508 5.6375 11.5708 5.9825 11.5708H10.8283C11.1733 11.5708 11.4533 11.8508 11.4533 12.1958C11.4533 12.5408 11.1733 12.8208 10.8283 12.8208ZM14.4458 3.88167C14.1433 3.615 13.7992 3.31333 13.3892 2.93417C13.2033 2.78417 13 2.6125 12.7842 2.43083C11.5675 1.405 9.90083 0 8.38167 0C6.88 0 5.32083 1.32667 4.06833 2.3925C3.83667 2.58917 3.62 2.77417 3.39917 2.95333C3.01083 3.31333 2.66667 3.61583 2.36333 3.88333C0.374167 5.63417 0 6.09333 0 10.1775C0 17.5 2.1175 17.5 8.405 17.5C14.6917 17.5 16.81 17.5 16.81 10.1775C16.81 6.0925 16.4358 5.63333 14.4458 3.88167Z" fill="#FCB98A"/>
</svg>
