<svg width="20" height="21" viewBox="0 0 20 21" fill="none" xmlns="http://www.w3.org/2000/svg">
<path fill-rule="evenodd" clip-rule="evenodd" d="M12.5243 10.574H12.4783C11.9263 10.574 11.4783 10.126 11.4783 9.574C11.4783 9.022 11.9263 8.574 12.4783 8.574C13.0323 8.574 13.5013 9.032 13.5013 9.574C13.5013 10.135 13.0723 10.574 12.5243 10.574ZM6.06526 4.471C6.18826 3.741 6.52626 3.066 7.06326 2.534C7.73626 1.867 8.62826 1.5 9.57826 1.5H9.59526C11.3593 1.5 12.8183 2.788 13.1053 4.471C12.0733 4.332 10.9153 4.255 9.58526 4.255C8.25626 4.255 7.09726 4.332 6.06526 4.471ZM6.69326 10.574H6.64726C6.09626 10.574 5.64726 10.126 5.64726 9.574C5.64726 9.022 6.09626 8.574 6.64726 8.574C7.20226 8.574 7.67026 9.032 7.67026 9.574C7.67026 10.135 7.24126 10.574 6.69326 10.574ZM18.2523 6.807C17.5123 5.842 16.3163 5.172 14.6343 4.758C14.4693 2.11 12.2843 0 9.59826 0H9.57526C8.23026 0 6.96326 0.521 6.00726 1.469C5.11926 2.349 4.61826 3.504 4.53726 4.758C2.85426 5.171 1.65826 5.841 0.918258 6.807C-0.0917418 8.126 -0.266742 9.939 0.384258 12.351C1.88726 17.927 2.76926 20.189 9.58526 20.189C16.4003 20.189 17.2823 17.927 18.7863 12.351C19.4363 9.939 19.2623 8.126 18.2523 6.807Z" fill="url(#paint0_linear_142_203)"/>
<defs>
<linearGradient id="paint0_linear_142_203" x1="9.58493" y1="-6.89962" x2="9.58493" y2="24.5945" gradientUnits="userSpaceOnUse">
<stop stop-color="#D400F7"/>
<stop offset="1" stop-color="#7407FF"/>
</linearGradient>
</defs>
</svg>
