<svg width="20" height="18" viewBox="0 0 20 18" fill="none" xmlns="http://www.w3.org/2000/svg">
<path fill-rule="evenodd" clip-rule="evenodd" d="M15.6539 7.68095H15.6289C15.2149 7.66595 14.8899 7.31995 14.9039 6.90595C14.9359 5.95495 14.4709 5.33795 13.6599 5.25495C13.2479 5.21295 12.9479 4.84495 12.9899 4.43295C13.0329 4.02195 13.4029 3.71895 13.8129 3.76295C15.4209 3.92695 16.4619 5.20995 16.4029 6.95595C16.3889 7.36195 16.0559 7.68095 15.6539 7.68095ZM15.5719 0.266949C13.8519 -0.283051 11.4709 -0.0550513 9.98486 1.63095C8.42386 -0.0430514 6.12386 -0.286051 4.41586 0.267949C0.500863 1.52795 -0.720137 6.06395 0.393863 9.54295V9.54395C2.15186 15.0149 7.99686 17.9659 9.99886 17.9659C11.7859 17.9659 17.8629 15.0699 19.6009 9.54295C20.7149 6.06495 19.4909 1.52895 15.5719 0.266949Z" fill="url(#paint0_linear_142_201)"/>
<defs>
<linearGradient id="paint0_linear_142_201" x1="9.99707" y1="-6.01703" x2="9.99707" y2="28.483" gradientUnits="userSpaceOnUse">
<stop stop-color="#FF0000"/>
<stop offset="1" stop-color="#8F00FF"/>
</linearGradient>
</defs>
</svg>
