<svg width="16" height="20" viewBox="0 0 16 20" fill="none" xmlns="http://www.w3.org/2000/svg">
<path fill-rule="evenodd" clip-rule="evenodd" d="M11.3977 7.968H4.5427C4.1287 7.968 3.79269 7.632 3.79269 7.218C3.79269 6.804 4.1287 6.468 4.5427 6.468H11.3977C11.8117 6.468 12.1477 6.804 12.1477 7.218C12.1477 7.632 11.8117 7.968 11.3977 7.968ZM15.9397 10.99L15.9367 8.929C15.9367 1.335 14.7457 0 7.9707 0C1.19569 0 0.00469481 1.335 0.00469481 8.929L0.00169481 10.99C-0.00730519 16.615 -0.0113052 18.721 0.847695 19.58C1.12569 19.859 1.49469 20 1.94369 20C2.89869 20 3.96069 19.093 5.08569 18.132C6.08169 17.281 7.2107 16.317 7.9707 16.317C8.73069 16.317 9.85969 17.281 10.8557 18.132C11.9807 19.093 13.0427 20 13.9977 20C14.4467 20 14.8157 19.859 15.0937 19.58C15.9527 18.721 15.9487 16.615 15.9397 10.99Z" fill="url(#paint0_linear_142_204)"/>
<defs>
<linearGradient id="paint0_linear_142_204" x1="7.9707" y1="-11.5" x2="7.97069" y2="28" gradientUnits="userSpaceOnUse">
<stop stop-color="#01DDEB"/>
<stop offset="1" stop-color="#5510E8"/>
</linearGradient>
</defs>
</svg>
