<svg width="23" height="23" viewBox="0 0 23 23" fill="none" xmlns="http://www.w3.org/2000/svg">
<mask id="mask0_1_1264" style="mask-type:luminance" maskUnits="userSpaceOnUse" x="0" y="0" width="23" height="23">
<path d="M10.3195 1.12685L1.12604 10.3194C0.938567 10.5069 0.833252 10.7612 0.833252 11.0264C0.833252 11.2915 0.938567 11.5458 1.12604 11.7333L10.3195 20.9264C10.4124 21.0193 10.5227 21.0929 10.644 21.1432C10.7654 21.1935 10.8954 21.2194 11.0268 21.2194C11.1581 21.2194 11.2882 21.1935 11.4096 21.1432C11.5309 21.0929 11.6412 21.0193 11.734 20.9264L20.926 11.7339C21.1135 11.5463 21.2188 11.292 21.2188 11.0268C21.2188 10.7617 21.1135 10.5074 20.926 10.3198L11.7335 1.12635C11.6407 1.03345 11.5304 0.959752 11.4091 0.909472C11.2877 0.859192 11.1576 0.833313 11.0263 0.833313C10.8949 0.833313 10.7649 0.859192 10.6435 0.909472C10.5222 0.959752 10.4119 1.03345 10.319 1.12635L10.3195 1.12685Z" fill="white" stroke="white" stroke-width="1.66667" stroke-linejoin="round"/>
<path d="M10.9194 15.0264C11.9803 15.0264 12.9977 14.6049 13.7479 13.8548C14.498 13.1046 14.9194 12.0872 14.9194 11.0264C14.9194 9.9655 14.498 8.94809 13.7479 8.19794C12.9977 7.44779 11.9803 7.02637 10.9194 7.02637C9.85857 7.02637 8.84115 7.44779 8.09101 8.19794C7.34086 8.94809 6.91943 9.9655 6.91943 11.0264C6.91943 12.0872 7.34086 13.1046 8.09101 13.8548C8.84115 14.6049 9.85857 15.0264 10.9194 15.0264Z" fill="black" stroke="black" stroke-width="1.66667" stroke-linejoin="round"/>
</mask>
<g mask="url(#mask0_1_1264)">
<path d="M-1.08057 -0.973633H22.9194V23.0264H-1.08057V-0.973633Z" fill="url(#paint0_linear_1_1264)"/>
</g>
<defs>
<linearGradient id="paint0_linear_1_1264" x1="10.9194" y1="-0.973633" x2="10.9194" y2="23.0264" gradientUnits="userSpaceOnUse">
<stop stop-color="#F7D80A"/>
<stop offset="1" stop-color="#FF9101"/>
</linearGradient>
</defs>
</svg>
