<svg width="15" height="15" viewBox="0 0 15 15" fill="none" xmlns="http://www.w3.org/2000/svg">
<path d="M10.3121 4.21875H12.2321C12.3482 4.21886 12.4602 4.26208 12.5463 4.34002C12.6324 4.41796 12.6864 4.52508 12.6981 4.64062L12.984 7.5H12.0409L11.8065 5.15625H10.3121V6.5625C10.3121 6.68682 10.2627 6.80605 10.1748 6.89396C10.0869 6.98186 9.96768 7.03125 9.84336 7.03125C9.71904 7.03125 9.59982 6.98186 9.51191 6.89396C9.424 6.80605 9.37461 6.68682 9.37461 6.5625V5.15625H5.62462V6.5625C5.62462 6.68682 5.57523 6.80605 5.48732 6.89396C5.39941 6.98186 5.28019 7.03125 5.15587 7.03125C5.03155 7.03125 4.91232 6.98186 4.82441 6.89396C4.7365 6.80605 4.68712 6.68682 4.68712 6.5625V5.15625H3.1918L2.4418 12.6562H7.49962V13.5938H1.92337C1.85789 13.5937 1.79316 13.5799 1.73334 13.5533C1.67352 13.5267 1.61993 13.4879 1.57604 13.4393C1.53214 13.3907 1.49891 13.3335 1.47848 13.2713C1.45805 13.2091 1.45088 13.1433 1.45743 13.0781L2.30118 4.64062C2.31279 4.52508 2.36688 4.41796 2.45296 4.34002C2.53904 4.26208 2.65099 4.21886 2.76712 4.21875H4.68712V3.89156C4.68712 2.26594 5.93962 0.9375 7.49962 0.9375C9.05962 0.9375 10.3121 2.26594 10.3121 3.89156V4.21969V4.21875ZM9.37461 4.21875V3.89156C9.37461 2.77219 8.52899 1.875 7.49962 1.875C6.47024 1.875 5.62462 2.77219 5.62462 3.89156V4.21969H9.37461V4.21875ZM12.3249 11.3063L11.2496 10.2319V13.5938C11.2496 13.7181 11.2002 13.8373 11.1123 13.9252C11.0244 14.0131 10.9052 14.0625 10.7809 14.0625C10.6565 14.0625 10.5373 14.0131 10.4494 13.9252C10.3615 13.8373 10.3121 13.7181 10.3121 13.5938V10.2319L9.23774 11.3063C9.1945 11.351 9.14278 11.3867 9.08559 11.4113C9.0284 11.4359 8.96689 11.4488 8.90465 11.4493C8.84241 11.4499 8.78068 11.438 8.72307 11.4144C8.66547 11.3909 8.61313 11.3561 8.56912 11.3121C8.52511 11.268 8.4903 11.2157 8.46673 11.1581C8.44316 11.1005 8.4313 11.0388 8.43184 10.9765C8.43238 10.9143 8.44531 10.8528 8.46988 10.7956C8.49445 10.7384 8.53016 10.6867 8.57493 10.6434L10.4499 8.76844C10.5378 8.68056 10.657 8.63119 10.7813 8.63119C10.9056 8.63119 11.0248 8.68056 11.1127 8.76844L12.9877 10.6434C13.0325 10.6867 13.0682 10.7384 13.0928 10.7956C13.1174 10.8528 13.1303 10.9143 13.1308 10.9765C13.1314 11.0388 13.1195 11.1005 13.0959 11.1581C13.0724 11.2157 13.0376 11.268 12.9935 11.3121C12.9495 11.3561 12.8972 11.3909 12.8396 11.4144C12.782 11.438 12.7203 11.4499 12.658 11.4493C12.5958 11.4488 12.5343 11.4359 12.4771 11.4113C12.4199 11.3867 12.3682 11.351 12.3249 11.3063Z" fill="#6340FF"/>
</svg>
