<svg width="10" height="9" viewBox="0 0 10 9" fill="none" xmlns="http://www.w3.org/2000/svg">
<path d="M0.375 0.375H3.04167C3.51316 0.375 3.96535 0.562301 4.29875 0.895699C4.63214 1.2291 4.81944 1.68128 4.81944 2.15278V8.375C4.81944 8.02138 4.67897 7.68224 4.42892 7.43219C4.17887 7.18214 3.83973 7.04167 3.48611 7.04167H0.375V0.375Z" stroke="white" stroke-width="0.75" stroke-linecap="round" stroke-linejoin="round"/>
<path d="M9.26378 0.375H6.59711C6.12562 0.375 5.67343 0.562301 5.34003 0.895699C5.00664 1.2291 4.81934 1.68128 4.81934 2.15278V8.375C4.81934 8.02138 4.95981 7.68224 5.20986 7.43219C5.45991 7.18214 5.79905 7.04167 6.15267 7.04167H9.26378V0.375Z" stroke="white" stroke-width="0.75" stroke-linecap="round" stroke-linejoin="round"/>
</svg>
