<svg width="17" height="16" viewBox="0 0 17 16" fill="none" xmlns="http://www.w3.org/2000/svg">
<path fill-rule="evenodd" clip-rule="evenodd" d="M6.85025 11.6523H0.916667C0.410667 11.6523 0 12.0621 0 12.569C0 13.0759 0.410667 13.4856 0.916667 13.4856H6.85025C7.35625 13.4856 7.76692 13.0759 7.76692 12.569C7.76692 12.0621 7.35625 11.6523 6.85025 11.6523Z" fill="white"/>
<path fill-rule="evenodd" clip-rule="evenodd" d="M13.0678 9.61666C10.9429 9.61666 10.1143 10.4444 10.1143 12.5702C10.1143 14.6959 10.9429 15.5237 13.0678 15.5237C15.1935 15.5237 16.0213 14.6959 16.0213 12.5702C16.0213 10.4444 15.1935 9.61666 13.0678 9.61666Z" fill="white"/>
<path fill-rule="evenodd" clip-rule="evenodd" d="M15.5621 2.03721H9.63037C9.12437 2.03721 8.71371 2.44696 8.71371 2.95388C8.71371 3.46079 9.12437 3.87054 9.63037 3.87054H15.5621C16.0681 3.87054 16.4788 3.46079 16.4788 2.95388C16.4788 2.44696 16.0681 2.03721 15.5621 2.03721Z" fill="white"/>
<path fill-rule="evenodd" clip-rule="evenodd" d="M3.41189 5.907C5.53764 5.907 6.36539 5.07925 6.36539 2.95258C6.36539 0.82775 5.53764 0 3.41189 0C1.28614 0 0.458389 0.82775 0.458389 2.95258C0.458389 5.07925 1.28614 5.907 3.41189 5.907Z" fill="white"/>
</svg>
