<svg width="80" height="30" viewBox="0 0 80 30" fill="none" xmlns="http://www.w3.org/2000/svg">
<path d="M62.2036 15.7943C61.0092 15.7943 60.0342 14.8193 60.0342 13.625C60.0342 12.4184 61.0092 11.4556 62.2036 11.4556C63.3979 11.4556 64.3729 12.4306 64.3729 13.625C64.3851 14.8193 63.4101 15.7943 62.2036 15.7943ZM62.2036 9.38379C59.8636 9.38379 57.9624 11.285 57.9624 13.625C57.9624 15.9649 59.8636 17.8662 62.2036 17.8662C64.5435 17.8662 66.4447 15.9649 66.4447 13.625C66.4447 11.2728 64.5435 9.38379 62.2036 9.38379Z" fill="black"/>
<path d="M42.7285 15.7943C41.5341 15.7943 40.5591 14.8193 40.5591 13.625C40.5591 12.4184 41.5341 11.4556 42.7285 11.4556C43.9228 11.4556 44.8978 12.4306 44.8978 13.625C44.8978 14.8193 43.9228 15.7943 42.7285 15.7943ZM42.7285 9.38379C40.3885 9.38379 38.4873 11.285 38.4873 13.625C38.4873 15.9649 40.3885 17.8662 42.7285 17.8662C45.0684 17.8662 46.9697 15.9649 46.9697 13.625C46.9575 11.2728 45.0684 9.38379 42.7285 9.38379Z" fill="black"/>
<path d="M57.6946 15.9166C57.4265 15.9898 57.0121 16.0751 56.8659 16.0751C56.1346 16.0751 55.9884 15.8191 55.9884 15.1367V11.2124H57.719V9.57926H55.9884V7.26367H54.0384L53.624 9.57926H52.2712H52.1616C51.0525 9.57926 50.2116 10.2617 49.6754 11.322L49.0051 9.57926H47.6035V17.7082H49.9922V14.1739C49.9922 12.3945 51.0525 11.2489 52.2956 11.2124H53.5997V15.2585C53.5997 17.1598 54.5746 17.8666 56.159 17.8666C56.9755 17.8666 57.6093 17.696 57.9871 17.5741L57.6946 15.9166Z" fill="black"/>
<path d="M69.3454 12.1389V17.7085H67.0176V9.56738H68.4313L68.9066 10.8105" fill="black"/>
<path d="M68.895 10.8219C69.6019 10.0053 70.5647 9.38379 71.6981 9.38379C73.6359 9.38379 74.4281 10.9316 74.4281 12.3575V17.7077H72.0393V12.4306C72.0393 11.7359 71.4544 11.3581 70.8328 11.3581C70.1625 11.3581 69.7359 11.7481 69.3581 12.1503" fill="black"/>
<path d="M29.2124 6.62988H31.8814L35.5376 13.5888V6.62988H37.7435V17.7081H35.3304L31.4183 10.0423V17.7081H29.2124V6.62988Z" fill="black"/>
<path d="M74.4282 9.5791V9.73754H74.6476V10.5053H74.8304V9.73754H75.062V9.5791H74.4282Z" fill="black"/>
<path d="M75.7564 9.5791L75.598 10.1885L75.4273 9.5791H75.1836V10.5053H75.342V9.7741L75.537 10.5053H75.6589L75.8539 9.7741V10.5053H76.0001V9.5791H75.7564Z" fill="black"/>
<path d="M12.6992 7.94614C10.3836 7.94614 8.20204 8.848 6.55676 10.4933C4.91148 12.1386 4.00962 14.3201 4.00962 16.6357C4.00962 18.9513 4.91148 21.1328 6.55676 22.7781C8.20204 24.4234 10.3836 25.3252 12.6992 25.3252C15.0147 25.3252 17.1963 24.4234 18.8415 22.7781C20.4746 21.1328 21.3765 18.9513 21.3887 16.6357C21.3887 14.3201 20.4868 12.1386 18.8415 10.4933C17.1963 8.86019 15.0147 7.94614 12.6992 7.94614ZM12.6992 29.3348C5.70365 29.3348 0 23.6312 0 16.6357C0 9.62799 5.70365 3.93652 12.6992 3.93652C19.6947 3.93652 25.3983 9.62799 25.3983 16.6357C25.3983 23.6312 19.6947 29.3348 12.6992 29.3348Z" fill="#FFC20E"/>
<path d="M27.5189 1.97461H26.5317V2.96178H27.5189V1.97461Z" fill="#FFC20E"/>
<path d="M27.5189 0H26.5317V0.98717H27.5189V0Z" fill="#FFC20E"/>
<path d="M24.6797 2.96191H23.7534V3.92471H24.6797V2.96191Z" fill="white"/>
<path d="M22.851 4.8623H21.9126V5.78854H22.851V4.8623Z" fill="black"/>
<path d="M25.7029 3.9248H24.667V4.85104H25.7029V3.9248Z" fill="black"/>
<path d="M21.9131 3.97266H20.9868V4.86232H21.9131V3.97266Z" fill="black"/>
<path d="M24.6797 4.8623H23.7534V5.78854H24.6797V4.8623Z" fill="black"/>
<path d="M26.5321 0.999023H25.5571V1.9862H26.5321V0.999023Z" fill="black"/>
<path d="M25.5571 1.97461H23.7534V2.96178H25.5571V1.97461Z" fill="black"/>
<path d="M23.7529 2.96191H22.8511V4.86313H23.7529V2.96191Z" fill="black"/>
<path d="M22.8515 5.78906V6.7153H21.9131V5.78906H20.3653V6.45936H19.5365V7.2881H20.4628V8.21433H19.5365V7.2881H18.5494V8.73839H17.6231V9.66462H17.0016V10.5909H16.3191C15.5513 11.7243 13.6501 15.2586 13.0651 16.6967C10.9811 13.7961 9.36016 12.6505 8.09268 12.2361C7.41019 12.029 6.58145 12.7724 7.71487 13.9545C10.3351 16.8429 11.1639 19.2194 11.956 21.1329C12.3826 22.1322 14.2716 22.2906 14.6494 21.2669C15.4538 19.1098 16.6238 16.6723 18.0131 14.6858V13.6499H18.7566V12.7236H19.5365V11.639H20.4628V10.603H19.5244V9.65243H20.4628V10.603H21.3768V9.66462H22.1081V8.5312H22.9368V7.75122H23.729V5.78906H22.8515Z" fill="black"/>
<path d="M31.8795 25.9125C31.8795 26.251 31.7567 26.5149 31.5112 26.7043C31.2657 26.8937 30.9325 26.9884 30.5117 26.9884C30.0557 26.9884 29.705 26.9296 29.4595 26.8121V26.3807C29.6173 26.4474 29.7892 26.5 29.975 26.5386C30.1609 26.5772 30.3451 26.5964 30.5274 26.5964C30.8256 26.5964 31.05 26.5403 31.2008 26.4281C31.3517 26.3141 31.4271 26.1563 31.4271 25.9546C31.4271 25.8213 31.3999 25.7126 31.3455 25.6284C31.2929 25.5425 31.2035 25.4636 31.0772 25.3917C30.9527 25.3198 30.7624 25.2383 30.5064 25.1471C30.1487 25.019 29.8926 24.8674 29.7383 24.692C29.5857 24.5166 29.5095 24.2878 29.5095 24.0054C29.5095 23.7091 29.6208 23.4732 29.8435 23.2978C30.0662 23.1225 30.3608 23.0348 30.7274 23.0348C31.1097 23.0348 31.4613 23.1049 31.7822 23.2452L31.6428 23.6345C31.3253 23.5013 31.0167 23.4346 30.7168 23.4346C30.4801 23.4346 30.2951 23.4855 30.1618 23.5872C30.0285 23.6889 29.9619 23.8301 29.9619 24.0107C29.9619 24.144 29.9864 24.2536 30.0355 24.3395C30.0846 24.4237 30.1671 24.5017 30.2828 24.5736C30.4003 24.6438 30.5792 24.7218 30.8194 24.8077C31.2228 24.9515 31.4998 25.1059 31.6507 25.2707C31.8032 25.4355 31.8795 25.6495 31.8795 25.9125Z" fill="black"/>
<path d="M33.8182 26.9884C33.392 26.9884 33.0553 26.8586 32.8081 26.5991C32.5625 26.3395 32.4398 25.9792 32.4398 25.518C32.4398 25.0532 32.5538 24.6841 32.7818 24.4105C33.0115 24.137 33.3192 24.0002 33.705 24.0002C34.0663 24.0002 34.3521 24.1194 34.5626 24.3579C34.773 24.5947 34.8782 24.9077 34.8782 25.297V25.5732H32.8922C32.901 25.9116 32.9861 26.1686 33.1474 26.3439C33.3105 26.5193 33.5393 26.607 33.8339 26.607C34.1443 26.607 34.4512 26.5421 34.7546 26.4123V26.8016C34.6003 26.8683 34.4539 26.9156 34.3153 26.9437C34.1785 26.9735 34.0128 26.9884 33.8182 26.9884ZM33.6998 24.3658C33.4683 24.3658 33.2833 24.4412 33.1448 24.592C33.008 24.7428 32.9273 24.9515 32.9028 25.2181H34.41C34.41 24.9428 34.3486 24.7323 34.2259 24.5868C34.1031 24.4395 33.9278 24.3658 33.6998 24.3658Z" fill="black"/>
<path d="M36.7774 26.9884C36.3601 26.9884 36.0365 26.8604 35.8068 26.6043C35.5788 26.3466 35.4648 25.9827 35.4648 25.5127C35.4648 25.0304 35.5806 24.6578 35.812 24.3947C36.0453 24.1317 36.3767 24.0002 36.8064 24.0002C36.9449 24.0002 37.0834 24.0151 37.222 24.0449C37.3605 24.0747 37.4692 24.1098 37.5482 24.1501L37.414 24.521C37.3176 24.4824 37.2123 24.4509 37.0983 24.4263C36.9844 24.4 36.8835 24.3869 36.7958 24.3869C36.2101 24.3869 35.9173 24.7604 35.9173 25.5074C35.9173 25.8617 35.9883 26.1335 36.1303 26.3229C36.2741 26.5123 36.4863 26.607 36.7669 26.607C37.0072 26.607 37.2535 26.5552 37.5061 26.4518V26.8385C37.3132 26.9384 37.0703 26.9884 36.7774 26.9884Z" fill="black"/>
<path d="M38.603 24.0528V25.923C38.603 26.158 38.6565 26.3334 38.7634 26.4491C38.8704 26.5649 39.0379 26.6228 39.2658 26.6228C39.5675 26.6228 39.7876 26.5403 39.9261 26.3755C40.0664 26.2106 40.1365 25.9415 40.1365 25.5679V24.0528H40.5732V26.9358H40.2128L40.1497 26.5491H40.126C40.0366 26.6911 39.9121 26.7999 39.7525 26.8753C39.5947 26.9507 39.414 26.9884 39.2106 26.9884C38.8599 26.9884 38.5968 26.9051 38.4215 26.7385C38.2479 26.5719 38.1611 26.3053 38.1611 25.9388V24.0528H38.603Z" fill="black"/>
<path d="M42.817 24.0002C42.945 24.0002 43.0599 24.0107 43.1616 24.0317L43.1011 24.4368C42.9818 24.4105 42.8766 24.3974 42.7854 24.3974C42.5522 24.3974 42.3523 24.4921 42.1857 24.6815C42.0208 24.8709 41.9384 25.1067 41.9384 25.3891V26.9358H41.5017V24.0528H41.8621L41.9121 24.5868H41.9331C42.0401 24.3991 42.169 24.2545 42.3198 24.1527C42.4706 24.051 42.6364 24.0002 42.817 24.0002Z" fill="black"/>
<path d="M44.1375 26.9358H43.7008V24.0528H44.1375V26.9358ZM43.664 23.2715C43.664 23.1716 43.6885 23.0988 43.7376 23.0532C43.7867 23.0059 43.8481 22.9822 43.9218 22.9822C43.9919 22.9822 44.0524 23.0059 44.1033 23.0532C44.1541 23.1006 44.1796 23.1733 44.1796 23.2715C44.1796 23.3697 44.1541 23.4434 44.1033 23.4925C44.0524 23.5398 43.9919 23.5635 43.9218 23.5635C43.8481 23.5635 43.7867 23.5398 43.7376 23.4925C43.6885 23.4434 43.664 23.3697 43.664 23.2715Z" fill="black"/>
<path d="M45.9946 26.628C46.0717 26.628 46.1463 26.6228 46.2182 26.6122C46.2901 26.6 46.3471 26.5877 46.3892 26.5754V26.9095C46.3418 26.9323 46.2717 26.9507 46.1787 26.9647C46.0875 26.9805 46.0051 26.9884 45.9314 26.9884C45.3738 26.9884 45.095 26.6947 45.095 26.1072V24.3921H44.682V24.1817L45.095 24.0002L45.2791 23.3846H45.5316V24.0528H46.3681V24.3921H45.5316V26.0888C45.5316 26.2624 45.5728 26.3957 45.6553 26.4886C45.7377 26.5815 45.8508 26.628 45.9946 26.628Z" fill="black"/>
<path d="M46.5102 24.0528H46.9784L47.6097 25.6968C47.7482 26.0721 47.8342 26.343 47.8675 26.5096H47.8885C47.9113 26.4202 47.9587 26.2676 48.0306 26.0519C48.1042 25.8345 48.3427 25.1681 48.746 24.0528H49.2143L47.9753 27.3356C47.8526 27.66 47.7088 27.8898 47.5439 28.0248C47.3808 28.1616 47.18 28.23 46.9415 28.23C46.8083 28.23 46.6767 28.2151 46.547 28.1852V27.8354C46.6434 27.8564 46.7513 27.867 46.8705 27.867C47.1704 27.867 47.3843 27.6986 47.5124 27.3619L47.6728 26.9516L46.5102 24.0528Z" fill="black"/>
<path d="M52.7943 23.4346C52.3717 23.4346 52.0376 23.5758 51.7921 23.8581C51.5484 24.1387 51.4265 24.5236 51.4265 25.0129C51.4265 25.5162 51.544 25.9055 51.779 26.1808C52.0157 26.4544 52.3524 26.5912 52.7891 26.5912C53.0574 26.5912 53.3634 26.543 53.7071 26.4465V26.8385C53.4406 26.9384 53.1117 26.9884 52.7207 26.9884C52.1543 26.9884 51.7167 26.8165 51.4081 26.4728C51.1012 26.1291 50.9477 25.6407 50.9477 25.0076C50.9477 24.6113 51.0214 24.2641 51.1687 23.966C51.3178 23.6679 51.5317 23.4381 51.8105 23.2768C52.0911 23.1155 52.4208 23.0348 52.7996 23.0348C53.2029 23.0348 53.5554 23.1085 53.857 23.2558L53.6676 23.6398C53.3765 23.503 53.0854 23.4346 52.7943 23.4346Z" fill="black"/>
<path d="M56.4533 26.9358V25.0708C56.4533 24.8358 56.3998 24.6604 56.2929 24.5447C56.1859 24.4289 56.0184 24.3711 55.7904 24.3711C55.4871 24.3711 55.2652 24.4535 55.1249 24.6183C54.9864 24.7832 54.9171 25.0532 54.9171 25.4285V26.9358H54.4805V22.8428H54.9171V24.0817C54.9171 24.2308 54.9101 24.3544 54.8961 24.4526H54.9224C55.0083 24.3141 55.1302 24.2054 55.288 24.1264C55.4476 24.0458 55.6291 24.0054 55.8325 24.0054C56.185 24.0054 56.4489 24.0896 56.6243 24.258C56.8014 24.4246 56.89 24.6902 56.89 25.055V26.9358H56.4533Z" fill="black"/>
<path d="M59.0075 26.9884C58.5814 26.9884 58.2447 26.8586 57.9974 26.5991C57.7519 26.3395 57.6291 25.9792 57.6291 25.518C57.6291 25.0532 57.7431 24.6841 57.9711 24.4105C58.2008 24.137 58.5086 24.0002 58.8944 24.0002C59.2556 24.0002 59.5415 24.1194 59.7519 24.3579C59.9624 24.5947 60.0676 24.9077 60.0676 25.297V25.5732H58.0816C58.0903 25.9116 58.1754 26.1686 58.3367 26.3439C58.4998 26.5193 58.7287 26.607 59.0233 26.607C59.3337 26.607 59.6406 26.5421 59.9439 26.4123V26.8016C59.7896 26.8683 59.6432 26.9156 59.5047 26.9437C59.3679 26.9735 59.2021 26.9884 59.0075 26.9884ZM58.8891 24.3658C58.6576 24.3658 58.4726 24.4412 58.3341 24.592C58.1973 24.7428 58.1166 24.9515 58.0921 25.2181H59.5993C59.5993 24.9428 59.538 24.7323 59.4152 24.5868C59.2925 24.4395 59.1171 24.3658 58.8891 24.3658Z" fill="black"/>
<path d="M61.9668 26.9884C61.5494 26.9884 61.2259 26.8604 60.9961 26.6043C60.7682 26.3466 60.6542 25.9827 60.6542 25.5127C60.6542 25.0304 60.7699 24.6578 61.0014 24.3947C61.2346 24.1317 61.5661 24.0002 61.9957 24.0002C62.1342 24.0002 62.2728 24.0151 62.4113 24.0449C62.5499 24.0747 62.6586 24.1098 62.7375 24.1501L62.6033 24.521C62.5069 24.4824 62.4017 24.4509 62.2877 24.4263C62.1737 24.4 62.0729 24.3869 61.9852 24.3869C61.3995 24.3869 61.1066 24.7604 61.1066 25.5074C61.1066 25.8617 61.1776 26.1335 61.3197 26.3229C61.4635 26.5123 61.6757 26.607 61.9562 26.607C62.1965 26.607 62.4429 26.5552 62.6954 26.4518V26.8385C62.5025 26.9384 62.2596 26.9884 61.9668 26.9884Z" fill="black"/>
<path d="M63.8134 25.4601C63.8888 25.3531 64.0036 25.2128 64.1579 25.0392L65.0891 24.0528H65.6073L64.4394 25.2812L65.6889 26.9358H65.1602L64.1422 25.5732L63.8134 25.8573V26.9358H63.382V22.8428H63.8134V25.0129C63.8134 25.1094 63.8063 25.2584 63.7923 25.4601H63.8134Z" fill="black"/>
<path d="M68.7008 25.4917C68.7008 25.9616 68.5824 26.329 68.3456 26.5938C68.1089 26.8569 67.7819 26.9884 67.3645 26.9884C67.1067 26.9884 66.8778 26.9279 66.6779 26.8069C66.478 26.6859 66.3237 26.5123 66.215 26.2861C66.1062 26.0598 66.0519 25.795 66.0519 25.4917C66.0519 25.0217 66.1694 24.656 66.4044 24.3947C66.6394 24.1317 66.9655 24.0002 67.3829 24.0002C67.7862 24.0002 68.1063 24.1343 68.343 24.4026C68.5815 24.6709 68.7008 25.034 68.7008 25.4917ZM66.5043 25.4917C66.5043 25.8599 66.578 26.1405 66.7253 26.3334C66.8726 26.5263 67.0892 26.6228 67.375 26.6228C67.6609 26.6228 67.8774 26.5272 68.0247 26.336C68.1738 26.1431 68.2483 25.8617 68.2483 25.4917C68.2483 25.1251 68.1738 24.8472 68.0247 24.6578C67.8774 24.4666 67.6591 24.3711 67.3697 24.3711C67.0839 24.3711 66.8682 24.4649 66.7227 24.6525C66.5771 24.8402 66.5043 25.1199 66.5043 25.4917Z" fill="black"/>
<path d="M69.8792 24.0528V25.923C69.8792 26.158 69.9327 26.3334 70.0397 26.4491C70.1466 26.5649 70.3141 26.6228 70.5421 26.6228C70.8437 26.6228 71.0638 26.5403 71.2023 26.3755C71.3426 26.2106 71.4128 25.9415 71.4128 25.5679V24.0528H71.8494V26.9358H71.4891L71.4259 26.5491H71.4022C71.3128 26.6911 71.1883 26.7999 71.0287 26.8753C70.8709 26.9507 70.6903 26.9884 70.4868 26.9884C70.1361 26.9884 69.8731 26.9051 69.6977 26.7385C69.5241 26.5719 69.4373 26.3053 69.4373 25.9388V24.0528H69.8792Z" fill="black"/>
<path d="M73.7092 26.628C73.7863 26.628 73.8609 26.6228 73.9328 26.6122C74.0047 26.6 74.0616 26.5877 74.1037 26.5754V26.9095C74.0564 26.9323 73.9862 26.9507 73.8933 26.9647C73.8021 26.9805 73.7197 26.9884 73.646 26.9884C73.0884 26.9884 72.8095 26.6947 72.8095 26.1072V24.3921H72.3966V24.1817L72.8095 24.0002L72.9937 23.3846H73.2462V24.0528H74.0827V24.3921H73.2462V26.0888C73.2462 26.2624 73.2874 26.3957 73.3698 26.4886C73.4523 26.5815 73.5654 26.628 73.7092 26.628Z" fill="black"/>
</svg>
