<svg width="20" height="20" viewBox="0 0 20 20" fill="none" xmlns="http://www.w3.org/2000/svg">
<path d="M10.625 10.4232L17.7083 7.58985V12.3007C17.2016 11.9769 16.6015 11.8309 16.0026 11.8858C15.4038 11.9408 14.8402 12.1934 14.4009 12.604C13.9615 13.0146 13.6712 13.5598 13.5759 14.1535C13.4806 14.7473 13.5856 15.3559 13.8744 15.8834C14.1631 16.4109 14.6193 16.8273 15.1708 17.0669C15.7224 17.3065 16.338 17.3558 16.9206 17.2068C17.5033 17.0579 18.0198 16.7193 18.3887 16.2445C18.7577 15.7696 18.9581 15.1854 18.9583 14.584V6.62069C18.9583 5.66819 18.9583 4.86985 18.8917 4.23319C18.8823 4.14547 18.8712 4.05796 18.8583 3.97069C18.7933 3.53569 18.68 3.13069 18.4592 2.79152C18.3242 2.58337 18.1485 2.40476 17.9425 2.26652L17.9367 2.26235C17.3467 1.87069 16.6842 1.89819 16.0017 2.07235C15.3417 2.24069 14.5233 2.58319 13.52 3.00319L11.775 3.73319C11.3042 3.92985 10.9058 4.09735 10.5933 4.26985C10.26 4.45319 9.97417 4.66985 9.75917 4.99319C9.54417 5.31652 9.45417 5.66402 9.41333 6.04235C9.375 6.39735 9.375 6.82985 9.375 7.33985V13.9665C8.86826 13.6427 8.26816 13.4968 7.6693 13.5517C7.07045 13.6066 6.50691 13.8593 6.06753 14.2699C5.62814 14.6805 5.33791 15.2256 5.24258 15.8194C5.14725 16.4131 5.25225 17.0217 5.54102 17.5492C5.8298 18.0767 6.28592 18.4931 6.83748 18.7327C7.38905 18.9724 8.00467 19.0216 8.58731 18.8727C9.16995 18.7238 9.68646 18.3852 10.0554 17.9103C10.4243 17.4354 10.6247 16.8512 10.625 16.2498V10.4232Z" fill="#7077FE"/>
<path opacity="0.5" d="M6.45833 1.6665C6.45833 1.50074 6.39249 1.34177 6.27528 1.22456C6.15807 1.10735 5.99909 1.0415 5.83333 1.0415C5.66757 1.0415 5.5086 1.10735 5.39139 1.22456C5.27418 1.34177 5.20833 1.50074 5.20833 1.6665V6.46651C4.70159 6.14269 4.10149 5.99674 3.50264 6.05167C2.90379 6.10659 2.34025 6.35927 1.90086 6.76986C1.46148 7.18045 1.17124 7.72559 1.07591 8.31936C0.980584 8.91312 1.08558 9.52172 1.37436 10.0492C1.66313 10.5767 2.11926 10.9931 2.67082 11.2327C3.22238 11.4723 3.83801 11.5216 4.42065 11.3727C5.00329 11.2238 5.51979 10.8852 5.88874 10.4103C6.25768 9.93538 6.45808 9.35121 6.45833 8.74984V4.17067C7.04083 4.59067 7.73333 4.7915 8.33333 4.7915C8.49909 4.7915 8.65807 4.72566 8.77528 4.60845C8.89249 4.49124 8.95833 4.33227 8.95833 4.1665C8.95833 4.00074 8.89249 3.84177 8.77528 3.72456C8.65807 3.60735 8.49909 3.5415 8.33333 3.5415C7.88029 3.53064 7.44386 3.36874 7.09333 3.0815C6.73167 2.784 6.45833 2.3315 6.45833 1.6665Z" fill="#7077FE"/>
</svg>
