<svg width="20" height="20" viewBox="0 0 20 20" fill="none" xmlns="http://www.w3.org/2000/svg">
<path d="M13.0416 7.80829C13.4648 7.67523 13.9185 7.67523 14.3416 7.80829C14.6225 7.89746 14.8533 8.05329 15.0725 8.23746C15.2816 8.41246 15.5175 8.64579 15.7958 8.92079L15.8133 8.93746L16.7783 9.89163L16.8033 9.91663C16.8983 10.01 17.0116 10.1208 17.095 10.2558C17.1683 10.3725 17.2225 10.5025 17.2558 10.6375C17.2885 10.7941 17.3006 10.9544 17.2916 11.1141C17.2866 12.2641 17.2633 13.0908 16.9 13.7716C16.5504 14.4183 16.006 14.9384 15.3441 15.2583C14.9316 15.4583 14.4825 15.5441 13.9583 15.585C13.4466 15.625 12.8125 15.625 12.0166 15.625H9.62498C8.82831 15.625 8.19415 15.625 7.68331 15.585C7.15831 15.5441 6.70998 15.4583 6.29665 15.2583C5.63509 14.9383 5.09105 14.4181 4.74165 13.7716C4.51915 13.355 4.42915 12.9 4.38748 12.3725L4.38498 12.345C4.36935 12.207 4.37103 12.0675 4.38998 11.93C4.41165 11.7966 4.45915 11.6566 4.52165 11.5375C4.59498 11.3966 4.69665 11.2825 4.77998 11.1858L4.80165 11.1608L4.84748 11.1091L4.86498 11.0891C5.15831 10.7533 5.40498 10.4708 5.62498 10.2591C5.85415 10.0383 6.09998 9.84913 6.40665 9.74246C6.86502 9.5841 7.36327 9.5841 7.82165 9.74246C8.12831 9.84913 8.37415 10.0383 8.60415 10.2591C8.82415 10.4708 9.07081 10.7533 9.36331 11.0891L9.37665 11.1041H9.37831L11.5866 8.92079C11.8658 8.64579 12.1008 8.41246 12.31 8.23746C12.53 8.05413 12.7608 7.89746 13.0408 7.80913M13.9633 9.00079C13.7861 8.94571 13.5964 8.94571 13.4191 9.00079C13.3583 9.02079 13.2716 9.06329 13.1133 9.19663C12.9483 9.33496 12.7491 9.53079 12.4483 9.82829L10.2533 11.9975C9.74748 12.4975 8.90998 12.47 8.43998 11.9325C8.12415 11.5708 7.91331 11.33 7.73748 11.1608C7.56581 10.9966 7.47331 10.9441 7.40998 10.9233C7.21818 10.8579 7.01011 10.8579 6.81831 10.9233C6.75581 10.945 6.66248 10.9966 6.49165 11.1608C6.31498 11.3308 6.10415 11.5708 5.78831 11.9325L5.74331 11.985C5.70374 12.0294 5.66512 12.0747 5.62748 12.1208L5.62581 12.1266L5.62415 12.1316V12.14L5.62665 12.1875L5.63331 12.275C5.66915 12.725 5.73748 12.9833 5.84415 13.1833C6.06081 13.5883 6.40831 13.9233 6.84415 14.135C7.05581 14.2383 7.32915 14.305 7.77998 14.34C8.23748 14.3758 8.82248 14.3758 9.65081 14.3758H11.9891C12.8183 14.3758 13.4033 14.3758 13.8608 14.34C14.3116 14.3041 14.585 14.2383 14.7975 14.135C15.2316 13.9233 15.5808 13.5883 15.7966 13.1833C15.9866 12.8275 16.0358 12.3383 16.0408 11.11C16.0413 11.0494 16.0405 10.9888 16.0383 10.9283L16.035 10.9208L16.0208 10.905C15.9811 10.863 15.9406 10.8219 15.8991 10.7816L14.9341 9.82829C14.6333 9.53079 14.4341 9.33496 14.2691 9.19663C14.1108 9.06329 14.0241 9.02079 13.9633 9.00079Z" fill="#7077FE"/>
<path d="M9.63917 2.7085H12.0275C12.8208 2.7085 13.455 2.7085 13.9667 2.75016C14.4917 2.7935 14.9433 2.8835 15.3583 3.09433C16.0247 3.43407 16.5664 3.97608 16.9058 4.64266C17.1167 5.05683 17.2067 5.50933 17.25 6.03433C17.2917 6.54516 17.2917 7.17933 17.2917 7.97266V10.361C17.2917 11.1543 17.2917 11.7885 17.25 12.3002C17.2067 12.8252 17.1167 13.2768 16.9058 13.6918C16.5663 14.3581 16.0246 14.8998 15.3583 15.2393C14.9433 15.4502 14.4917 15.5402 13.9667 15.5835C13.455 15.6252 12.8208 15.6252 12.0275 15.6252H9.63917C8.84583 15.6252 8.21167 15.6252 7.7 15.5835C7.175 15.5402 6.72333 15.4502 6.30833 15.2393C5.64206 14.8998 5.10036 14.3581 4.76083 13.6918C4.55 13.2768 4.46 12.8252 4.41667 12.3002C4.375 11.7885 4.375 11.1543 4.375 10.361V7.97266C4.375 7.17933 4.375 6.54516 4.41667 6.0335C4.46 5.5085 4.55 5.05683 4.76083 4.64183C5.10058 3.97543 5.64259 3.43372 6.30917 3.09433C6.72333 2.8835 7.17583 2.7935 7.70083 2.75016C8.21167 2.7085 8.84583 2.7085 9.63917 2.7085ZM7.80167 3.996C7.35417 4.03266 7.085 4.10183 6.87667 4.2085C6.44537 4.42822 6.09473 4.77887 5.875 5.21016C5.76833 5.4185 5.7 5.68766 5.6625 6.13516C5.62583 6.59016 5.625 7.1735 5.625 8.00016V10.3335C5.625 11.1602 5.625 11.7435 5.6625 12.1985C5.69917 12.646 5.76833 12.9152 5.875 13.1235C6.09473 13.5548 6.44537 13.9054 6.87667 14.1252C7.085 14.2318 7.35417 14.3002 7.80167 14.3377C8.25667 14.3743 8.83917 14.3752 9.66667 14.3752H12C12.8267 14.3752 13.41 14.3752 13.865 14.3377C14.3125 14.301 14.5817 14.2318 14.79 14.1252C15.2212 13.9057 15.5718 13.5553 15.7917 13.1243C15.8983 12.9143 15.9667 12.646 16.0042 12.1985C16.0408 11.7435 16.0417 11.161 16.0417 10.3335V8.00016C16.0417 7.1735 16.0417 6.59016 16.0042 6.13516C15.9675 5.68766 15.8983 5.4185 15.7917 5.21016C15.5724 4.77912 15.2223 4.4285 14.7917 4.2085C14.5817 4.10183 14.3133 4.0335 13.8658 3.996C13.4108 3.95933 12.8275 3.9585 12.0008 3.9585H9.6675C8.84083 3.9585 8.25667 3.9585 7.80167 3.996Z" fill="#7077FE"/>
<g opacity="0.5">
<path d="M9.58331 6.4585C9.41755 6.4585 9.25858 6.52434 9.14137 6.64155C9.02416 6.75876 8.95831 6.91774 8.95831 7.0835C8.95831 7.24926 9.02416 7.40823 9.14137 7.52544C9.25858 7.64265 9.41755 7.7085 9.58331 7.7085C9.74907 7.7085 9.90804 7.64265 10.0253 7.52544C10.1425 7.40823 10.2083 7.24926 10.2083 7.0835C10.2083 6.91774 10.1425 6.75876 10.0253 6.64155C9.90804 6.52434 9.74907 6.4585 9.58331 6.4585ZM7.70831 7.0835C7.70831 6.58622 7.90586 6.1093 8.25749 5.75767C8.60912 5.40604 9.08603 5.2085 9.58331 5.2085C10.0806 5.2085 10.5575 5.40604 10.9091 5.75767C11.2608 6.1093 11.4583 6.58622 11.4583 7.0835C11.4583 7.58078 11.2608 8.05769 10.9091 8.40932C10.5575 8.76095 10.0806 8.9585 9.58331 8.9585C9.08603 8.9585 8.60912 8.76095 8.25749 8.40932C7.90586 8.05769 7.70831 7.58078 7.70831 7.0835Z" fill="#7077FE"/>
<path d="M5.79331 4.96832C5.8524 5.12314 5.84758 5.29509 5.77991 5.44636C5.71225 5.59763 5.58728 5.71583 5.43248 5.77498C4.99873 5.94061 4.62553 6.23407 4.36228 6.61652C4.09903 6.99897 3.95816 7.45236 3.95831 7.91665V10.8333C3.95831 12.4333 3.96665 13.085 4.13165 13.5941C4.30435 14.1258 4.60044 14.609 4.9957 15.0043C5.39097 15.3995 5.87417 15.6956 6.40581 15.8683C6.91498 16.0341 7.56665 16.0416 9.16665 16.0416H12.0833C13.05 16.0416 13.8783 15.4433 14.215 14.5941C14.2784 14.4434 14.3984 14.3235 14.5492 14.2602C14.6999 14.197 14.8695 14.1953 15.0215 14.2556C15.1735 14.3159 15.2959 14.4334 15.3622 14.5828C15.4286 14.7322 15.4338 14.9018 15.3766 15.055C15.1151 15.7149 14.6612 16.281 14.074 16.6798C13.4867 17.0787 12.7932 17.2918 12.0833 17.2916H9.03165C7.60998 17.2916 6.74248 17.2916 6.01915 17.0575C5.29991 16.8238 4.6462 16.4232 4.11146 15.8885C3.57672 15.3538 3.17614 14.7 2.94248 13.9808C2.70831 13.2575 2.70831 12.39 2.70831 10.9683V7.91665C2.70822 7.19921 2.926 6.49867 3.33285 5.90775C3.73969 5.31682 4.31641 4.86339 4.98665 4.60748C5.14147 4.5484 5.31342 4.55322 5.46469 4.62088C5.61596 4.68855 5.73416 4.81352 5.79331 4.96832Z" fill="#7077FE"/>
</g>
</svg>
