<svg width="20" height="20" viewBox="0 0 20 20" fill="none" xmlns="http://www.w3.org/2000/svg">
<path d="M9.37501 1.69234C9.30693 1.67498 9.23693 1.6663 9.16667 1.66651H6.45834V5.20817H9.37501V1.69234ZM9.37501 6.45817H1.66667V11.6665C1.66612 12.0426 1.66723 12.3898 1.67001 12.7082H9.37501V6.45817ZM9.37501 13.9582H6.45834V16.6665L7.22251 16.6673H9.37501V13.9582ZM5.20834 1.68567C3.86667 1.73151 3.05167 1.88484 2.48001 2.39901C1.85501 2.96151 1.71001 3.78734 1.67667 5.20817H5.20834V1.68567ZM5.20834 13.9582V16.6473C3.86667 16.6015 3.05167 16.4482 2.48001 15.934C1.98834 15.4923 1.79417 14.8873 1.71751 13.959L5.20834 13.9582Z" fill="#7077FE"/>
<path opacity="0.5" d="M10.625 5.8385V3.3335H13.5417V6.87516H10.625V5.8385ZM10.625 13.3385V8.12516H18.3333V13.3335C18.3339 13.7096 18.3328 14.0568 18.33 14.3752H10.625V13.3385ZM10.625 18.3077C10.6931 18.325 10.7631 18.3337 10.8333 18.3335H13.5417V15.6252H10.625V18.3077ZM14.7917 6.87516V3.35266C16.1333 3.3985 16.9483 3.55183 17.52 4.066C18.145 4.6285 18.29 5.45433 18.3233 6.87516H14.7917ZM18.2833 15.6252H14.7917V18.3143C16.1333 18.2685 16.9483 18.1152 17.52 17.601C18.0117 17.1593 18.2058 16.5543 18.2825 15.626" fill="#7077FE"/>
</svg>
