<svg width="20" height="20" viewBox="0 0 20 20" fill="none" xmlns="http://www.w3.org/2000/svg">
<path fill-rule="evenodd" clip-rule="evenodd" d="M15.8333 9.16667C17.7575 9.16667 18.9608 11.25 17.9983 12.9167C17.8658 13.1462 17.6976 13.3533 17.5 13.53V17.6592C17.5 17.7302 17.4818 17.8001 17.4472 17.8621C17.4126 17.9242 17.3627 17.9764 17.3022 18.0137C17.2418 18.051 17.1728 18.0723 17.1018 18.0754C17.0308 18.0786 16.9602 18.0635 16.8967 18.0317L15.8333 17.5L14.77 18.0317C14.7065 18.0635 14.6359 18.0786 14.5649 18.0754C14.4939 18.0723 14.4249 18.051 14.3644 18.0137C14.304 17.9764 14.2541 17.9242 14.2194 17.8621C14.1848 17.8001 14.1667 17.7302 14.1667 17.6592V13.53C12.7325 12.2467 13.225 9.8925 15.0533 9.29167C15.305 9.20917 15.5683 9.16667 15.8333 9.16667ZM9.99999 7.5H4.99999C4.78759 7.50024 4.5833 7.58157 4.42885 7.72737C4.2744 7.87318 4.18146 8.07246 4.16901 8.2845C4.15657 8.49653 4.22555 8.70532 4.36188 8.86819C4.4982 9.03107 4.69158 9.13575 4.90249 9.16083L4.99999 9.16667H9.99999C10.2124 9.16643 10.4167 9.0851 10.5711 8.93929C10.7256 8.79349 10.8185 8.59421 10.831 8.38217C10.8434 8.17014 10.7744 7.96135 10.6381 7.79847C10.5018 7.6356 10.3084 7.53092 10.0975 7.50583L9.99999 7.5ZM6.66666 10.8333H4.99999C4.77898 10.8333 4.56701 10.9211 4.41073 11.0774C4.25445 11.2337 4.16666 11.4457 4.16666 11.6667C4.16666 11.8877 4.25445 12.0996 4.41073 12.2559C4.56701 12.4122 4.77898 12.5 4.99999 12.5H6.66666C6.88767 12.5 7.09963 12.4122 7.25591 12.2559C7.41219 12.0996 7.49999 11.8877 7.49999 11.6667C7.49999 11.4457 7.41219 11.2337 7.25591 11.0774C7.09963 10.9211 6.88767 10.8333 6.66666 10.8333Z" fill="#7077FE"/>
<path opacity="0.3" fill-rule="evenodd" clip-rule="evenodd" d="M16.6667 3.3335C17.1087 3.3335 17.5326 3.50909 17.8452 3.82165C18.1577 4.13421 18.3333 4.55814 18.3333 5.00016V8.3335C15.7675 6.40933 12.08 7.98433 11.6967 11.1685C11.5683 12.2341 11.856 13.3082 12.5 14.1668V16.6668H3.33332C2.8913 16.6668 2.46737 16.4912 2.15481 16.1787C1.84225 15.8661 1.66666 15.4422 1.66666 15.0002V5.00016C1.66666 4.55814 1.84225 4.13421 2.15481 3.82165C2.46737 3.50909 2.8913 3.3335 3.33332 3.3335H16.6667Z" fill="#7077FE"/>
</svg>
