<svg width="20" height="20" viewBox="0 0 20 20" fill="none" xmlns="http://www.w3.org/2000/svg">
<path d="M9.03084 8.78816C9.03084 8.45316 8.77084 8.18149 8.45 8.18149H7.15C7.42 6.79816 8.5925 5.75732 10 5.75732C11.4058 5.75732 12.5792 6.79899 12.8483 8.18232H10.775C10.4542 8.18232 10.1942 8.45316 10.1942 8.78732C10.1942 9.12232 10.4542 9.39399 10.775 9.39399H12.9075V10.6057H10.775C10.4542 10.6057 10.1942 10.8773 10.1942 11.2123C10.1942 11.5473 10.4542 11.8182 10.775 11.8182H12.8492C12.6175 13.0057 11.7208 13.9407 10.5817 14.1815V16.0607C10.5817 16.3948 10.3208 16.6665 10 16.6665C9.67917 16.6665 9.41834 16.3948 9.41834 16.0607V14.1815C8.28 13.9407 7.3825 13.0057 7.15167 11.8182H8.45C8.77084 11.8182 9.03084 11.5465 9.03084 11.2123C9.03084 10.8773 8.77084 10.6057 8.45 10.6057H7.09334V9.39399H8.45C8.77084 9.39399 9.03084 9.12232 9.03084 8.78816Z" fill="#7077FE"/>
<path opacity="0.5" d="M10 3.3335C7.22501 3.3335 4.95501 5.58433 4.77834 8.43016C4.47753 8.26687 4.14061 8.1815 3.79834 8.18183C2.62084 8.18183 1.66667 9.17683 1.66667 10.4043V12.021C1.66667 13.2477 2.62084 14.2427 3.79834 14.2427C3.83834 14.2427 3.87806 14.2416 3.91751 14.2393V14.2427C5.02917 14.2427 5.93001 13.3035 5.93001 12.1443V8.78766C5.93001 6.44516 7.7525 4.546 10 4.546C12.2475 4.546 14.07 6.44516 14.07 8.78766V12.1443C14.07 13.3027 14.97 14.2427 16.0825 14.2427V14.2393C16.1214 14.2416 16.1611 14.2427 16.2017 14.2427C17.3792 14.2427 18.3333 13.2477 18.3333 12.0202V10.4035C18.3333 9.17683 17.3792 8.18183 16.2017 8.18183C15.8483 8.18183 15.515 8.27183 15.2217 8.43016C15.045 5.58433 12.7742 3.3335 10 3.3335Z" fill="#7077FE"/>
</svg>
