<svg width="20" height="20" viewBox="0 0 20 20" fill="none" xmlns="http://www.w3.org/2000/svg">
<path d="M10 1.6665C5.405 1.6665 1.66667 5.40484 1.66667 9.99984C1.66667 14.5948 5.405 18.3332 10 18.3332C14.595 18.3332 18.3333 14.5948 18.3333 9.99984C18.3333 5.40484 14.595 1.6665 10 1.6665ZM12.9108 7.49984C13.077 7.49559 13.2423 7.52466 13.397 7.58533C13.5518 7.64599 13.6928 7.73703 13.8118 7.85306C13.9308 7.9691 14.0254 8.10778 14.0899 8.26095C14.1545 8.41411 14.1877 8.57864 14.1876 8.74485C14.1876 8.91105 14.1542 9.07557 14.0896 9.22868C14.0249 9.3818 13.9303 9.52043 13.8112 9.63638C13.6921 9.75234 13.551 9.84328 13.3963 9.90384C13.2415 9.9644 13.0761 9.99336 12.91 9.989C12.5855 9.9805 12.2771 9.84558 12.0507 9.61302C11.8242 9.38045 11.6975 9.06863 11.6976 8.74401C11.6977 8.4194 11.8246 8.10766 12.0513 7.87525C12.2779 7.64283 12.5863 7.50813 12.9108 7.49984ZM7.08333 7.49984C7.24754 7.49989 7.41013 7.53229 7.56182 7.59518C7.7135 7.65807 7.85132 7.75022 7.96739 7.86637C8.08346 7.98252 8.17552 8.1204 8.23831 8.27212C8.3011 8.42385 8.33339 8.58646 8.33333 8.75067C8.33328 8.91488 8.30088 9.07747 8.23799 9.22915C8.1751 9.38084 8.08295 9.51865 7.9668 9.63473C7.85065 9.7508 7.71278 9.84286 7.56105 9.90565C7.40932 9.96844 7.24671 10.0007 7.0825 10.0007C6.75087 10.0006 6.43287 9.86871 6.19845 9.63414C5.96402 9.39956 5.83239 9.08147 5.8325 8.74984C5.83261 8.41821 5.96446 8.1002 6.19903 7.86578C6.43361 7.63136 6.7517 7.49973 7.08333 7.49984ZM10 14.9998C6.66667 14.9998 5.83333 11.6665 5.83333 11.6665H14.1667C14.1667 11.6665 13.3333 14.9998 10 14.9998Z" fill="#575FFF"/>
</svg>
