<svg width="20" height="20" viewBox="0 0 20 20" fill="none" xmlns="http://www.w3.org/2000/svg">
<path d="M7.39799 12.8089C7.57421 12.9334 7.78476 12.9999 8.00047 12.9994C8.21619 12.9989 8.4264 12.9313 8.60199 12.8059C8.77999 12.6759 8.91499 12.4959 8.98899 12.2879L9.43599 10.9149C9.5507 10.5708 9.74385 10.258 10.0002 10.0014C10.2565 9.74469 10.569 9.55112 10.913 9.43595L12.304 8.98595C12.5097 8.91149 12.6868 8.77438 12.8104 8.59394C12.934 8.4135 12.9978 8.19882 12.993 7.98015C12.9881 7.76148 12.9148 7.54985 12.7833 7.37508C12.6518 7.20031 12.4688 7.0712 12.26 7.00595L10.885 6.55795C10.5407 6.44338 10.2277 6.25029 9.97085 5.99395C9.71399 5.73761 9.52027 5.42504 9.40499 5.08095L8.95299 3.69295C8.88021 3.48846 8.7455 3.31174 8.56761 3.18738C8.38972 3.06302 8.17749 2.99719 7.96044 2.99906C7.7434 3.00093 7.53233 3.07041 7.35661 3.19782C7.18088 3.32523 7.04924 3.50424 6.97999 3.70995L6.52299 5.10995C6.40827 5.44482 6.21907 5.74929 5.96965 6.00045C5.72022 6.25161 5.41706 6.44291 5.08299 6.55995L3.69299 7.00695C3.48859 7.07989 3.31197 7.21465 3.18764 7.39254C3.06332 7.57043 2.99747 7.78262 2.99923 7.99964C3.00098 8.21666 3.07027 8.42775 3.19746 8.6036C3.32465 8.77945 3.50343 8.91133 3.70899 8.98095L5.08299 9.42595C5.42907 9.54079 5.74336 9.73526 6.00058 9.9937C6.25781 10.2521 6.45078 10.5673 6.56399 10.9139L7.01599 12.3049C7.08799 12.5089 7.22199 12.6849 7.39799 12.8089ZM13.535 16.8509C13.6373 16.9229 13.7549 16.97 13.8786 16.9886C14.0022 17.0072 14.1285 16.9968 14.2474 16.9582C14.3663 16.9196 14.4747 16.8538 14.5638 16.7662C14.6529 16.6785 14.7204 16.5712 14.761 16.4529L15.009 15.6909C15.0627 15.533 15.1516 15.3894 15.269 15.2709C15.387 15.1509 15.531 15.0629 15.689 15.0109L16.461 14.7589C16.6203 14.704 16.7582 14.6001 16.8549 14.4621C16.9517 14.3241 17.0024 14.1591 16.9999 13.9906C16.9973 13.8221 16.9416 13.6587 16.8407 13.5237C16.7398 13.3888 16.5989 13.2891 16.438 13.2389L15.674 12.9889C15.516 12.936 15.3725 12.8473 15.2545 12.7297C15.1365 12.6121 15.0474 12.4687 14.994 12.3109L14.742 11.5379C14.6879 11.379 14.5851 11.241 14.4482 11.1437C14.3114 11.0464 14.1473 10.9946 13.9794 10.9957C13.8114 10.9968 13.6481 11.0508 13.5125 11.1499C13.377 11.249 13.276 11.3883 13.224 11.5479L12.977 12.3099C12.926 12.4667 12.8394 12.6096 12.724 12.7273C12.6087 12.8451 12.4677 12.9347 12.312 12.9889L11.539 13.2409C11.3799 13.2949 11.2419 13.3974 11.1444 13.5342C11.0469 13.6709 10.9949 13.8349 10.9958 14.0028C10.9967 14.1708 11.0504 14.3342 11.1493 14.4699C11.2483 14.6056 11.3874 14.7067 11.547 14.7589L12.31 15.0059C12.47 15.0599 12.614 15.1489 12.732 15.2669C12.851 15.386 12.939 15.5299 12.99 15.6889L13.243 16.4629C13.2978 16.6194 13.3998 16.755 13.535 16.8509Z" fill="#575FFF"/>
</svg>
