<svg width="20" height="20" viewBox="0 0 20 20" fill="none" xmlns="http://www.w3.org/2000/svg">
<path d="M9.99999 14.5832C10.4722 14.5832 10.9167 14.4965 11.3333 14.3232C11.75 14.1498 12.1389 13.9032 12.5 13.5832C12.625 13.4721 12.6875 13.3262 12.6875 13.1457C12.6875 12.9651 12.625 12.8193 12.5 12.7082C12.375 12.5971 12.2258 12.5415 12.0525 12.5415C11.8792 12.5415 11.7228 12.5971 11.5833 12.7082C11.3472 12.8887 11.0972 13.0346 10.8333 13.1457C10.5694 13.2568 10.2917 13.3123 9.99999 13.3123C9.70832 13.3123 9.43055 13.2568 9.16666 13.1457C8.90277 13.0346 8.65277 12.8887 8.41666 12.7082C8.27777 12.5971 8.12166 12.5415 7.94832 12.5415C7.77499 12.5415 7.62555 12.5971 7.49999 12.7082C7.37444 12.8193 7.31193 12.9651 7.31249 13.1457C7.31305 13.3262 7.37555 13.4721 7.49999 13.5832C7.8611 13.8887 8.24999 14.1318 8.66666 14.3123C9.08332 14.4929 9.52777 14.5832 9.99999 14.5832ZM9.99999 18.3332C8.84721 18.3332 7.76388 18.1143 6.74999 17.6765C5.7361 17.2387 4.85416 16.6451 4.10416 15.8957C3.35416 15.1462 2.76055 14.2643 2.32332 13.2498C1.8861 12.2354 1.66721 11.1521 1.66666 9.99984C1.6661 8.84762 1.88499 7.76428 2.32332 6.74984C2.76166 5.73539 3.35527 4.85345 4.10416 4.104C4.85305 3.35456 5.73499 2.76095 6.74999 2.32317C7.76499 1.88539 8.84832 1.6665 9.99999 1.6665C11.1517 1.6665 12.235 1.88539 13.25 2.32317C14.265 2.76095 15.1469 3.35456 15.8958 4.104C16.6447 4.85345 17.2386 5.73539 17.6775 6.74984C18.1164 7.76428 18.335 8.84762 18.3333 9.99984C18.3317 11.1521 18.1128 12.2354 17.6767 13.2498C17.2405 14.2643 16.6469 15.1462 15.8958 15.8957C15.1447 16.6451 14.2628 17.239 13.25 17.6773C12.2372 18.1157 11.1539 18.3343 9.99999 18.3332ZM7.08332 9.99984C7.55555 9.99984 7.97221 9.84706 8.33332 9.5415C8.69444 9.23595 8.97221 8.86095 9.16666 8.4165C9.2361 8.26373 9.22555 8.11789 9.13499 7.979C9.04444 7.84012 8.9161 7.74984 8.74999 7.70817C8.59721 7.6665 8.44444 7.684 8.29166 7.76067C8.13888 7.83734 8.02777 7.95178 7.95832 8.104C7.8611 8.28456 7.73971 8.43734 7.59416 8.56234C7.4486 8.68734 7.27832 8.74984 7.08332 8.74984C6.88832 8.74984 6.71471 8.684 6.56249 8.55234C6.41027 8.42067 6.29221 8.26428 6.20832 8.08317C6.13888 7.93039 6.02777 7.81928 5.87499 7.74984C5.72221 7.68039 5.56944 7.6665 5.41666 7.70817C5.24999 7.74984 5.12166 7.83678 5.03166 7.969C4.94166 8.10123 4.9311 8.24345 4.99999 8.39567C5.19444 8.84012 5.46888 9.21873 5.82332 9.5315C6.17777 9.84428 6.59777 10.0004 7.08332 9.99984ZM12.9167 9.99984C13.3889 9.99984 13.8055 9.84706 14.1667 9.5415C14.5278 9.23595 14.8055 8.86095 15 8.4165C15.0694 8.26373 15.0589 8.11789 14.9683 7.979C14.8778 7.84012 14.7494 7.74984 14.5833 7.70817C14.4305 7.6665 14.2778 7.684 14.125 7.76067C13.9722 7.83734 13.8611 7.95178 13.7917 8.104C13.6944 8.28456 13.573 8.43734 13.4275 8.56234C13.2819 8.68734 13.1117 8.74984 12.9167 8.74984C12.7217 8.74984 12.548 8.684 12.3958 8.55234C12.2436 8.42067 12.1255 8.26428 12.0417 8.08317C11.9722 7.93039 11.8611 7.81928 11.7083 7.74984C11.5555 7.68039 11.4028 7.6665 11.25 7.70817C11.0833 7.74984 10.9547 7.83678 10.8642 7.969C10.7736 8.10123 10.7633 8.24345 10.8333 8.39567C11.0278 8.84012 11.3022 9.21873 11.6567 9.5315C12.0111 9.84428 12.4311 10.0004 12.9167 9.99984Z" fill="#575FFF"/>
</svg>
