<svg width="24" height="24" viewBox="0 0 24 24" fill="none" xmlns="http://www.w3.org/2000/svg">
<path fill-rule="evenodd" clip-rule="evenodd" d="M5.669 4.76025C5.696 4.53319 5.77561 4.31556 5.90148 4.12467C6.02735 3.93377 6.19602 3.77487 6.39408 3.6606C6.59214 3.54632 6.81412 3.47983 7.04239 3.4664C7.27065 3.45298 7.49891 3.49299 7.709 3.58325C8.771 4.03725 11.151 5.11625 14.171 6.85925C17.192 8.60325 19.317 10.1263 20.24 10.8173C21.028 11.4083 21.03 12.5803 20.241 13.1733C19.327 13.8603 17.228 15.3633 14.171 17.1293C11.111 18.8953 8.759 19.9613 7.707 20.4093C6.80099 20.7963 5.787 20.2093 5.669 19.2323C5.531 18.0903 5.27299 15.4973 5.27299 11.9953C5.27299 8.49525 5.53 5.90325 5.669 4.76025Z" fill="#575FFF"/>
</svg>
