<svg width="20" height="20" viewBox="0 0 20 20" fill="none" xmlns="http://www.w3.org/2000/svg">
<path d="M7.915 4.82761C9.09834 3.24094 10.8775 2.77761 12.5142 3.22344C14.2808 3.70428 15.8342 5.22178 16.35 7.33511C16.3767 7.44344 16.3997 7.55178 16.4192 7.66011C15.6745 7.39477 14.8646 7.37433 14.1075 7.60178C13.035 6.80844 11.7067 6.67511 10.5258 7.11011C9.04667 7.65594 7.89167 9.04011 7.62417 10.7818C7.2825 13.0118 8.64084 15.0151 10.5617 16.7184L10.885 16.9984C10.6242 17.0168 10.3592 16.9759 10.1058 16.9218C9.97566 16.8938 9.84618 16.8627 9.7175 16.8284L9.27 16.7034C5.29167 15.5843 2.62834 13.8334 1.86417 11.2168C1.25417 9.12844 1.84084 7.03761 3.13084 5.73761C4.32584 4.53344 6.0975 4.04511 7.915 4.82761ZM9.27167 11.0343C9.62834 8.70761 12.3192 7.56094 13.7008 9.55761C13.7141 9.57617 13.7341 9.58876 13.7566 9.59266C13.779 9.59656 13.8021 9.59145 13.8208 9.57844C15.8017 8.17511 17.9375 10.1726 17.4767 12.4809C17.21 13.8198 15.9683 14.9309 13.7517 15.8143L13.3892 15.9559L13.17 16.0459C12.9808 16.1201 12.7808 16.1793 12.6 16.1476C12.42 16.1159 12.2525 15.9909 12.1 15.8576L11.8417 15.6243C9.91389 13.9654 9.05723 12.4354 9.27167 11.0343Z" fill="#575FFF"/>
</svg>
