<svg width="9" height="9" viewBox="0 0 9 9" fill="none" xmlns="http://www.w3.org/2000/svg">
<path d="M3.04175 7.04167V1.26389L8.37508 0.375V6.15278" stroke="white" stroke-width="0.75" stroke-linecap="round" stroke-linejoin="round"/>
<path d="M1.70833 8.37498C2.44471 8.37498 3.04167 7.77803 3.04167 7.04165C3.04167 6.30527 2.44471 5.70831 1.70833 5.70831C0.971954 5.70831 0.375 6.30527 0.375 7.04165C0.375 7.77803 0.971954 8.37498 1.70833 8.37498Z" stroke="white" stroke-width="0.75" stroke-linecap="round" stroke-linejoin="round"/>
<path d="M7.04159 7.48612C7.77797 7.48612 8.37492 6.88917 8.37492 6.15279C8.37492 5.41641 7.77797 4.81946 7.04159 4.81946C6.30521 4.81946 5.70825 5.41641 5.70825 6.15279C5.70825 6.88917 6.30521 7.48612 7.04159 7.48612Z" stroke="white" stroke-width="0.75" stroke-linecap="round" stroke-linejoin="round"/>
</svg>
