<svg width="17" height="15" viewBox="0 0 17 15" fill="none" xmlns="http://www.w3.org/2000/svg">
<path fill-rule="evenodd" clip-rule="evenodd" d="M16 6.02474H2.367C3.273 4.60574 5.694 2.86874 7.524 1.87974C8.011 1.61774 8.191 1.01074 7.93 0.525741C7.667 0.0407411 7.062 -0.143259 6.575 0.120741C5.478 0.711741 0.005 3.82474 0 7.02274C0 7.02374 0 7.02374 0 7.02474V7.02674C0 10.2237 5.478 13.3367 6.575 13.9287C6.727 14.0107 6.889 14.0487 7.049 14.0487C7.404 14.0487 7.749 13.8587 7.93 13.5237C8.191 13.0387 8.011 12.4307 7.524 12.1697C5.693 11.1797 3.27 9.44274 2.365 8.02474H16C16.553 8.02474 17 7.57774 17 7.02474C17 6.47174 16.553 6.02474 16 6.02474Z" fill="white"/>
</svg>
