<svg width="27" height="24" viewBox="0 0 27 24" fill="none" xmlns="http://www.w3.org/2000/svg">
<path d="M20.4 0H6C4.40888 0.000572495 2.88309 0.632897 1.75799 1.75799C0.632897 2.88309 0.000572495 4.40888 0 6V18C0.000572495 19.5911 0.632897 21.1169 1.75799 22.242C2.88309 23.3671 4.40888 23.9994 6 24H20.4C21.9911 23.9994 23.5169 23.3671 24.642 22.242C25.7671 21.1169 26.3994 19.5911 26.4 18V6C26.3994 4.40888 25.7671 2.88309 24.642 1.75799C23.5169 0.632897 21.9911 0.000572495 20.4 0ZM7.32 16.8H9.66C9.79622 18.2872 10.1858 19.7402 10.812 21.096C9.92895 20.7112 9.15102 20.1202 8.54344 19.3728C7.93586 18.6253 7.51632 17.743 7.32 16.8ZM9.66 14.4H7.32C7.51632 13.457 7.93586 12.5747 8.54344 11.8272C9.15102 11.0798 9.92895 10.4888 10.812 10.104C10.19 11.4613 9.80056 12.9136 9.66 14.4ZM13.2 20.52C12.6079 19.3561 12.226 18.0967 12.072 16.8H14.328C14.174 18.0967 13.7921 19.3561 13.2 20.52ZM12.072 14.4C12.222 13.0986 12.6041 11.8346 13.2 10.668C13.7959 11.8346 14.178 13.0986 14.328 14.4H12.072ZM15.588 21.096C16.2142 19.7402 16.6038 18.2872 16.74 16.8H19.08C18.8858 17.7439 18.4671 18.6272 17.8593 19.375C17.2514 20.1228 16.4723 20.7131 15.588 21.096ZM19.08 14.4H16.74C16.5994 12.9136 16.21 11.4613 15.588 10.104C16.471 10.4888 17.249 11.0798 17.8566 11.8272C18.4641 12.5747 18.8837 13.457 19.08 14.4ZM24 7.2H2.4V6C2.40279 5.04608 2.78296 4.13202 3.45749 3.45749C4.13202 2.78297 5.04608 2.40279 6 2.4H20.4C21.3539 2.40279 22.268 2.78297 22.9425 3.45749C23.617 4.13202 23.9972 5.04608 24 6V7.2Z" fill="url(#paint0_linear_426_1023)"/>
<path d="M4.80034 6.0001H6.00034C6.3186 6.0001 6.62383 5.87367 6.84887 5.64863C7.07391 5.42358 7.20034 5.11836 7.20034 4.8001C7.20034 4.48184 7.07391 4.17661 6.84887 3.95157C6.62383 3.72653 6.3186 3.6001 6.00034 3.6001H4.80034C4.48208 3.6001 4.17686 3.72653 3.95181 3.95157C3.72677 4.17661 3.60034 4.48184 3.60034 4.8001C3.60034 5.11836 3.72677 5.42358 3.95181 5.64863C4.17686 5.87367 4.48208 6.0001 4.80034 6.0001Z" fill="#C5BBFF"/>
<path d="M9.5999 6.0001H10.7999C11.1182 6.0001 11.4234 5.87367 11.6484 5.64863C11.8735 5.42358 11.9999 5.11836 11.9999 4.8001C11.9999 4.48184 11.8735 4.17661 11.6484 3.95157C11.4234 3.72653 11.1182 3.6001 10.7999 3.6001H9.5999C9.28164 3.6001 8.97642 3.72653 8.75137 3.95157C8.52633 4.17661 8.3999 4.48184 8.3999 4.8001C8.3999 5.11836 8.52633 5.42358 8.75137 5.64863C8.97642 5.87367 9.28164 6.0001 9.5999 6.0001Z" fill="#C5BBFF"/>
<path d="M14.4002 6.0001H15.6002C15.9185 6.0001 16.2237 5.87367 16.4487 5.64863C16.6738 5.42358 16.8002 5.11836 16.8002 4.8001C16.8002 4.48184 16.6738 4.17661 16.4487 3.95157C16.2237 3.72653 15.9185 3.6001 15.6002 3.6001H14.4002C14.0819 3.6001 13.7767 3.72653 13.5517 3.95157C13.3266 4.17661 13.2002 4.48184 13.2002 4.8001C13.2002 5.11836 13.3266 5.42358 13.5517 5.64863C13.7767 5.87367 14.0819 6.0001 14.4002 6.0001Z" fill="#C5BBFF"/>
<defs>
<linearGradient id="paint0_linear_426_1023" x1="13.2" y1="0" x2="13.2" y2="24" gradientUnits="userSpaceOnUse">
<stop stop-color="#555DFF"/>
<stop offset="1" stop-color="#333899"/>
</linearGradient>
</defs>
</svg>
