<svg width="30" height="30" viewBox="0 0 30 30" fill="none" xmlns="http://www.w3.org/2000/svg">
<mask id="mask0_426_1012" style="mask-type:alpha" maskUnits="userSpaceOnUse" x="0" y="0" width="30" height="30">
<rect width="30" height="30" fill="#D9D9D9"/>
</mask>
<g mask="url(#mask0_426_1012)">
<path d="M17.6361 1.81812C17.5698 1.84208 17.5042 1.86883 17.4395 1.89838L11.4846 4.61628V24.6054C11.5509 24.5815 11.6166 24.5547 11.6813 24.5252L15.3833 22.8355C14.8938 21.7659 14.5604 20.5823 14.5604 19.3346C14.5604 16.8406 15.7786 14.6551 17.6361 13.306V1.81812Z" fill="url(#paint0_linear_426_1012)"/>
<path d="M27.3029 14.0537C25.9459 12.7063 24.0763 11.8793 22.0302 11.8793C21.1049 11.8793 20.2158 12.0484 19.3938 12.3583V1.81812C19.4601 1.84208 19.5257 1.86883 19.5905 1.89838L25.742 4.70606C26.6969 5.14189 27.3029 6.10858 27.3029 7.16501V14.0537Z" fill="url(#paint1_linear_426_1012)"/>
<path d="M9.72696 24.6054V4.61628L5.5297 2.70056C3.76575 1.89546 1.81787 3.23065 1.81787 5.15951V19.2585C1.81787 20.3149 2.42386 21.2816 3.37877 21.7175L9.53029 24.5252C9.59502 24.5547 9.66066 24.5814 9.72696 24.6054Z" fill="url(#paint2_linear_426_1012)"/>
<path fill-rule="evenodd" clip-rule="evenodd" d="M25.3259 25.4968C24.6359 26.2884 23.9485 26.9438 23.4345 27.4009C22.2656 28.4405 21.798 28.4434 20.6258 27.4009C20.1118 26.9438 19.4245 26.2884 18.7344 25.4968C17.3933 23.958 15.8787 21.7212 15.8787 19.3345C15.8787 15.9379 18.6478 13.2117 22.0302 13.2117C25.4126 13.2117 28.1817 15.9379 28.1817 19.3345C28.1817 21.7212 26.6671 23.958 25.3259 25.4968ZM22.0302 16.6876C20.5925 16.6876 19.3938 17.8451 19.3938 19.3138C19.3938 20.7825 20.5925 21.94 22.0302 21.94C23.4679 21.94 24.6665 20.7825 24.6665 19.3138C24.6665 17.8451 23.4679 16.6876 22.0302 16.6876Z" fill="#C5BBFF"/>
</g>
<defs>
<linearGradient id="paint0_linear_426_1012" x1="14.5604" y1="1.81812" x2="14.5604" y2="24.6054" gradientUnits="userSpaceOnUse">
<stop stop-color="#555DFF"/>
<stop offset="1" stop-color="#333899"/>
</linearGradient>
<linearGradient id="paint1_linear_426_1012" x1="23.3483" y1="1.81812" x2="23.3483" y2="14.0537" gradientUnits="userSpaceOnUse">
<stop stop-color="#555DFF"/>
<stop offset="1" stop-color="#333899"/>
</linearGradient>
<linearGradient id="paint2_linear_426_1012" x1="5.77242" y1="2.46191" x2="5.77242" y2="24.6054" gradientUnits="userSpaceOnUse">
<stop stop-color="#555DFF"/>
<stop offset="1" stop-color="#333899"/>
</linearGradient>
</defs>
</svg>
