<svg width="13" height="12" viewBox="0 0 13 12" fill="none" xmlns="http://www.w3.org/2000/svg">
<path d="M12 0H1.00002C0.734801 0 0.480447 0.105357 0.292911 0.292893C0.105374 0.48043 1.74121e-05 0.734784 1.74121e-05 1V11C-0.0011125 11.1906 0.0527713 11.3775 0.155205 11.5382C0.257639 11.699 0.404273 11.8268 0.577518 11.9062C0.709904 11.9677 0.854058 11.9997 1.00002 12C1.23477 11.9994 1.46173 11.9157 1.64064 11.7638C1.64362 11.7618 1.64635 11.7595 1.64877 11.7569L3.65627 10H12C12.2652 10 12.5196 9.89464 12.7071 9.70711C12.8947 9.51957 13 9.26522 13 9V1C13 0.734784 12.8947 0.48043 12.7071 0.292893C12.5196 0.105357 12.2652 0 12 0ZM12 9H3.65627C3.42078 8.99989 3.19281 9.08289 3.01252 9.23438L3.00502 9.24125L1.00002 11V1H12V9ZM5.75002 5C5.75002 4.85166 5.794 4.70666 5.87642 4.58332C5.95883 4.45999 6.07596 4.36386 6.21301 4.30709C6.35005 4.25032 6.50085 4.23547 6.64634 4.26441C6.79182 4.29335 6.92546 4.36478 7.03035 4.46967C7.13524 4.57456 7.20667 4.7082 7.23561 4.85368C7.26455 4.99917 7.24969 5.14997 7.19293 5.28701C7.13616 5.42406 7.04003 5.54119 6.9167 5.6236C6.79336 5.70601 6.64835 5.75 6.50002 5.75C6.30111 5.75 6.11034 5.67098 5.96969 5.53033C5.82904 5.38968 5.75002 5.19891 5.75002 5ZM3.00002 5C3.00002 4.85166 3.044 4.70666 3.12642 4.58332C3.20883 4.45999 3.32596 4.36386 3.46301 4.30709C3.60005 4.25032 3.75085 4.23547 3.89634 4.26441C4.04182 4.29335 4.17546 4.36478 4.28035 4.46967C4.38524 4.57456 4.45667 4.7082 4.48561 4.85368C4.51455 4.99917 4.49969 5.14997 4.44293 5.28701C4.38616 5.42406 4.29003 5.54119 4.1667 5.6236C4.04336 5.70601 3.89835 5.75 3.75002 5.75C3.55111 5.75 3.36034 5.67098 3.21969 5.53033C3.07904 5.38968 3.00002 5.19891 3.00002 5ZM8.50002 5C8.50002 4.85166 8.54401 4.70666 8.62642 4.58332C8.70883 4.45999 8.82596 4.36386 8.96301 4.30709C9.10005 4.25032 9.25085 4.23547 9.39634 4.26441C9.54182 4.29335 9.67546 4.36478 9.78035 4.46967C9.88524 4.57456 9.95667 4.7082 9.98561 4.85368C10.0145 4.99917 9.99969 5.14997 9.94293 5.28701C9.88616 5.42406 9.79003 5.54119 9.6667 5.6236C9.54336 5.70601 9.39835 5.75 9.25002 5.75C9.05111 5.75 8.86034 5.67098 8.71969 5.53033C8.57904 5.38968 8.50002 5.19891 8.50002 5Z" fill="#19295C"/>
</svg>
