<svg width="77" height="77" viewBox="0 0 77 77" fill="none" xmlns="http://www.w3.org/2000/svg">
<path d="M11.1423 11.3858C-3.79484 26.4853 -3.71366 50.9206 11.3858 65.8577C26.4853 80.7948 50.9206 80.7137 65.8577 65.6142C80.7948 50.5146 80.7137 26.0794 65.6142 11.1423C50.5147 -3.79484 26.0794 -3.71366 11.1423 11.3858ZM57.2526 31.1126L36.3081 52.3006C34.5222 54.0866 31.5997 54.0866 29.8137 52.3006L29.0019 51.4888L26.5665 49.0534L19.7474 42.3155C17.9614 40.5295 17.9614 37.607 19.7474 35.8211C21.5334 34.0351 24.4558 34.0351 26.2418 35.8211L33.0609 42.559L50.7582 24.6994C52.5442 22.9134 55.4667 22.9134 57.2526 24.6994C59.0386 26.4042 59.0386 29.3266 57.2526 31.1126Z" fill="url(#paint0_linear_545_1766)"/>
<defs>
<linearGradient id="paint0_linear_545_1766" x1="38.5" y1="17.5" x2="44" y2="69" gradientUnits="userSpaceOnUse">
<stop stop-color="#D748EA"/>
<stop offset="0.997938" stop-color="#792984"/>
</linearGradient>
</defs>
</svg>
