<svg width="24" height="24" viewBox="0 0 24 24" fill="none" xmlns="http://www.w3.org/2000/svg">
<g clip-path="url(#clip0_426_1038)">
<path d="M8.69496 5.83312L7.34196 7.18612L1.92944 1.77361L3.28244 0.420607C3.84293 -0.139877 4.75193 -0.139877 5.31246 0.420607C8.88115 3.9893 8.70213 3.80995 8.70944 3.81811C9.25544 4.37962 9.25043 5.27761 8.69496 5.83312Z" fill="url(#paint0_linear_426_1038)"/>
<path d="M22.2264 22.0704L21.2114 23.0854C18.7829 25.5139 12.2704 22.9394 6.66538 17.3344C2.04838 12.7175 -0.512115 7.48497 0.0858694 4.42595C0.321323 3.22206 0.830854 2.87195 1.92937 1.77344L7.34189 7.18595C6.26859 8.25925 6.31101 8.21509 6.28837 8.24247C5.43238 9.21747 6.79335 12.05 9.37185 14.628C11.9873 17.244 14.8649 18.607 15.7988 17.673L16.8138 16.658L22.2264 22.0704Z" fill="url(#paint1_linear_426_1038)"/>
<path d="M23.5795 20.7174L22.2265 22.0704L16.814 16.6579L18.167 15.3049C18.7274 14.7444 19.6364 14.7444 20.197 15.3049C23.7657 18.8736 23.5867 18.6943 23.594 18.7024C24.14 19.2639 24.1349 20.1619 23.5795 20.7174Z" fill="url(#paint2_linear_426_1038)"/>
<path d="M8.70946 3.81793C8.07224 4.52692 6.79208 4.63604 5.98898 3.83293L2.92944 0.773449L3.28246 0.420434C3.84304 -0.140145 4.7519 -0.140145 5.31243 0.420434C8.88116 3.98912 8.7021 3.80978 8.70946 3.81793Z" fill="url(#paint3_linear_426_1038)"/>
<path d="M21.2114 21.0855C18.7829 23.514 12.2704 20.9395 6.66541 15.3345C2.94194 11.611 0.555953 7.48694 0.0859375 4.42595C0.321391 3.22206 0.830922 2.87195 1.92944 1.77344C2.4317 2.27575 6.83842 6.68242 7.34195 7.18595C6.26866 8.25925 6.31108 8.2151 6.28844 8.24247C5.43245 9.21747 6.79342 12.05 9.37192 14.628C11.9874 17.244 14.8649 18.607 15.7989 17.673L16.8139 16.658C21.5724 21.4164 21.2347 21.0622 21.2114 21.0855Z" fill="url(#paint4_linear_426_1038)"/>
<path d="M23.5939 18.7024C22.9523 19.4146 21.6738 19.5178 20.8734 18.7174L17.814 15.6579L18.167 15.3049C18.7276 14.7444 19.6364 14.7444 20.197 15.3049C23.7657 18.8736 23.5867 18.6943 23.5939 18.7024Z" fill="url(#paint5_linear_426_1038)"/>
<path d="M15.3 11.25C14.8858 11.25 14.55 10.9141 14.55 10.5C14.55 9.92095 14.079 9.44995 13.5 9.44995C13.0858 9.44995 12.75 9.11414 12.75 8.69995C12.75 8.28576 13.0858 7.94995 13.5 7.94995C14.9061 7.94995 16.05 9.09389 16.05 10.5C16.05 10.9141 15.7142 11.25 15.3 11.25Z" fill="#C5BBFF"/>
<path d="M18.9 11.2499C18.4858 11.2499 18.15 10.914 18.15 10.4999C18.15 7.93584 16.064 5.84985 13.5 5.84985C13.0858 5.84985 12.75 5.51404 12.75 5.09985C12.75 4.68567 13.0858 4.34985 13.5 4.34985C16.8911 4.34985 19.65 7.10873 19.65 10.4999C19.65 10.914 19.3142 11.2499 18.9 11.2499Z" fill="#C5BBFF"/>
<path d="M22.5 11.25C22.0858 11.25 21.75 10.9142 21.75 10.5C21.75 5.95092 18.0491 2.25 13.5 2.25C13.0858 2.25 12.75 1.91419 12.75 1.5C12.75 1.08581 13.0858 0.75 13.5 0.75C18.8761 0.75 23.25 5.12386 23.25 10.5C23.25 10.9142 22.9142 11.25 22.5 11.25Z" fill="#C5BBFF"/>
</g>
<defs>
<linearGradient id="paint0_linear_426_1038" x1="5.52236" y1="0.000244141" x2="5.52236" y2="7.18612" gradientUnits="userSpaceOnUse">
<stop stop-color="#575FFF"/>
<stop offset="1" stop-color="#343999"/>
</linearGradient>
<linearGradient id="paint1_linear_426_1038" x1="11.1132" y1="1.77344" x2="11.1132" y2="24" gradientUnits="userSpaceOnUse">
<stop stop-color="#575FFF"/>
<stop offset="1" stop-color="#343999"/>
</linearGradient>
<linearGradient id="paint2_linear_426_1038" x1="20.4069" y1="14.8845" x2="20.4069" y2="22.0704" gradientUnits="userSpaceOnUse">
<stop stop-color="#575FFF"/>
<stop offset="1" stop-color="#343999"/>
</linearGradient>
<linearGradient id="paint3_linear_426_1038" x1="5.81945" y1="0" x2="5.81945" y2="4.39342" gradientUnits="userSpaceOnUse">
<stop stop-color="#575FFF"/>
<stop offset="1" stop-color="#343999"/>
</linearGradient>
<linearGradient id="paint4_linear_426_1038" x1="10.6554" y1="1.77344" x2="10.6554" y2="22" gradientUnits="userSpaceOnUse">
<stop stop-color="#575FFF"/>
<stop offset="1" stop-color="#343999"/>
</linearGradient>
<linearGradient id="paint5_linear_426_1038" x1="20.7039" y1="14.8845" x2="20.7039" y2="19.278" gradientUnits="userSpaceOnUse">
<stop stop-color="#575FFF"/>
<stop offset="1" stop-color="#343999"/>
</linearGradient>
<clipPath id="clip0_426_1038">
<rect width="24" height="24" fill="white"/>
</clipPath>
</defs>
</svg>
