<svg width="35" height="28" viewBox="0 0 35 28" fill="none" xmlns="http://www.w3.org/2000/svg">
<path d="M7.77777 27.9998C8.74058 27.9971 9.67897 27.6966 10.4643 27.1397C11.2497 26.5827 11.8435 25.7964 12.1644 24.8887H3.39111C3.71204 25.7964 4.30589 26.5827 5.09123 27.1397C5.87658 27.6966 6.81497 27.9971 7.77777 27.9998Z" fill="url(#paint0_linear_426_767)"/>
<path d="M26.4443 27.9998C27.4071 27.9971 28.3455 27.6966 29.1308 27.1397C29.9162 26.5827 30.51 25.7964 30.8309 24.8887H22.0576C22.3785 25.7964 22.9724 26.5827 23.7577 27.1397C24.5431 27.6966 25.4815 27.9971 26.4443 27.9998Z" fill="url(#paint1_linear_426_767)"/>
<path d="M33.522 9.59772L28.8553 6.48661C28.6022 6.31651 28.3047 6.22455 27.9998 6.22217H24.8887V21.7777H32.6664C33.079 21.7777 33.4747 21.6138 33.7664 21.3221C34.0581 21.0304 34.222 20.6347 34.222 20.2221V10.8888C34.2207 10.6326 34.1561 10.3807 34.034 10.1555C33.9118 9.93022 33.736 9.73863 33.522 9.59772Z" fill="#C5BBFF"/>
<path d="M0 1.55555V20.2222C0 20.6348 0.163888 21.0304 0.455611 21.3221C0.747334 21.6139 1.14299 21.7777 1.55555 21.7777H21.7777V0H1.55555C1.14299 0 0.747334 0.163888 0.455611 0.455611C0.163888 0.747334 0 1.14299 0 1.55555ZM8.55554 6.22221H16.3333V9.33332H8.55554V6.22221ZM5.44444 12.4444H16.3333V15.5555H5.44444V12.4444Z" fill="url(#paint2_linear_426_767)"/>
<defs>
<linearGradient id="paint0_linear_426_767" x1="7.77777" y1="24.8887" x2="7.77777" y2="27.9998" gradientUnits="userSpaceOnUse">
<stop stop-color="#555DFF"/>
<stop offset="1" stop-color="#333899"/>
</linearGradient>
<linearGradient id="paint1_linear_426_767" x1="26.4443" y1="24.8887" x2="26.4443" y2="27.9998" gradientUnits="userSpaceOnUse">
<stop stop-color="#555DFF"/>
<stop offset="1" stop-color="#333899"/>
</linearGradient>
<linearGradient id="paint2_linear_426_767" x1="10.8889" y1="0" x2="10.8889" y2="21.7777" gradientUnits="userSpaceOnUse">
<stop stop-color="#555DFF"/>
<stop offset="1" stop-color="#333899"/>
</linearGradient>
</defs>
</svg>
