<svg width="29" height="34" viewBox="0 0 29 34" fill="none" xmlns="http://www.w3.org/2000/svg">
<path d="M14.1665 34C14.0419 34 13.9172 33.983 13.7954 33.9505C13.6565 33.9122 0 30.049 0 16.894V6.26763C0 5.67972 0.362663 5.15272 0.913742 4.94306L13.6636 0.0924367C13.988 -0.0308122 14.3465 -0.0308122 14.6709 0.0924367L27.4208 4.94306C27.9704 5.15272 28.3331 5.67972 28.3331 6.26763V16.894C28.3331 30.0504 14.6765 33.9136 14.5377 33.9505C14.4159 33.983 14.2912 34 14.1665 34ZM2.83331 7.24371V16.894C2.83331 26.8771 12.1322 30.4428 14.1665 31.103C16.2009 30.4428 25.4998 26.8771 25.4998 16.894V7.24371L14.1665 2.93283L2.83331 7.24371Z" fill="#C5BBFF"/>
<path d="M14.5206 25.5003H13.8123C12.4452 25.5003 11.3331 24.3883 11.3331 23.0212V19.8337H8.14565C6.77858 19.8337 5.6665 18.7216 5.6665 17.3546V16.6462C5.6665 15.2792 6.77858 14.1671 8.14565 14.1671H11.3331V10.9796C11.3331 9.61256 12.4452 8.50049 13.8123 8.50049H14.5206C15.8877 8.50049 16.9997 9.61256 16.9997 10.9796V14.1671H20.1872C21.5543 14.1671 22.6663 15.2792 22.6663 16.6462V17.3546C22.6663 18.7216 21.5543 19.8337 20.1872 19.8337H16.9997V23.0212C16.9997 24.3883 15.8877 25.5003 14.5206 25.5003Z" fill="url(#paint0_linear_426_762)"/>
<defs>
<linearGradient id="paint0_linear_426_762" x1="14.1664" y1="8.50049" x2="14.1664" y2="25.5003" gradientUnits="userSpaceOnUse">
<stop stop-color="#555DFF"/>
<stop offset="1" stop-color="#333899"/>
</linearGradient>
</defs>
</svg>
