<svg width="34" height="34" viewBox="0 0 34 34" fill="none" xmlns="http://www.w3.org/2000/svg">
<path d="M21.2037 23.3585V22.9106C23.2561 21.5223 24.5092 19.1904 24.5092 16.691C24.5092 12.5528 21.1426 9.18604 17.0043 9.18604C12.866 9.18604 9.49951 12.5528 9.49951 16.691C9.49951 19.1893 10.7517 21.5201 12.8024 22.9088V23.359C12.1153 23.4797 11.5914 24.0805 11.5914 24.8017V26.2006H22.4175V24.8017C22.4175 24.0795 21.8922 23.4782 21.2037 23.3585Z" fill="#C5BBFF"/>
<path d="M30.1355 5.40452H32.468C33.3149 5.40452 34.004 4.71547 34.004 3.86849V1.53603C34.004 0.689047 33.315 0 32.468 0H30.1355C29.2886 0 28.5995 0.689047 28.5995 1.53603V1.70625H19.7067V1.53603C19.7067 0.689047 19.0176 0 18.1706 0H15.8382C14.9913 0 14.3021 0.689047 14.3021 1.53603V1.70625H5.43766V1.53603C5.43766 0.689047 4.74861 0 3.90163 0H1.56917C0.722187 0 0.0331406 0.689047 0.0331406 1.53603V3.86849C0.0331406 4.71547 0.722187 5.40452 1.56917 5.40452H3.90163C4.74861 5.40452 5.43766 4.71547 5.43766 3.86849V3.69827H9.46607C5.1028 6.18634 2.12074 10.7544 1.78143 15.974H1.53603C0.689047 15.974 0 16.6631 0 17.51V19.927C0 20.774 0.689047 21.463 1.53603 21.463H3.95297C4.79988 21.463 5.48899 20.7739 5.48899 19.927V17.51C5.48899 16.6631 4.79995 15.974 3.95297 15.974H3.77837C4.21936 10.0809 8.53514 5.16808 14.3062 3.97429C14.3608 4.77205 15.0269 5.40452 15.8382 5.40452H18.1706C18.9824 5.40452 19.6487 4.77146 19.7027 3.97316C25.4722 5.16888 29.7841 10.0776 30.2245 15.9717H30.0498C29.2029 15.9717 28.5138 16.6608 28.5138 17.5078V19.9246C28.5138 20.7715 29.2028 21.4607 30.0498 21.4607H32.4667C33.3137 21.4607 34.0028 20.7715 34.0028 19.9246V17.5078C34.0028 16.6608 33.3137 15.9717 32.4667 15.9717H32.2213C31.8825 10.7513 28.9034 6.18608 24.5424 3.69834H28.5994V3.86856C28.5995 4.71547 29.2886 5.40452 30.1355 5.40452Z" fill="url(#paint0_linear_426_775)"/>
<path d="M22.4172 28.1924H11.5911V29.0663H22.4172V28.1924Z" fill="url(#paint1_linear_426_775)"/>
<path d="M11.5913 31.0586V32.5347C11.5913 33.3426 12.2485 33.9998 13.0564 33.9998H20.9523C21.7602 33.9998 22.4174 33.3426 22.4174 32.5347V31.0586H11.5913Z" fill="url(#paint2_linear_426_775)"/>
<defs>
<linearGradient id="paint0_linear_426_775" x1="17.002" y1="0" x2="17.002" y2="21.463" gradientUnits="userSpaceOnUse">
<stop stop-color="#555DFF"/>
<stop offset="1" stop-color="#333899"/>
</linearGradient>
<linearGradient id="paint1_linear_426_775" x1="17.0041" y1="28.1924" x2="17.0041" y2="29.0663" gradientUnits="userSpaceOnUse">
<stop stop-color="#555DFF"/>
<stop offset="1" stop-color="#333899"/>
</linearGradient>
<linearGradient id="paint2_linear_426_775" x1="17.0044" y1="31.0586" x2="17.0044" y2="33.9998" gradientUnits="userSpaceOnUse">
<stop stop-color="#555DFF"/>
<stop offset="1" stop-color="#333899"/>
</linearGradient>
</defs>
</svg>
