<svg width="35" height="35" viewBox="0 0 35 35" fill="none" xmlns="http://www.w3.org/2000/svg">
<path d="M34.4332 9.77805L17.9586 1.57492C17.6702 1.43075 17.3298 1.43075 17.0414 1.57492L0.566768 9.77805C0.219297 9.9523 0 10.3067 0 10.6953C0 11.0839 0.219297 11.4383 0.566768 11.6125L17.0414 19.8157C17.1855 19.8878 17.3428 19.9238 17.5 19.9238C17.6572 19.9238 17.8145 19.8878 17.9586 19.8157L34.4332 11.6125C34.7807 11.4383 35 11.0839 35 10.6953C35 10.3067 34.7807 9.9523 34.4332 9.77805Z" fill="url(#paint0_linear_426_741)"/>
<path d="M32.9492 26.2654V14.6479L30.8984 15.6733V26.2654C29.7075 26.6901 28.8477 27.8176 28.8477 29.1526V31.2034C28.8477 31.7702 29.3063 32.2288 29.873 32.2288H33.9746C34.5414 32.2288 35 31.7702 35 31.2034V29.1526C35 27.8176 34.1402 26.6901 32.9492 26.2654Z" fill="url(#paint1_linear_426_741)"/>
<path d="M18.8759 21.6505C18.4513 21.8627 17.9756 21.9749 17.5 21.9749C17.0244 21.9749 16.5487 21.8627 16.1241 21.6505L6.15234 16.6987V18.8987C6.15234 22.9232 11.1754 26.0765 17.5 26.0765C23.8246 26.0765 28.8477 22.9232 28.8477 18.8987V16.6987L18.8759 21.6505Z" fill="#C5BBFF"/>
<defs>
<linearGradient id="paint0_linear_426_741" x1="17.5" y1="1.4668" x2="17.5" y2="19.9238" gradientUnits="userSpaceOnUse">
<stop stop-color="#555DFF"/>
<stop offset="1" stop-color="#333899"/>
</linearGradient>
<linearGradient id="paint1_linear_426_741" x1="31.9238" y1="14.6479" x2="31.9238" y2="32.2288" gradientUnits="userSpaceOnUse">
<stop stop-color="#555DFF"/>
<stop offset="1" stop-color="#333899"/>
</linearGradient>
</defs>
</svg>
