<svg width="31" height="32" viewBox="0 0 31 32" fill="none" xmlns="http://www.w3.org/2000/svg">
<path d="M29.5019 29.3613V30.2579C29.5019 31.22 28.7219 32 27.7598 32H6.97143C6.00925 32 5.22925 31.22 5.22925 30.2579V29.3613H29.5019Z" fill="#C5BBFF"/>
<path d="M30.9823 26.0535C30.9823 25.2969 30.369 24.6836 29.6123 24.6836H5.11872C4.36211 24.6836 3.74878 25.2969 3.74878 26.0535C3.74878 26.8102 4.36211 27.4235 5.11872 27.4235H29.6123C30.369 27.4234 30.9823 26.8101 30.9823 26.0535Z" fill="#C5BBFF"/>
<path d="M29.4273 22.7452C29.3027 20.4599 27.4436 18.6143 25.1543 18.5106C24.7766 18.4934 24.4088 18.5233 24.056 18.5945C23.2325 18.761 22.3801 18.5166 21.7936 17.9149C20.6704 16.7628 19.1015 16.0474 17.3655 16.0474C15.6294 16.0474 14.0606 16.7628 12.9374 17.9149C12.3509 18.5165 11.4985 18.761 10.675 18.5945C10.3222 18.5232 9.95432 18.4934 9.5766 18.5106C7.28737 18.6144 5.42833 20.46 5.30371 22.7452H29.4273Z" fill="url(#paint0_linear_426_718)"/>
<path d="M3.33442 23.2702L3.36879 22.6398C3.45529 21.0536 4.12837 19.5599 5.26407 18.4338C6.40055 17.3069 7.90098 16.6466 9.48896 16.5746C9.58709 16.5702 9.68658 16.5679 9.78471 16.5679C10.2129 16.5679 10.6417 16.6107 11.0591 16.695C11.1005 16.7034 11.1424 16.7076 11.1835 16.7076C11.2674 16.7076 11.4266 16.6888 11.5499 16.5621C12.298 15.7949 13.1745 15.1917 14.1552 14.7692C14.2461 14.7301 14.3377 14.6933 14.4296 14.6576L14.7484 10.8349H15.3742L14.3408 6.85444H8.65611V4.10809C8.65611 3.05857 7.99821 2.09969 7.01904 1.72196L2.55493 0L1.85743 1.8082L6.3216 3.5301C6.55875 3.62164 6.71813 3.85388 6.71813 4.10802V6.8545H1.03343L0 10.835H0.625862L1.85226 25.5411C2.0011 24.5896 2.55577 23.7712 3.33442 23.2702Z" fill="url(#paint1_linear_426_718)"/>
<defs>
<linearGradient id="paint0_linear_426_718" x1="17.3655" y1="16.0474" x2="17.3655" y2="22.7452" gradientUnits="userSpaceOnUse">
<stop stop-color="#555DFF"/>
<stop offset="1" stop-color="#333899"/>
</linearGradient>
<linearGradient id="paint1_linear_426_718" x1="7.68712" y1="0" x2="7.68712" y2="25.5411" gradientUnits="userSpaceOnUse">
<stop stop-color="#555DFF"/>
<stop offset="1" stop-color="#333899"/>
</linearGradient>
</defs>
</svg>
