<svg width="28" height="26" viewBox="0 0 28 26" fill="none" xmlns="http://www.w3.org/2000/svg">
<path d="M26.7737 8.53173C26.7578 8.43312 26.7419 8.33239 26.7255 8.22795L26.7191 8.18925C26.5166 6.92961 25.846 5.68376 24.8684 4.66215C23.8908 3.64055 22.6518 2.8994 21.38 2.63485C21.072 2.57124 20.73 2.50815 20.3658 2.44983C20.3517 2.17415 20.3366 1.8983 20.3207 1.62226C20.2794 0.922994 19.7201 0.296885 19.0765 0.24387C18.4329 0.190855 17.9335 0.728958 17.9578 1.44095C17.9663 1.67528 17.9746 1.90978 17.9828 2.14446C16.959 2.04373 15.8622 1.97481 14.761 1.94619C14.7589 1.73625 14.757 1.52595 14.7552 1.31531C14.7467 0.5943 14.2171 0 13.573 0C12.9288 0 12.3992 0.5943 12.3907 1.31106C12.3907 1.52313 12.3888 1.73342 12.3849 1.94195C11.2811 1.97057 10.1779 2.04002 9.15097 2.14128C9.15874 1.90696 9.16705 1.67227 9.17589 1.43724C9.20027 0.725778 8.69875 0.183432 8.05727 0.240689C7.41578 0.297945 6.85435 0.922464 6.813 1.62173C6.79568 1.89812 6.78031 2.17415 6.76688 2.44983C6.40637 2.50921 6.07026 2.57124 5.76648 2.63432C4.49412 2.8994 3.25674 3.64161 2.27755 4.66162C1.29836 5.68163 0.628782 6.92961 0.428385 8.18925C0.428385 8.20197 0.424144 8.2147 0.422553 8.22742C0.405588 8.33345 0.389684 8.43312 0.373779 8.53173C9.1618 7.88275 17.9857 7.88275 26.7737 8.53173Z" fill="#C5BBFF"/>
<path d="M27.0213 10.3619C18.0755 9.96531 9.07033 9.96531 0.12455 10.3619C0.049799 11.1444 -0.00851764 12.1336 0.00102509 13.7278C0.0466181 16.923 0.270342 17.9685 0.531177 19.5155C0.531177 19.5282 0.535948 19.5414 0.538069 19.5542C0.761793 20.8202 1.44834 22.0846 2.42859 23.1311C3.40884 24.1776 4.6372 24.9432 5.89101 25.2278C7.73647 25.6562 10.7493 26.0119 13.575 25.9997C16.4007 26.0119 19.4131 25.6562 21.259 25.2278C22.5129 24.9432 23.7391 24.1744 24.7215 23.1311C25.7038 22.0878 26.3888 20.8202 26.612 19.5542C26.612 19.5409 26.6162 19.5282 26.6189 19.5149C26.8776 17.968 27.1013 16.922 27.1453 13.7278C27.1543 12.1336 27.096 11.1444 27.0213 10.3619ZM17.5347 16.711L16.3684 18.2277C16.2905 18.3293 16.2499 18.4545 16.2534 18.5824L16.3064 20.4941C16.3088 20.5844 16.2891 20.674 16.2492 20.755C16.2093 20.8361 16.1503 20.9062 16.0773 20.9593C16.0042 21.0125 15.9194 21.0471 15.83 21.0602C15.7406 21.0732 15.6494 21.0644 15.5642 21.0343L13.7616 20.3945C13.6415 20.3523 13.5106 20.3523 13.3905 20.3945L11.588 21.0343C11.5028 21.0644 11.4116 21.0732 11.3222 21.0602C11.2328 21.0471 11.1479 21.0125 11.0749 20.9593C11.0019 20.9062 10.9428 20.8361 10.9029 20.755C10.863 20.674 10.8434 20.5844 10.8458 20.4941L10.8988 18.5824C10.9023 18.4545 10.8616 18.3293 10.7838 18.2277L9.61744 16.711C9.56236 16.6392 9.52558 16.5551 9.51026 16.466C9.49494 16.3769 9.50156 16.2853 9.52954 16.1993C9.55751 16.1133 9.60601 16.0354 9.67083 15.9723C9.73565 15.9092 9.81486 15.8629 9.90161 15.8373L11.7359 15.2949C11.8586 15.2587 11.9651 15.1814 12.0376 15.076L13.1196 13.4988C13.1709 13.4242 13.2395 13.3632 13.3196 13.3211C13.3997 13.279 13.4888 13.2569 13.5793 13.2569C13.6698 13.2569 13.7589 13.279 13.839 13.3211C13.919 13.3632 13.9877 13.4242 14.0389 13.4988L15.121 15.076C15.1934 15.1814 15.2999 15.2587 15.4226 15.2949L17.2569 15.8373C17.3431 15.8636 17.4217 15.9105 17.4858 15.9739C17.5499 16.0373 17.5976 16.1153 17.625 16.2013C17.6523 16.2872 17.6583 16.3784 17.6426 16.4672C17.6269 16.556 17.5899 16.6396 17.5347 16.711Z" fill="url(#paint0_linear_426_754)"/>
<defs>
<linearGradient id="paint0_linear_426_754" x1="13.5731" y1="10.0645" x2="13.5731" y2="26.0001" gradientUnits="userSpaceOnUse">
<stop stop-color="#555DFF"/>
<stop offset="1" stop-color="#333899"/>
</linearGradient>
</defs>
</svg>
