<svg width="29" height="30" viewBox="0 0 29 30" fill="none" xmlns="http://www.w3.org/2000/svg">
<g clip-path="url(#clip0_426_728)">
<path d="M7.60328 19.3052C7.54603 18.7457 7.7232 18.1849 8.08933 17.7666C8.45673 17.3468 8.9825 17.1061 9.53189 17.1061C9.59782 17.1061 9.66453 17.1096 9.73019 17.1166C10.7265 17.2212 12.8125 17.5679 14.8419 18.7015C15.5024 16.5337 16.6855 14.8655 17.3006 14.0978C17.6709 13.6358 18.2168 13.3709 18.7986 13.3709C19.3805 13.3709 19.9265 13.6358 20.2966 14.0979C20.9107 14.8641 22.0908 16.5279 22.752 18.6904C23.4068 18.3264 24.067 18.0445 24.6943 17.8255C25.5763 16.1578 26.1273 14.2781 26.2556 12.2794C26.2871 11.7893 25.9047 11.3755 25.4272 11.3755H0.857357C0.379824 11.3755 -0.00251203 11.7893 0.0289068 12.2794C0.387513 17.8661 4.04609 22.5247 9.01812 24.2136C8.01858 22.2441 7.70207 20.2714 7.60328 19.3052Z" fill="url(#paint0_linear_426_728)"/>
<path d="M10.8808 26.8357C10.7226 26.6754 10.5719 26.511 10.4284 26.3435C9.33098 26.1341 8.2644 25.7988 7.24683 25.3442V27.6245C7.24683 28.0959 7.61832 28.478 8.07655 28.478H13.0291C12.2816 28.0476 11.5453 27.5094 10.8808 26.8357Z" fill="#C5BBFF"/>
<path d="M14.366 21.7762C14.366 21.3208 14.3984 20.8762 14.4569 20.4443C12.5152 19.2306 10.3722 18.8998 9.56138 18.8146C9.38404 18.7959 9.23508 18.9469 9.2535 19.1267C9.36042 20.1724 9.85925 23.4038 12.0455 25.6199C13.329 26.9209 14.9578 27.6323 16.2928 28.02C15.3822 26.5453 14.366 24.3285 14.366 21.7762Z" fill="#C5BBFF"/>
<path d="M28.0115 18.8145C27.2038 18.8994 25.0738 19.228 23.1379 20.4305C23.1975 20.8667 23.2309 21.3159 23.2309 21.7762C23.2309 24.3235 22.2186 26.5367 21.3093 28.0114C22.6389 27.6219 24.2533 26.9114 25.5275 25.6198C27.7137 23.4038 28.2126 20.1723 28.3195 19.1266C28.3378 18.9469 28.1889 18.7959 28.0115 18.8145Z" fill="#C5BBFF"/>
<path d="M21.5714 21.7761C21.5714 24.917 19.6614 27.5644 19.0117 28.3741C18.9009 28.5122 18.6958 28.5122 18.585 28.3741C17.9354 27.5644 16.0254 24.9171 16.0254 21.7761C16.0254 18.6418 17.9274 15.9989 18.581 15.1833C18.6939 15.0424 18.903 15.0424 19.0159 15.1833C19.6694 15.9989 21.5714 18.6418 21.5714 21.7761Z" fill="#C5BBFF"/>
<path d="M10.3611 9.66889L7.41378 3.7189L8.10809 3.40967C9.09297 2.97101 9.54567 1.79413 9.11919 0.781111L9.02306 0.552791C8.59658 -0.460286 7.45239 -0.925917 6.46751 -0.487255L1.17161 1.87145C0.186676 2.31011 -0.265965 3.48699 0.160512 4.50001L0.25665 4.72839C0.683127 5.74141 1.82731 6.2071 2.81219 5.76838L3.50651 5.45915L4.98231 9.66889H10.3611Z" fill="url(#paint1_linear_426_728)"/>
</g>
<defs>
<linearGradient id="paint0_linear_426_728" x1="13.1423" y1="11.3755" x2="13.1423" y2="24.2136" gradientUnits="userSpaceOnUse">
<stop stop-color="#555DFF"/>
<stop offset="1" stop-color="#333899"/>
</linearGradient>
<linearGradient id="paint1_linear_426_728" x1="5.18053" y1="-0.652344" x2="5.18053" y2="9.66889" gradientUnits="userSpaceOnUse">
<stop stop-color="#555DFF"/>
<stop offset="1" stop-color="#333899"/>
</linearGradient>
<clipPath id="clip0_426_728">
<rect width="28.3212" height="29.1304" fill="white"/>
</clipPath>
</defs>
</svg>
