<svg width="20" height="20" viewBox="0 0 20 20" fill="none" xmlns="http://www.w3.org/2000/svg">
<path d="M14.2859 3.49976C14.6294 3.49985 14.9086 3.61216 15.1501 3.84448C15.3912 4.0764 15.5001 4.33587 15.4998 4.64819V15.3474C15.4997 15.7606 15.3362 16.0608 14.9626 16.2957C14.5877 16.5313 14.2139 16.5636 13.7888 16.3894L10.1902 14.906L9.99976 14.8269L9.80933 14.906L6.21069 16.3894C5.78541 16.5633 5.41198 16.53 5.03687 16.2947C4.66382 16.0605 4.49976 15.7612 4.49976 15.3474V4.64917L4.50464 4.53394C4.52887 4.27128 4.63959 4.04786 4.85034 3.84546C5.06197 3.64223 5.30186 3.53067 5.58862 3.50562L5.7146 3.49976H14.2859Z" fill="#575FFF" stroke="#575FFF"/>
</svg>
