<svg width="12" height="14" viewBox="0 0 12 14" fill="none" xmlns="http://www.w3.org/2000/svg">
<path d="M10.2861 0.5C10.6297 0.500092 10.9088 0.612404 11.1504 0.844727C11.3915 1.07664 11.5004 1.33612 11.5 1.64844V12.3477C11.5 12.7608 11.3365 13.0611 10.9629 13.2959C10.5879 13.5316 10.2141 13.5638 9.78906 13.3896L6.19043 11.9062L6 11.8271L5.80957 11.9062L2.21094 13.3896C1.78565 13.5635 1.41222 13.5303 1.03711 13.2949C0.664063 13.0608 0.500007 12.7615 0.5 12.3477V1.64941L0.504883 1.53418C0.529116 1.27152 0.639831 1.0481 0.850586 0.845703C1.06221 0.642478 1.30211 0.530917 1.58887 0.505859L1.71484 0.5H10.2861Z" stroke="black"/>
</svg>
