<svg width="20" height="20" viewBox="0 0 20 20" fill="none" xmlns="http://www.w3.org/2000/svg">
<path fill-rule="evenodd" clip-rule="evenodd" d="M13.2435 10.9202C12.7375 10.9202 12.3223 10.5105 12.3223 10.0036C12.3223 9.49667 12.7283 9.08692 13.2353 9.08692H13.2435C13.7495 9.08692 14.1602 9.49667 14.1602 10.0036C14.1602 10.5105 13.7495 10.9202 13.2435 10.9202ZM9.56859 10.9202C9.06167 10.9202 8.64734 10.5105 8.64734 10.0036C8.64734 9.49667 9.05434 9.08692 9.56034 9.08692H9.56859C10.0746 9.08692 10.4853 9.49667 10.4853 10.0036C10.4853 10.5105 10.0746 10.9202 9.56859 10.9202ZM5.89367 10.9202C5.38767 10.9202 4.97334 10.5105 4.97334 10.0036C4.97334 9.49667 5.37851 9.08692 5.88542 9.08692H5.89367C6.39967 9.08692 6.81034 9.49667 6.81034 10.0036C6.81034 10.5105 6.39967 10.9202 5.89367 10.9202ZM16.4298 2.81692C14.6139 1.001 12.1967 0 9.62451 0C7.05234 0 4.63509 1.001 2.81917 2.81692C-0.0243266 5.66133 -0.799827 10.0265 0.87309 13.6327C0.90334 13.7812 0.821757 14.3852 0.76309 14.8271C0.541257 16.4826 0.42759 17.6981 0.989507 18.2609C1.55051 18.8228 2.76509 18.7092 4.42059 18.4864C4.86242 18.4277 5.47384 18.3489 5.56917 18.359C6.85801 18.9557 8.23576 19.2445 9.60342 19.2445C12.1133 19.2445 14.5901 18.271 16.4298 16.4303C20.1818 12.6766 20.1827 6.56975 16.4298 2.81692Z" fill="#99A1BE"/>
</svg>
