<svg width="17" height="18" viewBox="0 0 17 18" fill="none" xmlns="http://www.w3.org/2000/svg">
<path fill-rule="evenodd" clip-rule="evenodd" d="M11.4455 9.56817H4.82717C4.44767 9.56817 4.13967 9.26017 4.13967 8.88067C4.13967 8.50117 4.44767 8.19317 4.82717 8.19317H11.4455C11.825 8.19317 12.133 8.50117 12.133 8.88067C12.133 9.26017 11.825 9.56817 11.4455 9.56817ZM11.4455 13.0139H4.82717C4.44767 13.0139 4.13967 12.7059 4.13967 12.3264C4.13967 11.9469 4.44767 11.6389 4.82717 11.6389H11.4455C11.825 11.6389 12.133 11.9469 12.133 12.3264C12.133 12.7059 11.825 13.0139 11.4455 13.0139ZM4.82717 4.74558H7.35258C7.73208 4.74558 8.04008 5.05358 8.04008 5.43308C8.04008 5.81258 7.73208 6.12058 7.35258 6.12058H4.82717C4.44767 6.12058 4.13967 5.81258 4.13967 5.43308C4.13967 5.05358 4.44767 4.74558 4.82717 4.74558ZM8.15008 0C2.13217 0 0 2.33933 0 8.93842C0 15.5366 2.13217 17.8759 8.15008 17.8759C14.1671 17.8759 16.3002 15.5366 16.3002 8.93842C16.3002 2.33933 14.1671 0 8.15008 0Z" fill="#99A1BE"/>
</svg>
