<svg width="20" height="20" viewBox="0 0 20 20" fill="none" xmlns="http://www.w3.org/2000/svg">
<path fill-rule="evenodd" clip-rule="evenodd" d="M10 0C15.5228 0 20 4.47715 20 10C20 15.5228 15.5228 20 10 20C4.47715 20 0 15.5228 0 10C0 4.47715 4.47715 0 10 0ZM13.9261 13.0999C12.9313 14.3741 11.6462 14.9954 9.99961 14.9954C8.35303 14.9954 7.06796 14.3741 6.07311 13.0999C5.78988 12.7372 5.26619 12.6727 4.90343 12.9559C4.54067 13.2392 4.4762 13.7629 4.75944 14.1256C6.0715 15.8061 7.84199 16.6621 9.99961 16.6621C12.1572 16.6621 13.9277 15.8061 15.2398 14.1256C15.523 13.7629 15.4585 13.2392 15.0958 12.9559C14.733 12.6727 14.2093 12.7372 13.9261 13.0999ZM6.6671 6.66677C5.97674 6.66677 5.4171 7.41297 5.4171 8.33344C5.4171 9.25391 5.97674 10.0001 6.6671 10.0001C7.35745 10.0001 7.9171 9.25391 7.9171 8.33344C7.9171 7.41297 7.35745 6.66677 6.6671 6.66677ZM13.3329 6.66677C12.6425 6.66677 12.0829 7.41297 12.0829 8.33344C12.0829 9.25391 12.6425 10.0001 13.3329 10.0001C14.0233 10.0001 14.5829 9.25391 14.5829 8.33344C14.5829 7.41297 14.0233 6.66677 13.3329 6.66677Z" fill="white"/>
</svg>
