<svg width="29" height="29" viewBox="0 0 29 29" fill="none" xmlns="http://www.w3.org/2000/svg">
<path d="M11.9107 9.06242C11.9106 8.89654 11.8574 8.73505 11.7589 8.6016C11.6604 8.46814 11.5217 8.36972 11.3632 8.32075C11.2048 8.27178 11.0348 8.27483 10.8781 8.32946C10.7215 8.38408 10.5865 8.48741 10.4928 8.62431L10.2981 8.91431C9.77817 9.69628 9.20749 10.5559 7.62699 11.5036C7.53846 11.5556 7.46111 11.6246 7.3994 11.7066C7.3377 11.7886 7.29286 11.8821 7.2675 11.9816C7.24213 12.081 7.23673 12.1846 7.25161 12.2861C7.26649 12.3877 7.30136 12.4853 7.3542 12.5733C7.40703 12.6613 7.47679 12.738 7.55944 12.7989C7.64208 12.8598 7.73598 12.9037 7.8357 12.9281C7.93541 12.9525 8.03898 12.9568 8.14039 12.9409C8.24181 12.9251 8.33908 12.8892 8.42656 12.8355C9.27378 12.328 9.88796 11.8247 10.3571 11.3503V19.9374C10.3571 20.1434 10.439 20.341 10.5847 20.4867C10.7303 20.6324 10.9279 20.7142 11.1339 20.7142C11.3399 20.7142 11.5375 20.6324 11.6832 20.4867C11.8289 20.341 11.9107 20.1434 11.9107 19.9374V9.06242ZM15.8257 14.7278C15.7546 14.6515 15.6688 14.5902 15.5735 14.5478C15.4783 14.5053 15.3754 14.4825 15.2711 14.4807C15.1668 14.4788 15.0632 14.498 14.9665 14.5371C14.8698 14.5761 14.7819 14.6343 14.7081 14.7081C14.6344 14.7818 14.5762 14.8697 14.5372 14.9664C14.4981 15.0631 14.4789 15.1667 14.4807 15.271C14.4826 15.3753 14.5054 15.4782 14.5479 15.5735C14.5903 15.6688 14.6515 15.7545 14.7278 15.8256L16.5093 17.6071L14.7278 19.3885C14.5906 19.5357 14.5159 19.7305 14.5195 19.9317C14.523 20.133 14.6046 20.325 14.7469 20.4673C14.8892 20.6096 15.0812 20.6912 15.2825 20.6947C15.4837 20.6983 15.6785 20.6236 15.8257 20.4864L17.6071 18.7049L19.3886 20.4864C19.4597 20.5627 19.5454 20.6239 19.6407 20.6663C19.736 20.7088 19.8389 20.7316 19.9432 20.7335C20.0475 20.7353 20.1511 20.7161 20.2478 20.677C20.3445 20.638 20.4324 20.5798 20.5061 20.5061C20.5799 20.4323 20.638 20.3444 20.6771 20.2477C20.7162 20.151 20.7354 20.0474 20.7335 19.9431C20.7317 19.8388 20.7089 19.7359 20.6664 19.6406C20.624 19.5454 20.5627 19.4596 20.4864 19.3885L18.705 17.6071L20.4864 15.8256C20.6236 15.6784 20.6983 15.4836 20.6948 15.2824C20.6912 15.0811 20.6097 14.8891 20.4674 14.7468C20.3251 14.6045 20.1331 14.523 19.9318 14.5194C19.7306 14.5159 19.5358 14.5906 19.3886 14.7278L17.6071 16.5092L15.8257 14.7278Z" fill="black"/>
</svg>
