<svg width="17" height="17" viewBox="0 0 17 17" fill="none" xmlns="http://www.w3.org/2000/svg">
<path d="M14.5833 2.40583V4.8125L16.6667 6.015V10.8258L14.5825 12.0292L14.5833 14.435L10.4167 16.8408L8.33333 15.6367L6.25 16.84L2.08333 14.4342V12.0283L0 10.8267L0.000833273 6.01417L2.08333 4.81167V2.40667L6.25 0.000833273L8.3325 1.20417L10.4175 0L14.5833 2.40583ZM9.16667 2.6475V4.25333H7.5V2.6475L6.25 1.92583L3.74917 3.36833V5.77417L1.66667 6.97667V9.86417L3.75 11.0675V13.4733L6.25 14.9167L7.5 14.1942V12.5867H9.16667V14.195L10.4167 14.9167L12.9167 13.4725V11.0675L15 9.86333V6.97833L12.9158 5.77417L12.9167 3.36833L10.4175 1.925L9.16667 2.6475ZM10.2208 9.38667C10.2365 9.34749 10.2635 9.31391 10.2984 9.29024C10.3333 9.26658 10.3745 9.25393 10.4167 9.25393C10.4588 9.25393 10.5 9.26658 10.535 9.29024C10.5699 9.31391 10.5969 9.34749 10.6125 9.38667L10.7183 9.64083C10.8983 10.075 11.2342 10.4225 11.6558 10.61L11.955 10.7433C11.993 10.7611 12.0252 10.7894 12.0477 10.8248C12.0702 10.8602 12.0822 10.9014 12.0822 10.9433C12.0822 10.9853 12.0702 11.0264 12.0477 11.0618C12.0252 11.0973 11.993 11.1255 11.955 11.1433L11.6383 11.285C11.2267 11.4683 10.8967 11.8017 10.7133 12.2217L10.6108 12.4575C10.5947 12.4957 10.5677 12.5282 10.5331 12.5511C10.4986 12.574 10.4581 12.5862 10.4167 12.5862C10.3752 12.5862 10.3347 12.574 10.3002 12.5511C10.2657 12.5282 10.2386 12.4957 10.2225 12.4575L10.12 12.2225C9.93978 11.8053 9.60974 11.4708 9.195 11.285L8.87833 11.1433C8.84031 11.1255 8.80816 11.0973 8.78563 11.0618C8.7631 11.0264 8.75113 10.9853 8.75113 10.9433C8.75113 10.9014 8.7631 10.8602 8.78563 10.8248C8.80816 10.7894 8.84031 10.7611 8.87833 10.7433L9.1775 10.61C9.60276 10.4192 9.9384 10.0722 10.115 9.64083L10.2208 9.38667ZM6.32333 4.90333C6.35086 4.8348 6.39827 4.77608 6.45946 4.73472C6.52065 4.69336 6.59281 4.67125 6.66667 4.67125C6.74052 4.67125 6.81269 4.69336 6.87387 4.73472C6.93506 4.77608 6.98247 4.8348 7.01 4.90333L7.195 5.34833C7.50395 6.10341 8.09101 6.71106 8.835 7.04583L9.35833 7.2775C9.65833 7.41083 9.65833 7.84667 9.35833 7.98L8.80417 8.22667C8.07888 8.55266 7.50187 9.1383 7.18667 9.86833L7.00667 10.28C6.9787 10.3471 6.93149 10.4045 6.87098 10.4448C6.81048 10.4851 6.73938 10.5067 6.66667 10.5067C6.59395 10.5067 6.52286 10.4851 6.46235 10.4448C6.40185 10.4045 6.35464 10.3471 6.32667 10.28L6.14667 9.8675C5.83146 9.13746 5.25445 8.55183 4.52917 8.22583L3.975 7.98C3.90784 7.94909 3.85095 7.89957 3.81107 7.83732C3.77119 7.77506 3.75 7.70268 3.75 7.62875C3.75 7.55482 3.77119 7.48244 3.81107 7.42018C3.85095 7.35793 3.90784 7.30841 3.975 7.2775L4.4975 7.04583C5.24212 6.71141 5.82982 6.10372 6.13917 5.34833L6.32333 4.90333Z" fill="url(#paint0_linear_696_2126)"/>
<defs>
<linearGradient id="paint0_linear_696_2126" x1="8.33333" y1="0" x2="8.33333" y2="16.8408" gradientUnits="userSpaceOnUse">
<stop stop-color="#8B90FF"/>
<stop offset="1" stop-color="#291B89"/>
</linearGradient>
</defs>
</svg>
