<svg width="16" height="17" viewBox="0 0 16 17" fill="none" xmlns="http://www.w3.org/2000/svg">
<path d="M9.15771 0.366406C9.77623 -0.365251 10.9714 0.0722346 10.9714 1.03086V15.5234C10.9714 16.4814 9.77692 16.9189 9.15771 16.1879L6.35589 12.8766C6.2272 12.7245 6.06692 12.6023 5.88621 12.5185C5.7055 12.4346 5.5087 12.3912 5.30949 12.3911H2.74286C2.01541 12.3911 1.31775 12.1021 0.803364 11.5877C0.288979 11.0733 0 10.3757 0 9.64823V6.90538C0 6.17793 0.288979 5.48027 0.803364 4.96588C1.31775 4.4515 2.01541 4.16252 2.74286 4.16252H5.30949C5.5087 4.16245 5.7055 4.11899 5.88621 4.03514C6.06692 3.9513 6.2272 3.8291 6.35589 3.67703L9.15771 0.366406ZM14.2793 3.77441C14.2287 3.69921 14.1637 3.63478 14.0881 3.58486C14.0124 3.53494 13.9277 3.5005 13.8386 3.48355C13.7496 3.4666 13.6581 3.46746 13.5694 3.4861C13.4807 3.50473 13.3966 3.54076 13.3219 3.59211C13.2472 3.64345 13.1834 3.70909 13.1343 3.78523C13.0851 3.86137 13.0515 3.94651 13.0355 4.0357C13.0194 4.1249 13.0212 4.2164 13.0408 4.3049C13.0603 4.3934 13.0972 4.47716 13.1493 4.55132C14.0304 5.83361 14.4432 7.07132 14.4432 8.2768C14.4432 9.48229 14.0304 10.7207 13.1493 12.003C13.0484 12.1529 13.0108 12.3365 13.0446 12.514C13.0784 12.6915 13.1809 12.8484 13.3297 12.9508C13.4786 13.0531 13.6619 13.0926 13.8397 13.0606C14.0175 13.0286 14.1755 12.9277 14.2793 12.7799C15.2839 11.3193 15.8139 9.81418 15.8139 8.2768C15.8139 6.73943 15.2839 5.23498 14.2793 3.77441Z" fill="white"/>
</svg>
