<svg width="20" height="20" viewBox="0 0 20 20" fill="none" xmlns="http://www.w3.org/2000/svg">
<path opacity="0.2" d="M11 5.79L18.314 4.52C18.394 4.50667 18.4747 4.5 18.556 4.5C19.357 4.5 20 5.164 20 5.975V15.761C20 16.481 19.489 17.101 18.787 17.217L11.082 18.493C11.0224 18.5032 10.9614 18.5026 10.902 18.491L3.255 17.224C2.9044 17.166 2.58579 16.9853 2.35595 16.7143C2.12611 16.4432 1.99997 16.0994 2 15.744V6.011C2 5.79235 2.0478 5.57634 2.14006 5.3781C2.23231 5.17986 2.36679 5.00419 2.53408 4.86339C2.70136 4.72259 2.89741 4.62006 3.10848 4.56299C3.31956 4.50592 3.54055 4.49568 3.756 4.533L11 5.79Z" fill="#7077FE"/>
<path fill-rule="evenodd" clip-rule="evenodd" d="M10.08 4.304L2.244 3.019C2.02919 2.98359 1.80925 2.99536 1.59944 3.05349C1.38964 3.11163 1.19501 3.21474 1.02906 3.35566C0.863114 3.49658 0.729831 3.67194 0.63847 3.86955C0.547109 4.06716 0.499858 4.28229 0.5 4.5V14.238C0.499988 14.5956 0.62775 14.9415 0.860247 15.2132C1.09274 15.485 1.41468 15.6647 1.768 15.72L9.923 16.995C9.99431 17.0061 10.0672 17.0017 10.1366 16.9819C10.206 16.9622 10.2704 16.9277 10.3252 16.8808C10.38 16.8338 10.424 16.7756 10.4542 16.71C10.4844 16.6445 10.5 16.5732 10.5 16.501V4.797C10.4999 4.67836 10.4575 4.56362 10.3806 4.47331C10.3037 4.383 10.1971 4.32298 10.08 4.304ZM2.08 4.006L9.5 5.222V15.916L1.923 14.73C1.80534 14.7117 1.69808 14.6519 1.62053 14.5616C1.54299 14.4712 1.50025 14.3561 1.5 14.237V4.5C1.49994 4.42754 1.51562 4.35592 1.54598 4.29012C1.57633 4.22432 1.62063 4.1659 1.6758 4.11891C1.73096 4.07193 1.79568 4.03749 1.86548 4.018C1.93527 3.9985 2.00847 3.99441 2.08 4.006Z" fill="#7077FE"/>
<path fill-rule="evenodd" clip-rule="evenodd" d="M18 3C17.9186 3.00006 17.8373 3.00675 17.757 3.02L9.92001 4.303C9.80307 4.3222 9.69676 4.3823 9.62002 4.47259C9.54328 4.56289 9.5011 4.6775 9.50101 4.796V16.5C9.50101 16.5722 9.51664 16.6435 9.54682 16.709C9.577 16.7746 9.62101 16.8328 9.67583 16.8798C9.73065 16.9267 9.79498 16.9612 9.86441 16.9809C9.93383 17.0007 10.0067 17.0051 10.078 16.994L18.233 15.719C18.5863 15.6637 18.9083 15.484 19.1408 15.2122C19.3733 14.9405 19.501 14.5946 19.501 14.237V4.5C19.501 4.30293 19.4622 4.1078 19.3867 3.92574C19.3113 3.74369 19.2007 3.57829 19.0613 3.43899C18.9219 3.29969 18.7564 3.18922 18.5743 3.11389C18.3922 3.03857 18.1971 2.99987 18 3ZM18.077 14.73L10.5 15.917V5.222L17.92 4.006C17.9915 3.99441 18.0647 3.9985 18.1345 4.018C18.2043 4.03749 18.269 4.07193 18.3242 4.11891C18.3794 4.1659 18.4237 4.22432 18.454 4.29012C18.4844 4.35592 18.5001 4.42753 18.5 4.5V14.237C18.4998 14.3561 18.457 14.4712 18.3795 14.5616C18.3019 14.6519 18.1947 14.7117 18.077 14.73Z" fill="#7077FE"/>
</svg>
