<svg width="18" height="18" viewBox="0 0 18 18" fill="none" xmlns="http://www.w3.org/2000/svg">
<path fill-rule="evenodd" clip-rule="evenodd" d="M6.504 5.65674H11.496C14.0265 5.65674 15.2925 5.65674 16.0035 6.39699C16.7145 7.13724 16.5465 8.28024 16.212 10.567L15.8955 12.736C15.633 14.5292 15.5018 15.4262 14.829 15.9632C14.1563 16.5002 13.164 16.5002 11.1788 16.5002H6.82125C4.83675 16.5002 3.84375 16.5002 3.171 15.9632C2.49825 15.4262 2.367 14.5292 2.1045 12.736L1.788 10.567C1.45275 8.28024 1.2855 7.13724 1.9965 6.39699C2.7075 5.65674 3.9735 5.65674 6.504 5.65674ZM6 13.5002C6 13.1897 6.27975 12.9377 6.62475 12.9377H11.3753C11.7203 12.9377 12 13.1897 12 13.5002C12 13.8107 11.7203 14.0627 11.3753 14.0627H6.62475C6.27975 14.0627 6 13.8107 6 13.5002Z" fill="#575FFF"/>
<path opacity="0.4" d="M6.38249 1.5H11.6175C11.7922 1.5 11.925 1.5 12.0427 1.51125C12.8737 1.593 13.5532 2.0925 13.842 2.76525H4.15799C4.44674 2.0925 5.12699 1.593 5.95799 1.51125C6.07424 1.5 6.20849 1.5 6.38249 1.5Z" fill="#575FFF"/>
<path opacity="0.7" d="M4.73251 3.54248C3.69001 3.54248 2.83501 4.17248 2.55001 5.00723L2.53201 5.05973C2.83456 4.97233 3.14351 4.90888 3.45601 4.86998C4.26601 4.76648 5.29051 4.76648 6.48001 4.76648H11.649C12.8385 4.76648 13.863 4.76648 14.673 4.86998C14.988 4.91048 15.2985 4.96973 15.597 5.05973L15.5798 5.00723C15.2948 4.17173 14.4398 3.54248 13.3965 3.54248H4.73251Z" fill="#575FFF"/>
</svg>
