<svg width="24" height="24" viewBox="0 0 24 24" fill="none" xmlns="http://www.w3.org/2000/svg">
<path d="M11.1825 2.72248C11.6438 2.29498 12.3563 2.29498 12.8138 2.72248L16.2 5.86123V5.39998C16.2 4.73623 16.7363 4.19998 17.4 4.19998H18.6C19.2638 4.19998 19.8 4.73623 19.8 5.39998V9.20623L21.2175 10.5225C21.5775 10.86 21.6975 11.3812 21.5175 11.8387C21.3375 12.2962 20.895 12.6 20.4 12.6H19.8V19.2C19.8 20.5237 18.7238 21.6 17.4 21.6H6.6C5.27625 21.6 4.2 20.5237 4.2 19.2V12.6H3.6C3.105 12.6 2.6625 12.2962 2.4825 11.8387C2.3025 11.3812 2.4225 10.8562 2.7825 10.5225L11.1825 2.72248ZM11.4 14.4C10.4063 14.4 9.6 15.2062 9.6 16.2V19.8H14.4V16.2C14.4 15.2062 13.5938 14.4 12.6 14.4H11.4Z" fill="#929AB3"/>
</svg>
