<svg width="21" height="21" viewBox="0 0 21 21" fill="none" xmlns="http://www.w3.org/2000/svg">
<path d="M15 0C16.6667 0 18.0833 0.583333 19.25 1.75C20.4167 2.91667 21 4.33333 21 6C21 7.66667 20.4167 9.08333 19.25 10.25C18.0833 11.4167 16.6667 12 15 12C13.3333 12 11.9167 11.4167 10.75 10.25C9.58333 9.08333 9 7.66667 9 6C9 4.33333 9.58333 2.91667 10.75 1.75C11.9167 0.583333 13.3333 0 15 0ZM15.1 14.025C15.5833 14.025 16.0543 13.975 16.513 13.875C16.9717 13.775 17.4173 13.6333 17.85 13.45C17.5 15.6333 16.4917 17.4377 14.825 18.863C13.1583 20.2883 11.2167 21.0007 9 21C7.75 21 6.57933 20.7627 5.488 20.288C4.39667 19.8133 3.44667 19.1717 2.638 18.363C1.82933 17.5543 1.18733 16.6043 0.712001 15.513C0.236668 14.4217 -0.000665266 13.2507 1.40056e-06 12C1.40056e-06 9.78333 0.712668 7.84167 2.138 6.175C3.56333 4.50833 5.36733 3.5 7.55 3.15C7.36667 3.6 7.229 4.06667 7.137 4.55C7.045 5.03333 6.99933 5.51667 7 6C7.03333 8.23333 7.83333 10.1293 9.4 11.688C10.9667 13.2467 12.8667 14.0257 15.1 14.025Z" fill="#929AB3"/>
</svg>
