<svg width="25" height="25" viewBox="0 0 25 25" fill="none" xmlns="http://www.w3.org/2000/svg">
<path fill-rule="evenodd" clip-rule="evenodd" d="M11.7656 16.0767C11.3942 16.2302 10.9695 16.375 10.5733 16.375C10.2663 16.375 9.97781 16.2884 9.74257 16.0531C9.57048 15.881 9.04181 15.3536 9.05667 11.8696C9.07029 8.40419 9.57667 7.89905 9.74257 7.7319C10.327 7.14876 11.2939 7.54619 11.7074 7.71829C12.7276 8.14048 16.7217 10.3406 16.7217 11.8931C16.7217 13.4705 12.641 15.7139 11.7656 16.0767ZM12.0714 0C3.15962 0 0 3.15962 0 12.0714C0 20.9832 3.15962 24.1429 12.0714 24.1429C20.9845 24.1429 24.1429 20.9832 24.1429 12.0714C24.1429 3.15962 20.9845 0 12.0714 0Z" fill="#929AB3"/>
</svg>
