<svg width="24" height="24" viewBox="0 0 24 24" fill="none" xmlns="http://www.w3.org/2000/svg">
<path d="M3.77799 3.655C3.59699 4.015 3.50799 4.461 3.32999 5.351L2.73199 8.341C2.64724 8.74867 2.64659 9.16936 2.73006 9.5773C2.81354 9.98523 2.9794 10.3718 3.21748 10.7135C3.45556 11.0551 3.76086 11.3445 4.11468 11.564C4.4685 11.7835 4.86341 11.9285 5.27522 11.9901C5.68702 12.0518 6.10707 12.0287 6.50965 11.9223C6.91222 11.8159 7.28885 11.6285 7.61648 11.3715C7.94411 11.1145 8.21584 10.7934 8.41505 10.4277C8.61425 10.0621 8.73673 9.65963 8.77499 9.245L8.84499 8.555C8.8071 8.99384 8.86115 9.43576 9.00372 9.85252C9.14628 10.2693 9.37421 10.6517 9.67295 10.9754C9.97169 11.2991 10.3347 11.5569 10.7387 11.7324C11.1427 11.9078 11.5789 11.9971 12.0193 11.9944C12.4598 11.9918 12.8949 11.8973 13.2967 11.717C13.6986 11.5366 14.0584 11.2745 14.3533 10.9472C14.6481 10.6199 14.8714 10.2348 15.0089 9.81634C15.1464 9.39789 15.1952 8.95535 15.152 8.517L15.225 9.245C15.2633 9.65963 15.3857 10.0621 15.5849 10.4277C15.7841 10.7934 16.0559 11.1145 16.3835 11.3715C16.7111 11.6285 17.0878 11.8159 17.4903 11.9223C17.8929 12.0287 18.313 12.0518 18.7248 11.9901C19.1366 11.9285 19.5315 11.7835 19.8853 11.564C20.2391 11.3445 20.5444 11.0551 20.7825 10.7135C21.0206 10.3718 21.1864 9.98523 21.2699 9.5773C21.3534 9.16936 21.3527 8.74867 21.268 8.341L20.67 5.351C20.492 4.461 20.403 4.016 20.222 3.655C20.0334 3.27904 19.7678 2.94694 19.4426 2.68025C19.1173 2.41356 18.7396 2.21826 18.334 2.107C17.944 2 17.49 2 16.582 2H7.41799C6.50999 2 6.05599 2 5.66599 2.107C5.26036 2.21826 4.88266 2.41356 4.5574 2.68025C4.23213 2.94694 3.96659 3.27904 3.77799 3.655ZM18.269 13.5C19.0503 13.502 19.8189 13.3018 20.5 12.919V14C20.5 17.771 20.5 19.657 19.328 20.828C18.385 21.772 16.98 21.955 14.5 21.991V18.5C14.5 17.565 14.5 17.098 14.299 16.75C14.1673 16.522 13.978 16.3326 13.75 16.201C13.402 16 12.935 16 12 16C11.065 16 10.598 16 10.25 16.201C10.022 16.3326 9.83264 16.522 9.70099 16.75C9.49999 17.098 9.49999 17.565 9.49999 18.5V21.991C7.01999 21.955 5.61499 21.771 4.67199 20.828C3.49999 19.657 3.49999 17.771 3.49999 14V12.919C4.1814 13.302 4.95033 13.5021 5.73199 13.5C6.88763 13.5007 8.00025 13.0617 8.84399 12.272C9.70371 13.0643 10.8309 13.5029 12 13.5C13.1691 13.5029 14.2963 13.0643 15.156 12.272C15.9997 13.0617 17.1134 13.5007 18.269 13.5Z" fill="#929AB3"/>
</svg>
