<svg width="46" height="46" viewBox="0 0 46 46" fill="none" xmlns="http://www.w3.org/2000/svg">
<path d="M23 4.67188C19.375 4.67187 15.8315 5.7468 12.8174 7.76072C9.8034 9.77464 7.45424 12.6371 6.06703 15.9861C4.67982 19.3352 4.31686 23.0203 5.02405 26.5756C5.73125 30.1309 7.47683 33.3967 10.0401 35.9599C12.6033 38.5232 15.8691 40.2688 19.4244 40.976C22.9797 41.6832 26.6649 41.3202 30.0139 39.933C33.3629 38.5458 36.2254 36.1966 38.2393 33.1826C40.2532 30.1685 41.3281 26.625 41.3281 23C41.3224 18.1408 39.3896 13.4823 35.9536 10.0464C32.5177 6.61041 27.8592 4.67758 23 4.67188ZM23 39.1719C19.8015 39.1719 16.6748 38.2234 14.0154 36.4464C11.3559 34.6694 9.28315 32.1437 8.05914 29.1887C6.83513 26.2337 6.51488 22.9821 7.13887 19.845C7.76287 16.708 9.30309 13.8264 11.5648 11.5648C13.8264 9.30308 16.708 7.76286 19.845 7.13886C22.9821 6.51487 26.2337 6.83512 29.1887 8.05914C32.1437 9.28315 34.6694 11.3559 36.4464 14.0154C38.2234 16.6748 39.1719 19.8015 39.1719 23C39.1671 27.2876 37.4618 31.3982 34.43 34.43C31.3982 37.4618 27.2876 39.1671 23 39.1719ZM19.7656 17.25V28.75C19.7656 29.0359 19.652 29.3102 19.4499 29.5124C19.2477 29.7145 18.9734 29.8281 18.6875 29.8281C18.4016 29.8281 18.1273 29.7145 17.9252 29.5124C17.723 29.3102 17.6094 29.0359 17.6094 28.75V17.25C17.6094 16.9641 17.723 16.6898 17.9252 16.4877C18.1273 16.2855 18.4016 16.1719 18.6875 16.1719C18.9734 16.1719 19.2477 16.2855 19.4499 16.4877C19.652 16.6898 19.7656 16.9641 19.7656 17.25ZM28.3906 17.25V28.75C28.3906 29.0359 28.277 29.3102 28.0749 29.5124C27.8727 29.7145 27.5984 29.8281 27.3125 29.8281C27.0266 29.8281 26.7523 29.7145 26.5502 29.5124C26.348 29.3102 26.2344 29.0359 26.2344 28.75V17.25C26.2344 16.9641 26.348 16.6898 26.5502 16.4877C26.7523 16.2855 27.0266 16.1719 27.3125 16.1719C27.5984 16.1719 27.8727 16.2855 28.0749 16.4877C28.277 16.6898 28.3906 16.9641 28.3906 17.25Z" fill="black"/>
</svg>
