<svg width="11" height="11" viewBox="0 0 11 11" fill="none" xmlns="http://www.w3.org/2000/svg">
<path d="M7.77143 10.9714C7.5264 10.9714 7.31276 10.8803 7.13051 10.6981C6.94827 10.5158 6.85714 10.3022 6.85714 10.0571V0.914286C6.85714 0.669257 6.94827 0.455619 7.13051 0.273371C7.31276 0.0911236 7.5264 0 7.77143 0H9.14286C9.38789 0 9.60152 0.0911236 9.78377 0.273371C9.96602 0.455619 10.0571 0.669257 10.0571 0.914286V10.0571C10.0571 10.3022 9.96602 10.5158 9.78377 10.6981C9.60152 10.8803 9.38789 10.9714 9.14286 10.9714H7.77143ZM0.914286 10.9714C0.669257 10.9714 0.455619 10.8803 0.273371 10.6981C0.0911236 10.5158 0 10.3022 0 10.0571V0.914286C0 0.669257 0.0911236 0.455619 0.273371 0.273371C0.455619 0.0911236 0.669257 0 0.914286 0H2.28571C2.53074 0 2.74438 0.0911236 2.92663 0.273371C3.10888 0.455619 3.2 0.669257 3.2 0.914286V10.0571C3.2 10.3022 3.10888 10.5158 2.92663 10.6981C2.74438 10.8803 2.53074 10.9714 2.28571 10.9714H0.914286Z" fill="white"/>
</svg>
