<svg width="17" height="18" viewBox="0 0 17 18" fill="none" xmlns="http://www.w3.org/2000/svg">
<path fill-rule="evenodd" clip-rule="evenodd" d="M8.0988 11.7C6.6102 11.7 5.3988 10.4886 5.3988 9C5.3988 7.5114 6.6102 6.3 8.0988 6.3C9.5874 6.3 10.7988 7.5114 10.7988 9C10.7988 10.4886 9.5874 11.7 8.0988 11.7ZM14.8614 9.8226C14.5671 9.6507 14.3907 9.3438 14.3907 9C14.3907 8.6562 14.5671 8.3493 14.8623 8.1783C16.1385 7.4358 16.5768 5.787 15.8406 4.5009C15.4815 3.8763 14.9028 3.4299 14.2098 3.2436C13.5204 3.0609 12.8004 3.1563 12.183 3.5154C11.8914 3.6864 11.5431 3.6864 11.2497 3.5163C10.9527 3.3462 10.7754 3.0375 10.7754 2.6928C10.7754 1.2087 9.5748 0 8.0988 0C6.6219 0 5.4213 1.2087 5.4213 2.6928C5.4213 3.0384 5.244 3.3462 4.947 3.5172C4.6554 3.6846 4.3071 3.6864 4.0155 3.5154C3.3963 3.1563 2.6772 3.0591 1.986 3.2445C1.293 3.4308 0.715201 3.8772 0.357001 4.5018C-0.379199 5.7879 0.0600011 7.4367 1.3362 8.1774C1.6305 8.3484 1.806 8.6562 1.806 9C1.806 9.3438 1.6305 9.6516 1.3362 9.8217C0.0600011 10.5642 -0.379199 12.2139 0.357001 13.4991C0.715201 14.1228 1.293 14.5692 1.9851 14.7555C2.6754 14.94 3.3963 14.8446 4.0155 14.4855C4.3062 14.3145 4.6545 14.3145 4.947 14.4828C5.244 14.6538 5.4213 14.9616 5.4213 15.3072C5.4213 16.7913 6.6219 18 8.0988 18C9.5748 18 10.7754 16.7913 10.7754 15.3072C10.7754 14.9625 10.9527 14.6538 11.2497 14.4837C11.5422 14.3145 11.8905 14.3145 12.183 14.4855C12.8013 14.8446 13.5213 14.9382 14.2098 14.7564C14.9028 14.5701 15.4815 14.1237 15.8406 13.4991C16.5768 12.2139 16.1385 10.5651 14.8614 9.8226Z" fill="#575FFF"/>
</svg>
